if (_typeface_js && _typeface_js.loadFace) _typeface_js.loadFace({"glyphs":{"S":{"x_min":92.40625,"x_max":809.890625,"ha":926,"o":"m 454 0 l 454 0 b 455 0 454 0 455 0 l 455 0 b 519 4 477 0 498 1 l 519 4 b 533 22 527 5 534 13 l 533 22 b 515 36 531 30 523 37 l 515 36 l 515 36 b 455 31 495 33 476 31 l 455 31 b 454 31 455 31 454 31 l 454 31 b 437 16 445 31 437 25 l 437 16 b 454 0 437 8 444 0 m 388 5 l 388 5 b 390 5 388 5 390 5 l 390 5 b 406 19 398 5 405 11 l 406 19 b 393 37 408 27 401 36 l 393 37 b 333 51 372 40 352 44 l 333 51 b 313 40 325 52 316 48 l 313 40 b 325 20 311 31 316 22 l 325 20 b 388 5 344 13 366 9 m 563 29 l 563 29 b 579 18 566 22 572 18 l 579 18 b 583 18 580 18 581 18 l 583 18 b 645 41 605 23 626 31 l 645 41 b 652 62 652 44 656 54 l 652 62 b 631 69 650 69 640 73 l 631 69 l 631 69 b 575 48 613 61 594 54 l 575 48 b 563 29 566 45 561 37 m 262 41 l 262 41 b 269 40 265 41 266 40 l 269 40 b 283 50 275 40 280 44 l 283 50 b 275 70 287 58 283 68 l 275 70 b 219 98 255 79 237 88 l 219 98 b 198 91 212 102 202 100 l 198 91 b 204 70 194 84 197 75 l 204 70 b 262 41 222 59 243 51 m 680 77 l 680 77 b 693 70 683 73 688 70 l 693 70 b 702 75 697 70 700 72 l 702 75 b 752 119 720 87 737 102 l 752 119 b 751 141 758 125 758 136 l 751 141 b 729 140 744 147 734 147 l 729 140 b 684 100 716 125 701 112 l 684 100 b 680 77 677 94 675 84 m 148 104 l 148 104 b 156 101 151 102 154 101 l 156 101 b 170 108 162 101 168 104 l 170 108 b 166 130 176 115 173 125 l 166 130 l 166 130 b 118 165 148 141 133 154 l 118 165 b 95 163 111 170 101 170 l 95 163 b 98 141 90 156 91 147 l 98 141 b 148 104 113 129 130 116 m 769 168 l 769 168 b 776 166 770 166 773 166 l 776 166 b 790 175 781 166 787 169 l 790 175 b 809 240 800 195 806 218 l 809 240 b 795 258 811 248 804 256 l 795 258 b 777 244 787 259 779 252 l 777 244 b 761 188 776 225 770 206 l 761 188 b 769 168 758 180 761 170 m 775 301 l 775 301 b 790 290 776 294 783 290 l 790 290 b 794 290 791 290 793 290 l 794 290 b 805 309 802 291 808 300 l 805 309 b 777 372 800 332 791 352 l 777 372 b 755 376 773 379 763 380 l 755 376 b 751 354 748 370 747 361 l 751 354 b 775 301 762 337 770 320 m 712 397 l 712 397 b 722 393 715 394 718 393 l 722 393 b 734 398 726 393 730 395 l 734 398 b 731 420 740 405 738 415 l 731 420 b 676 458 715 434 697 447 l 676 458 b 655 451 669 462 659 459 l 655 451 b 661 430 651 444 654 434 l 661 430 l 661 430 b 712 397 680 419 697 408 m 605 455 l 605 455 b 611 454 606 454 609 454 l 611 454 b 626 463 618 454 623 458 l 626 463 b 616 484 629 472 625 482 l 616 484 b 555 505 597 493 576 498 l 555 505 b 536 494 547 508 537 502 l 536 494 b 547 475 533 486 538 477 l 547 475 b 605 455 568 469 587 462 m 486 490 l 486 490 b 488 488 487 490 488 488 l 488 488 b 505 502 497 488 502 494 l 505 502 b 493 520 506 511 501 519 l 493 520 b 458 527 481 523 470 525 l 455 527 l 455 527 b 430 533 447 530 438 532 l 430 533 b 411 520 422 534 413 529 l 411 520 b 423 502 409 512 415 504 l 423 502 b 450 497 431 500 441 498 l 452 497 l 452 497 b 486 490 463 494 475 491 m 361 518 l 361 518 b 365 516 362 516 363 516 l 365 516 b 380 529 372 516 379 522 l 380 529 b 369 548 383 537 377 545 l 369 548 b 311 568 348 554 329 561 l 311 568 b 290 558 302 570 294 566 l 290 558 b 300 538 287 551 291 541 l 300 538 b 361 518 319 530 340 523 m 240 566 l 240 566 b 248 563 243 565 245 563 l 248 563 b 262 572 254 563 258 566 l 262 572 b 255 594 266 580 263 590 l 255 594 b 206 629 237 604 220 616 l 206 629 b 184 627 201 634 191 634 l 184 627 b 186 605 179 620 179 611 l 186 605 b 240 566 201 590 219 577 m 143 659 l 143 659 b 158 651 147 654 152 651 l 158 651 b 165 652 159 651 162 651 l 165 652 b 172 673 173 657 176 666 l 172 673 b 155 729 162 690 158 708 l 155 729 b 138 743 155 737 147 743 l 138 743 b 125 726 130 741 123 734 l 125 726 l 125 726 b 143 659 126 701 133 679 m 141 775 l 141 775 b 147 773 143 773 145 773 l 147 773 b 162 786 154 773 159 779 l 162 786 b 187 837 166 804 176 820 l 187 837 b 183 859 193 844 190 854 l 183 859 b 161 855 176 865 166 862 l 161 855 b 131 794 148 836 137 816 l 131 794 b 141 775 129 786 133 777 m 737 845 l 737 845 b 745 843 740 844 743 843 l 745 843 b 759 851 751 843 755 845 l 759 851 b 754 872 763 858 762 868 l 754 872 b 700 907 737 883 719 895 l 700 907 b 679 901 693 911 683 909 l 679 901 b 684 880 673 894 676 884 l 684 880 b 737 845 702 869 719 857 m 205 883 l 205 883 b 218 876 208 879 212 876 l 218 876 b 227 880 220 876 225 877 l 227 880 b 277 914 243 893 259 904 l 277 914 b 284 934 286 918 288 927 l 284 934 b 262 941 280 943 270 945 l 262 941 b 206 905 243 930 223 919 l 206 905 b 205 883 201 900 200 889 m 629 909 l 629 909 b 637 908 631 908 634 908 l 637 908 b 651 916 643 908 648 911 l 651 916 b 644 939 655 925 651 934 l 644 939 l 644 939 b 583 964 625 948 604 957 l 583 964 b 563 954 575 966 566 962 l 563 954 b 573 934 561 945 565 937 l 573 934 b 629 909 593 927 611 919 m 313 947 l 313 947 b 329 936 316 940 322 936 l 329 936 b 333 937 330 936 331 936 l 333 937 b 393 950 352 943 372 947 l 393 950 b 406 968 401 951 408 959 l 406 968 b 388 982 405 977 397 983 l 388 982 b 323 966 366 979 344 973 l 323 966 b 313 947 315 964 311 955 m 513 950 l 513 950 b 516 948 515 950 516 948 l 516 948 b 533 962 525 948 531 954 l 533 962 b 519 980 534 971 529 979 l 519 980 l 519 980 b 454 986 498 984 476 986 l 454 986 b 437 970 445 986 437 979 l 437 970 b 454 954 437 962 445 955 l 454 954 b 513 950 475 954 494 952 "},"/":{"x_min":104.140625,"x_max":532.953125,"ha":586,"o":"m 115 1 l 115 1 b 120 0 116 0 119 0 l 120 0 b 138 11 127 0 134 4 l 150 40 l 150 40 b 140 62 154 48 148 59 l 140 62 b 116 52 130 66 120 62 l 105 25 l 105 25 b 115 1 101 15 106 5 m 154 94 l 154 94 b 161 93 155 94 159 93 l 161 93 b 176 105 168 93 175 98 l 205 168 l 205 168 b 194 193 208 179 202 187 l 194 193 b 172 181 186 197 175 191 l 145 118 l 145 118 b 154 94 141 108 145 98 m 208 225 l 208 225 b 215 222 209 222 213 222 l 215 222 b 231 233 222 222 229 226 l 259 298 l 259 298 b 248 320 262 307 256 318 l 248 320 b 226 312 240 325 229 320 l 200 247 l 200 247 b 208 225 195 238 200 227 m 262 354 l 262 354 b 269 352 265 352 268 352 l 269 352 b 286 363 276 352 283 355 l 313 427 l 313 427 b 302 451 316 437 313 447 l 302 451 b 280 441 294 454 286 451 l 254 377 l 254 377 b 262 354 250 368 254 358 m 316 482 l 316 482 b 323 482 319 482 322 482 l 323 482 b 340 493 331 482 338 486 l 368 558 l 368 558 b 359 580 372 566 368 577 l 359 580 b 334 570 348 584 340 579 l 308 507 l 308 507 b 316 482 305 497 308 487 m 372 612 l 372 612 b 379 611 375 612 376 611 l 379 611 b 394 620 386 611 393 616 l 422 686 l 422 686 b 413 708 426 694 422 705 l 413 708 b 388 700 402 714 394 708 l 362 634 l 362 634 b 372 612 359 626 362 616 m 426 741 l 426 741 b 433 740 429 740 431 740 l 433 740 b 448 751 440 740 447 744 l 476 816 l 476 816 b 468 839 480 825 476 834 l 468 839 b 445 830 459 841 448 839 l 416 765 l 416 765 b 426 741 413 757 416 745 m 480 872 l 480 872 b 487 870 483 870 486 870 l 487 870 b 502 880 494 870 501 873 l 531 945 l 531 945 b 522 968 534 954 531 965 l 522 968 b 500 959 513 972 502 968 l 472 894 l 472 894 b 480 872 468 886 472 876 "},"K":{"x_min":144.0625,"x_max":859.75,"ha":993,"o":"m 156 272 b 169 266 160 268 166 266 b 184 272 174 266 180 268 l 234 322 b 234 347 241 329 241 340 b 209 347 227 354 216 354 l 178 318 l 178 377 b 160 395 178 388 170 395 b 144 377 151 395 144 388 l 144 305 b 152 290 144 300 146 293 b 156 272 151 283 152 276 m 362 475 b 374 469 364 472 369 469 b 387 475 378 469 382 472 l 424 512 l 463 461 b 477 455 467 457 473 455 b 488 459 481 455 487 455 b 492 484 498 463 498 477 l 448 540 b 439 545 445 543 444 544 b 437 551 439 547 438 548 b 412 551 430 558 419 558 l 362 500 b 362 475 355 493 355 482 m 462 576 b 476 570 466 572 471 570 b 488 576 480 570 484 572 l 539 627 b 539 654 545 636 545 645 b 513 654 532 661 520 661 l 462 602 b 462 576 455 595 455 583 m 827 16 b 842 11 831 12 837 11 b 853 13 845 11 849 11 b 855 40 860 19 862 31 l 810 95 b 784 97 802 102 792 104 b 781 72 777 91 776 79 l 827 16 m 769 882 b 781 876 771 879 776 876 b 794 882 784 876 789 879 l 844 932 b 844 959 851 940 851 952 b 819 959 837 965 826 965 l 769 907 b 769 882 762 900 762 889 m 735 127 b 751 120 739 123 745 120 b 762 126 753 120 757 122 b 763 151 769 131 770 141 l 717 206 b 692 208 710 213 699 213 b 691 183 685 201 684 190 l 735 127 m 644 238 b 659 231 648 234 653 231 b 669 236 662 231 666 234 b 673 262 677 243 678 254 l 626 316 b 601 320 620 326 607 326 b 599 295 594 313 592 302 l 644 238 m 259 372 b 271 366 263 369 267 366 b 284 372 277 366 281 369 l 334 425 b 334 450 342 430 342 443 b 309 450 330 457 316 457 l 259 397 b 259 372 252 390 252 380 m 666 782 b 678 776 670 777 674 776 b 691 782 684 776 687 777 l 744 832 b 744 857 751 839 751 850 b 719 857 735 864 723 864 l 666 807 b 666 782 659 800 659 786 m 552 351 b 567 344 556 345 562 344 b 577 347 570 344 574 345 b 581 372 587 354 587 365 l 534 429 b 509 430 528 436 516 437 b 507 405 502 425 501 413 l 552 351 m 564 679 b 577 673 569 675 573 673 b 589 679 581 673 587 675 l 641 729 b 641 754 648 736 648 747 b 616 754 634 761 623 761 l 564 704 b 564 679 557 697 557 686 m 144 18 b 160 0 144 8 151 0 b 178 18 170 0 178 8 l 178 90 b 160 108 178 101 170 108 b 144 90 151 108 144 101 l 144 18 m 144 594 b 160 576 144 584 151 576 b 178 594 170 576 178 584 l 178 666 b 160 684 178 676 170 684 b 144 666 151 684 144 676 l 144 594 m 144 450 b 160 432 144 441 151 432 b 178 450 170 432 178 441 l 178 522 b 160 540 178 533 170 540 b 144 522 151 540 144 533 l 144 450 m 144 882 b 160 864 144 873 151 864 b 178 882 170 864 178 873 l 178 954 b 160 972 178 965 170 972 b 144 954 151 972 144 965 l 144 882 m 144 162 b 160 144 144 152 151 144 b 178 162 170 144 178 152 l 178 234 b 160 251 178 244 170 251 b 144 234 151 251 144 244 l 144 162 m 144 737 b 160 720 144 729 151 720 b 178 737 170 720 178 729 l 178 809 b 160 827 178 820 170 827 b 144 809 151 827 144 820 l 144 737 "},"7":{"x_min":88.890625,"x_max":615.28125,"ha":815,"o":"m 562 872 b 569 870 566 870 568 870 b 586 880 576 870 583 873 l 613 945 l 613 947 b 615 952 615 948 615 950 b 613 958 615 954 613 957 b 612 961 612 959 612 961 b 609 964 611 962 611 964 l 609 965 b 597 970 605 968 601 970 l 527 970 b 509 952 516 970 509 961 b 527 934 509 943 516 934 l 570 934 l 554 894 b 562 872 550 886 554 876 m 316 934 b 334 952 326 934 334 943 b 316 970 334 961 326 970 l 247 970 b 229 952 236 970 229 961 b 247 934 229 943 236 934 l 316 934 m 456 934 b 475 952 466 934 475 943 b 456 970 475 961 466 970 l 387 970 b 369 952 376 970 369 961 b 387 934 369 943 376 934 l 456 934 m 176 934 b 194 952 184 934 194 943 b 176 970 194 961 184 970 l 106 970 b 88 952 95 970 88 961 b 106 934 88 943 95 934 l 176 934 m 344 354 b 352 352 347 352 350 352 b 368 363 359 352 366 355 l 395 427 b 386 451 400 437 395 447 b 362 441 376 454 366 451 l 336 377 b 344 354 333 368 336 358 m 406 482 b 422 493 413 482 420 486 l 450 558 b 441 580 454 566 450 577 b 416 570 430 584 422 579 l 390 507 b 400 482 387 497 390 487 l 406 482 m 236 94 b 243 93 237 94 241 93 b 259 105 250 93 256 98 l 287 168 b 276 193 290 179 286 187 b 254 181 268 197 256 191 l 227 118 b 236 94 223 108 227 98 m 290 225 b 297 222 293 222 295 222 b 313 233 304 222 311 226 l 341 298 b 330 320 344 306 340 318 b 308 312 322 325 311 320 l 281 247 b 290 225 277 238 281 227 m 454 612 b 461 611 456 612 459 611 b 476 620 468 611 475 616 l 504 686 b 495 708 508 694 504 705 b 470 700 486 714 476 708 l 444 634 b 454 612 441 626 444 616 m 508 741 b 515 740 512 740 513 740 b 530 751 522 740 529 744 l 559 816 b 550 839 562 825 559 834 b 527 830 541 841 530 839 l 500 765 b 508 741 495 757 500 745 m 197 1 b 202 0 200 0 201 0 b 220 11 209 0 216 4 l 233 40 b 222 62 236 48 230 59 b 200 52 213 66 202 62 l 187 25 b 197 1 183 15 188 5 "},"d":{"x_min":83.328125,"x_max":733.328125,"ha":917,"o":"m 673 455 b 688 445 675 448 681 445 b 695 447 690 445 693 445 b 701 451 698 448 700 448 b 715 444 704 447 709 444 b 733 461 725 444 733 452 l 733 532 b 715 550 733 543 725 550 b 698 532 705 550 698 543 l 698 484 b 668 533 688 501 679 518 b 643 538 662 543 652 544 b 640 513 636 532 634 520 b 673 455 652 497 663 477 m 698 179 b 715 162 698 170 705 162 b 733 179 725 162 733 170 l 733 250 b 715 268 733 261 725 268 b 698 250 705 268 698 261 l 698 223 b 695 225 697 223 695 225 b 673 216 687 229 676 225 b 669 205 672 212 672 209 b 679 183 666 197 669 186 b 686 181 680 183 683 181 b 698 186 690 181 695 183 l 698 179 m 109 391 b 127 405 118 391 125 395 b 148 466 133 426 140 447 b 140 491 154 475 148 486 b 116 482 130 494 120 491 b 91 412 105 459 97 436 b 105 391 90 402 95 393 l 109 391 m 595 563 b 606 558 600 559 602 558 b 620 565 611 558 616 559 b 619 590 627 572 626 583 b 556 632 601 605 580 619 b 534 625 550 637 538 634 b 541 600 529 616 531 605 b 595 563 561 590 577 577 m 159 520 b 169 518 162 518 166 518 b 183 523 175 518 180 519 b 229 570 197 540 213 557 b 233 595 238 577 238 588 b 208 598 226 604 215 604 b 155 545 188 583 170 565 b 159 520 150 537 151 526 m 587 77 b 601 70 590 72 595 70 b 613 73 604 70 609 72 b 663 129 630 90 648 109 b 661 152 669 136 668 148 b 636 150 652 158 641 156 b 590 102 622 131 606 116 b 587 77 581 94 581 84 m 150 130 b 163 123 154 125 159 123 b 175 126 169 123 173 125 b 177 151 183 131 186 144 b 144 209 166 169 155 188 b 122 218 141 218 130 222 b 113 193 113 212 109 204 b 150 130 123 172 136 150 m 262 34 b 272 33 266 33 268 33 b 287 41 276 33 284 37 b 279 66 291 51 287 61 b 223 104 259 76 241 87 b 200 100 216 109 206 109 b 201 76 193 93 194 83 b 262 34 220 59 241 45 m 262 615 b 279 604 265 609 272 604 b 286 605 280 604 284 605 b 348 629 305 616 326 623 b 361 650 358 630 363 638 b 340 662 359 658 351 664 b 269 637 315 657 293 650 b 262 615 261 634 258 623 m 698 743 b 715 725 698 734 705 725 b 733 743 725 725 733 734 l 733 814 b 715 832 733 823 725 832 b 698 814 705 832 698 823 l 698 743 m 484 625 b 501 637 491 625 498 630 b 488 658 504 648 498 657 b 413 669 465 665 440 669 b 397 652 405 669 397 662 b 413 634 397 643 404 634 b 479 625 437 634 458 630 l 484 625 m 459 20 b 476 6 462 12 469 6 b 481 8 477 6 479 6 b 550 33 505 13 529 22 b 558 58 558 38 562 50 b 534 65 554 65 543 68 b 472 41 515 54 493 47 b 459 20 463 40 456 30 m 406 0 b 425 18 416 0 425 6 b 406 34 425 26 416 34 b 341 41 384 34 361 37 b 319 30 331 45 322 38 b 333 8 318 20 322 11 b 406 0 356 4 380 0 m 90 265 b 108 251 91 256 98 251 l 111 251 b 125 273 120 254 127 262 b 118 334 122 293 118 313 l 118 337 b 101 355 118 348 111 355 b 83 337 91 355 83 348 l 83 334 b 90 265 83 311 87 287 m 698 320 b 715 302 698 311 705 302 b 733 320 725 302 733 311 l 733 391 b 715 408 733 401 725 408 b 698 391 705 408 698 401 l 698 320 m 698 884 b 715 866 698 875 705 866 b 733 884 725 866 733 875 l 733 954 b 715 972 733 965 725 972 b 698 954 705 972 698 965 l 698 884 m 698 602 b 715 584 698 593 705 584 b 733 602 725 584 733 593 l 733 672 b 715 690 733 683 725 690 b 698 672 705 690 698 683 l 698 602 m 698 38 b 715 20 698 30 705 20 b 733 38 725 20 733 30 l 733 109 b 715 126 733 119 725 126 b 698 109 705 126 698 119 l 698 38 "},",":{"x_min":75,"x_max":144.4375,"ha":319,"o":"m 79 -34 b 87 -43 79 -38 83 -43 l 91 -43 b 144 33 138 -30 144 11 l 144 47 b 143 50 143 47 143 48 b 111 75 138 63 125 75 b 75 38 91 75 75 58 b 111 5 75 20 91 5 l 118 5 b 86 -22 113 -5 104 -16 b 79 -34 80 -25 76 -29 "},"Y":{"x_min":77.59375,"x_max":803.9375,"ha":839,"o":"m 423 420 b 440 402 423 409 430 402 b 458 420 451 402 458 409 l 458 475 l 498 530 b 495 555 505 540 504 550 b 470 551 487 561 477 559 l 440 509 l 411 551 b 386 555 404 559 393 561 b 383 530 377 550 375 540 l 423 475 l 423 420 m 516 583 b 526 580 519 582 523 580 b 540 588 531 580 537 583 l 583 645 b 577 669 588 652 586 664 b 552 666 570 675 559 673 l 512 608 b 516 583 506 601 509 590 m 258 701 b 272 694 261 695 266 694 b 281 698 275 694 279 695 b 286 722 288 702 291 714 l 244 779 b 219 782 238 787 227 789 b 215 758 212 776 209 766 l 258 701 m 423 138 b 440 120 423 127 430 120 b 458 138 451 120 458 127 l 458 209 b 440 226 458 218 451 226 b 423 209 430 226 423 218 l 423 138 m 340 588 b 354 580 344 583 348 580 b 365 583 358 580 361 582 b 368 608 372 590 373 601 l 327 666 b 304 669 320 673 311 675 b 298 645 294 664 293 652 l 340 588 m 423 279 b 440 262 423 269 430 262 b 458 279 451 262 458 269 l 458 350 b 440 368 458 358 451 368 b 423 350 430 368 423 358 l 423 279 m 598 698 b 609 694 602 695 605 694 b 623 701 615 694 619 695 l 665 758 b 662 782 670 766 669 776 b 637 779 652 789 643 787 l 595 722 b 598 698 590 714 591 702 m 175 815 b 188 808 179 811 183 808 b 200 812 193 808 195 808 b 202 834 206 818 208 827 l 161 893 b 136 897 155 900 145 901 b 133 872 129 891 127 879 l 175 815 m 681 812 b 691 808 684 808 688 808 b 705 815 697 808 702 811 l 748 872 b 744 897 754 879 751 891 b 720 893 736 901 725 900 l 677 834 b 681 812 672 827 675 818 m 423 18 b 440 0 423 6 430 0 b 458 18 451 0 458 6 l 458 68 b 440 86 458 77 451 86 b 423 68 430 86 423 77 l 423 18 m 765 925 b 776 920 768 923 773 920 b 790 927 781 920 787 925 l 800 941 b 795 966 806 951 804 961 b 770 964 788 972 777 970 l 761 950 b 765 925 755 941 756 930 m 90 927 b 105 920 94 925 100 920 b 115 925 108 920 113 923 b 119 950 123 930 126 941 l 109 964 b 86 966 102 970 93 972 b 81 941 76 961 75 951 l 90 927 "},"E":{"x_min":144.03125,"x_max":675.984375,"ha":824,"o":"m 235 0 b 253 18 246 0 253 6 b 235 34 253 26 246 34 l 177 34 b 178 38 177 36 178 37 l 178 109 b 162 126 178 119 171 126 b 144 109 152 126 144 119 l 144 38 b 149 25 144 33 145 29 b 148 18 148 23 148 20 b 164 0 148 6 156 0 l 235 0 m 144 461 b 162 444 144 452 152 444 b 178 461 171 444 178 452 l 178 468 l 235 468 b 253 486 246 468 253 475 b 235 504 253 494 246 504 l 178 504 l 178 532 b 162 550 178 543 171 550 b 144 532 152 550 144 543 l 144 461 m 144 884 b 162 866 144 875 152 866 b 178 884 171 866 178 875 l 178 937 l 235 937 b 253 954 246 937 253 945 b 235 972 253 965 246 972 l 164 972 l 162 972 b 144 954 152 972 144 965 l 144 884 m 517 468 b 535 486 527 468 535 475 b 517 504 535 494 527 504 l 446 504 b 428 486 438 504 428 494 b 446 468 428 475 438 468 l 517 468 m 375 468 b 394 486 387 468 394 475 b 375 504 394 494 387 504 l 306 504 b 288 486 296 504 288 494 b 306 468 288 475 296 468 l 375 468 m 144 743 b 162 725 144 734 152 725 b 178 743 171 725 178 734 l 178 814 b 162 832 178 823 171 832 b 144 814 152 832 144 823 l 144 743 m 517 0 b 535 18 527 0 535 6 b 517 34 535 26 527 34 l 446 34 b 428 18 438 34 428 26 b 446 0 428 6 438 0 l 517 0 m 517 937 b 535 954 527 937 535 945 b 517 972 535 965 527 972 l 446 972 b 428 954 438 972 428 965 b 446 937 428 945 438 937 l 517 937 m 144 320 b 162 302 144 311 152 302 b 178 320 171 302 178 311 l 178 391 b 162 408 178 401 171 408 b 144 391 152 408 144 401 l 144 320 m 144 179 b 162 162 144 170 152 162 b 178 179 171 162 178 170 l 178 250 b 162 268 178 261 171 268 b 144 250 152 268 144 261 l 144 179 m 144 602 b 162 584 144 593 152 584 b 178 602 171 584 178 593 l 178 672 b 162 690 178 683 171 690 b 144 672 152 690 144 683 l 144 602 m 375 937 b 394 954 387 937 394 945 b 375 972 394 965 387 972 l 306 972 b 288 954 296 972 288 965 b 306 937 288 945 296 937 l 375 937 m 657 937 b 675 954 669 937 675 945 b 657 972 675 965 669 972 l 588 972 b 570 954 578 972 570 965 b 588 937 570 945 578 937 l 657 937 m 657 0 b 675 18 669 0 675 6 b 657 34 675 26 669 34 l 588 34 b 570 18 578 34 570 26 b 588 0 570 6 578 0 l 657 0 m 375 0 b 394 18 387 0 394 6 b 375 34 394 26 387 34 l 306 34 b 288 18 296 34 288 26 b 306 0 288 6 296 0 l 375 0 m 621 468 b 638 486 631 468 638 475 b 621 504 638 494 631 504 l 588 504 b 570 486 578 504 570 494 b 588 468 570 475 578 468 l 621 468 "},"y":{"x_min":72.9375,"x_max":623,"ha":817,"o":"m 581 164 b 588 162 582 162 584 162 b 593 164 589 162 592 162 b 606 160 597 161 602 160 b 623 178 616 160 623 167 l 623 249 b 606 265 623 257 616 265 b 586 250 596 265 588 258 b 570 186 584 226 579 206 b 581 164 567 178 571 167 m 165 70 b 176 65 169 66 172 65 b 190 72 180 65 186 68 b 188 97 197 79 195 90 b 145 146 172 111 158 127 b 120 151 140 154 130 157 b 116 126 112 146 111 136 b 165 70 130 105 145 86 m 354 18 b 371 1 356 8 363 1 l 372 1 b 447 19 399 5 424 11 b 456 41 456 23 459 33 b 435 52 452 51 443 57 b 370 37 414 44 392 40 b 354 18 361 37 354 27 m 303 5 b 318 19 310 5 317 11 b 304 40 320 30 316 38 b 243 59 284 44 263 51 b 220 52 234 65 224 61 b 227 27 216 44 218 33 b 299 5 250 18 272 11 l 303 5 m 285 -284 b 303 -266 293 -284 303 -276 b 286 -250 303 -256 296 -250 b 220 -238 264 -247 242 -244 b 199 -251 211 -236 203 -240 b 211 -272 197 -259 203 -269 b 285 -284 234 -279 259 -283 m 488 59 b 502 52 491 54 496 52 b 511 57 504 52 509 52 b 564 107 531 70 550 87 b 563 133 571 116 570 126 b 538 130 554 139 543 137 b 491 84 524 112 509 97 b 488 59 484 77 482 66 m 470 -216 b 484 -223 471 -220 477 -223 b 495 -219 488 -223 491 -220 b 547 -168 514 -205 531 -187 b 546 -144 554 -161 553 -150 b 521 -145 538 -137 527 -138 b 474 -191 507 -163 491 -177 b 470 -216 464 -197 463 -209 m 338 -265 b 356 -279 339 -272 346 -279 l 359 -279 b 429 -256 384 -273 407 -266 b 438 -233 438 -252 442 -243 b 416 -225 435 -225 424 -220 b 352 -244 396 -233 375 -240 b 338 -265 343 -245 336 -254 m 72 339 b 91 322 72 331 79 322 b 107 339 99 322 107 331 l 107 410 b 91 428 107 421 99 428 b 72 410 79 428 72 421 l 72 339 m 606 19 b 623 37 616 19 623 26 l 623 107 b 606 125 623 116 616 125 b 588 107 596 125 588 116 l 588 37 b 606 19 588 26 596 19 m 588 597 b 589 591 588 595 589 592 b 596 586 591 588 593 587 b 600 583 597 584 599 584 l 606 583 b 621 594 613 583 620 587 b 623 601 623 597 623 598 l 623 670 b 618 682 623 675 621 679 b 613 687 617 683 616 686 b 609 689 611 687 610 689 l 606 689 b 588 673 596 689 589 682 l 588 670 l 588 601 l 588 597 m 72 481 b 91 463 72 471 79 463 b 107 481 99 463 107 471 l 107 551 b 91 569 107 562 99 569 b 72 551 79 569 72 562 l 72 481 m 588 456 b 589 452 588 455 588 453 b 591 449 589 450 589 449 l 595 445 b 603 442 596 444 600 442 l 606 442 l 611 442 b 613 444 613 442 613 444 b 617 445 614 444 616 445 b 618 448 617 446 618 446 l 621 450 b 623 459 621 453 623 456 l 623 530 l 623 533 b 621 535 623 533 621 534 b 618 541 621 537 620 540 b 609 548 616 544 613 547 l 606 548 l 603 548 b 599 547 602 548 600 547 b 591 538 595 545 592 542 b 588 534 589 537 589 535 l 588 533 l 588 530 l 588 459 l 588 456 m 564 -113 b 574 -115 567 -115 570 -115 b 588 -106 579 -115 586 -112 b 614 -37 600 -84 609 -61 b 602 -15 616 -27 610 -18 b 581 -29 591 -13 582 -19 b 557 -91 575 -51 567 -72 b 564 -113 553 -100 556 -111 m 85 196 b 100 183 86 186 93 183 l 106 183 b 118 206 117 186 121 196 b 107 270 111 225 107 249 b 91 286 107 279 99 286 b 72 270 79 286 72 278 b 85 196 72 243 78 218 m 588 315 b 595 304 588 311 591 307 b 606 302 597 303 602 302 l 609 302 b 613 303 610 302 611 302 b 617 304 614 303 616 304 b 621 311 618 307 621 309 b 623 314 621 313 623 314 l 623 318 l 623 389 l 623 392 b 621 395 623 392 621 393 b 618 399 621 396 620 398 b 606 406 616 403 611 406 b 595 402 602 406 597 405 b 592 400 593 402 593 400 b 588 393 591 398 589 396 l 588 392 l 588 389 l 588 318 l 588 315 m 72 622 b 91 604 72 613 79 604 b 107 622 99 604 107 613 l 107 670 b 91 689 107 680 99 689 b 72 670 79 689 72 680 l 72 622 "},"\"":{"x_min":94.4375,"x_max":266.671875,"ha":569,"o":"m 159 962 b 151 970 159 966 155 970 l 147 970 b 94 894 100 958 94 916 l 94 892 l 94 888 l 94 880 b 95 877 94 878 94 877 b 127 852 100 862 112 852 b 163 888 147 852 163 869 b 127 922 163 906 147 922 b 119 920 125 922 122 922 b 152 950 125 933 133 944 b 159 962 158 952 162 957 m 262 962 b 254 970 262 966 258 970 l 250 970 b 197 894 202 958 197 916 l 197 888 l 197 883 l 197 880 b 198 877 197 878 197 877 b 230 852 202 862 215 852 b 266 888 250 852 266 869 b 230 922 266 906 250 922 b 222 920 227 922 225 922 b 255 950 227 933 236 944 b 262 962 261 952 265 957 "},"g":{"x_min":83.109375,"x_max":729,"ha":917,"o":"m 390 -291 l 390 -291 b 391 -291 390 -291 390 -291 l 391 -291 b 406 -275 399 -291 406 -284 l 406 -275 b 391 -256 409 -264 399 -257 l 391 -256 b 326 -245 367 -256 347 -252 l 326 -245 b 303 -257 315 -243 306 -249 l 303 -257 b 315 -279 301 -268 306 -277 l 315 -279 b 390 -291 340 -285 365 -291 m 442 -272 l 442 -272 b 459 -286 444 -279 452 -286 l 459 -286 b 463 -286 462 -286 463 -286 l 463 -286 b 534 -264 488 -282 512 -275 l 534 -264 b 544 -240 544 -260 548 -250 l 544 -240 b 519 -232 538 -232 528 -229 l 519 -232 b 456 -252 501 -241 478 -249 l 456 -252 b 442 -272 447 -253 440 -263 m 574 -224 l 574 -224 b 588 -231 577 -227 583 -231 l 588 -231 b 599 -227 591 -231 595 -229 l 599 -227 b 653 -177 619 -211 635 -196 l 653 -177 b 649 -152 659 -170 659 -157 l 649 -152 b 626 -153 642 -145 633 -146 l 626 -153 l 626 -153 b 577 -199 610 -171 595 -185 l 577 -199 b 574 -224 569 -204 569 -214 m 669 -121 l 669 -121 b 678 -124 673 -124 674 -124 l 678 -124 b 694 -114 685 -124 690 -120 l 694 -114 b 719 -43 705 -92 713 -68 l 719 -43 b 706 -22 722 -35 715 -25 l 706 -22 b 685 -35 698 -21 687 -27 l 685 -35 b 662 -99 680 -59 673 -79 l 662 -99 b 669 -121 656 -107 660 -118 m 712 11 l 712 11 b 712 11 712 11 712 11 l 712 11 b 729 29 720 11 729 18 l 729 29 b 729 32 729 29 729 31 l 729 100 l 729 100 b 712 117 729 109 720 117 l 712 117 b 694 100 701 117 694 109 l 694 32 l 694 32 b 694 29 694 31 694 31 l 694 29 b 712 11 694 18 701 11 m 694 170 l 694 170 b 712 153 694 160 701 153 l 712 153 b 729 170 720 153 729 160 l 729 241 l 729 241 b 712 259 729 249 720 259 l 712 259 b 694 241 701 259 694 249 l 694 170 m 694 311 l 694 311 b 712 293 694 300 701 293 l 712 293 b 729 311 720 293 729 300 l 729 381 l 729 381 b 712 399 729 391 720 399 l 712 399 b 694 381 701 399 694 391 l 694 311 m 694 452 l 694 452 b 712 434 694 442 701 434 l 712 434 b 729 452 720 434 729 442 l 729 523 l 729 523 b 712 541 729 531 720 541 l 712 541 b 694 523 701 541 694 531 l 694 452 m 694 593 l 694 593 b 712 575 694 582 701 575 l 712 575 b 729 593 720 575 729 582 l 729 663 l 729 663 b 712 681 729 673 720 681 l 712 681 b 694 663 701 681 694 673 l 694 593 m 356 -2 l 356 -2 b 406 -6 372 -3 390 -6 l 406 -6 b 430 -6 413 -6 423 -6 l 430 -6 b 447 13 440 -3 447 4 l 447 13 b 428 29 445 24 437 31 l 428 29 b 406 29 420 29 413 29 l 406 29 b 360 32 391 29 377 31 l 360 32 b 341 18 352 35 344 28 l 341 18 b 356 -2 340 9 347 0 m 481 20 l 481 20 b 498 9 484 13 491 9 l 498 9 b 503 10 501 9 502 10 l 503 10 b 570 42 527 17 549 28 l 570 42 b 576 66 580 46 581 57 l 576 66 b 553 71 570 72 560 77 l 553 71 l 553 71 b 492 43 534 59 515 50 l 492 43 b 481 20 483 39 478 29 m 285 18 l 285 18 b 291 17 287 18 288 17 l 291 17 b 308 28 298 17 305 22 l 308 28 b 298 50 312 36 308 46 l 298 50 l 298 50 b 241 84 278 59 259 71 l 241 84 b 216 81 233 91 222 89 l 216 81 b 220 56 212 72 213 61 l 220 56 b 285 18 240 42 262 29 m 603 88 l 603 88 b 616 82 608 84 610 82 l 616 82 b 628 88 622 82 626 84 l 628 88 b 674 145 647 104 662 124 l 674 145 b 669 170 680 154 678 164 l 669 170 b 647 164 662 175 649 172 l 647 164 l 647 164 b 603 111 634 145 620 128 l 603 111 b 603 88 597 104 597 95 m 166 107 l 166 107 b 180 100 169 103 174 100 l 180 100 b 190 104 183 100 187 102 l 190 104 b 192 129 197 110 199 122 l 192 129 l 192 129 b 155 184 177 145 166 164 l 155 184 b 133 191 149 193 140 196 l 133 191 b 123 168 123 188 120 177 l 123 168 b 166 107 135 145 149 127 m 97 236 l 97 236 b 113 222 98 228 105 222 l 113 222 b 117 225 115 222 116 222 l 117 225 b 130 246 127 227 133 236 l 130 246 b 117 311 123 267 120 289 l 117 311 b 98 328 117 321 109 328 l 98 328 b 83 309 90 327 83 318 l 83 309 b 97 236 84 285 90 260 m 101 364 l 101 364 b 102 364 101 364 102 364 l 102 364 b 120 378 110 364 117 370 l 120 378 b 134 443 123 400 127 423 l 134 443 b 123 466 137 452 133 463 l 123 466 b 102 456 115 470 103 464 l 102 456 b 84 384 94 432 88 407 l 84 384 b 101 364 83 373 90 364 m 653 496 l 653 496 b 669 488 656 491 662 488 l 669 488 b 678 491 672 488 674 489 l 678 491 b 685 514 687 495 688 504 l 685 514 b 641 574 673 536 656 556 l 641 574 b 616 575 634 581 623 582 l 616 575 b 615 550 609 568 608 557 l 615 550 b 653 496 628 535 642 516 m 140 498 l 140 498 b 148 496 141 496 144 496 l 148 496 b 162 503 153 496 160 498 l 162 503 b 202 556 174 523 188 541 l 202 556 b 202 582 209 563 209 575 l 202 582 b 177 581 195 588 185 588 l 177 581 b 133 523 160 563 147 543 l 133 523 b 140 498 127 514 130 503 m 565 595 l 565 595 b 576 591 569 593 573 591 l 576 591 b 590 598 581 591 587 595 l 590 598 b 584 623 595 607 594 617 l 584 623 b 519 660 565 636 542 649 l 519 660 b 497 649 510 663 501 659 l 497 649 b 508 627 492 641 498 629 l 508 627 b 565 595 528 617 548 607 m 228 604 l 228 604 b 245 596 233 600 238 596 l 245 596 b 253 600 248 596 249 598 l 253 600 l 253 600 b 313 629 273 613 292 621 l 313 629 b 324 650 322 631 327 642 l 324 650 b 301 661 320 661 310 666 l 301 661 b 234 628 278 654 255 642 l 234 628 b 228 604 227 623 223 613 m 444 642 l 444 642 b 445 642 444 642 445 642 l 445 642 b 463 659 455 642 462 649 l 463 659 b 447 677 465 667 458 677 l 447 677 b 406 681 435 679 420 681 l 406 681 b 373 679 394 681 384 681 l 373 679 b 358 660 365 677 358 668 l 358 660 b 377 643 359 649 367 642 l 377 643 l 377 643 b 406 646 387 646 397 646 l 406 646 b 444 642 419 646 431 643 "},"e":{"x_min":81.78125,"x_max":738.890625,"ha":846,"o":"m 179 344 b 197 361 190 344 197 351 b 179 377 197 370 190 377 l 118 377 b 129 430 119 394 123 413 b 118 451 130 438 126 450 b 95 438 108 454 98 450 b 81 368 88 416 84 393 b 98 348 80 359 88 351 b 111 344 101 345 105 344 l 179 344 m 647 519 b 661 511 651 513 655 511 b 670 513 663 511 668 512 b 677 538 680 519 681 532 b 629 594 661 559 645 577 b 602 593 620 601 609 600 b 602 568 595 586 595 575 b 647 519 620 554 634 537 m 551 607 b 561 605 552 605 556 605 b 576 613 565 605 572 608 b 569 638 579 622 577 633 b 501 666 547 650 525 658 b 480 654 493 669 481 665 b 490 633 476 645 481 636 b 551 607 511 626 531 616 m 613 95 b 626 90 618 91 622 90 b 638 95 631 90 637 91 b 686 154 655 113 670 131 b 680 177 690 162 687 173 b 655 173 670 183 661 179 b 613 120 644 154 629 136 b 613 95 606 113 606 102 m 176 98 b 190 94 179 95 186 94 b 201 98 194 94 198 95 b 202 123 208 105 209 116 b 162 176 186 140 172 156 b 137 181 156 183 147 186 b 133 156 129 176 127 166 b 176 98 144 136 161 116 m 697 397 b 715 383 700 390 708 383 l 719 383 b 731 404 729 386 734 395 b 712 473 727 429 720 454 b 688 484 708 484 697 488 b 680 462 680 480 675 470 b 697 397 687 441 694 420 m 369 1 b 409 0 383 0 395 0 b 444 1 422 0 433 0 b 458 20 454 1 461 11 b 440 37 458 30 451 37 b 409 34 431 34 420 34 b 375 37 398 34 386 34 b 356 20 365 37 356 30 b 369 1 354 12 361 4 m 298 19 b 305 18 302 19 304 18 b 320 30 312 18 319 22 b 311 52 325 37 319 48 b 254 81 288 59 270 69 b 229 76 244 87 234 86 b 234 52 223 68 225 56 b 298 19 254 37 276 27 m 340 654 b 356 640 341 647 348 640 l 361 640 b 409 645 376 643 393 645 b 425 643 415 645 420 645 b 444 661 436 643 443 650 b 427 677 444 669 437 677 b 409 680 422 680 415 680 b 354 675 390 680 373 677 b 340 654 345 673 338 665 m 130 484 b 140 480 133 483 136 480 b 152 491 144 480 152 484 b 191 544 166 511 179 529 b 190 570 198 552 197 563 b 166 568 183 575 172 575 b 123 507 150 548 136 530 b 130 484 118 498 122 488 m 216 593 b 230 586 220 587 225 586 b 240 590 234 586 237 587 b 298 622 258 601 277 613 b 306 645 306 626 311 636 b 284 654 304 654 293 658 b 220 616 262 643 240 632 b 216 593 212 612 211 601 m 493 27 b 509 18 495 20 502 18 l 516 18 b 583 50 538 26 561 37 b 587 72 590 55 593 66 b 563 79 583 81 572 83 b 504 50 544 68 525 56 b 493 27 495 47 490 37 m 101 223 b 118 212 102 216 111 212 l 122 212 b 133 234 130 216 136 226 b 118 300 126 256 120 276 b 100 313 118 308 108 315 b 84 294 88 313 81 305 b 101 223 87 269 93 245 m 319 344 b 337 361 330 344 337 351 b 319 377 337 370 330 377 l 250 377 b 231 361 240 377 231 370 b 250 344 231 351 240 344 l 319 344 m 598 344 b 615 361 609 344 615 351 b 598 377 615 370 609 377 l 527 377 b 511 361 519 377 511 370 b 527 344 511 351 519 344 l 598 344 m 458 344 b 476 361 469 344 476 351 b 458 377 476 370 469 377 l 388 377 b 372 361 380 377 372 370 b 388 344 372 351 380 344 l 458 344 m 720 344 b 738 361 729 344 738 351 b 720 377 738 370 729 377 l 668 377 b 651 361 659 377 651 370 b 668 344 651 351 659 344 l 720 344 "},"J":{"x_min":60.375,"x_max":687.015625,"ha":825,"o":"m 348 0 l 348 0 b 348 0 348 0 348 0 l 348 0 b 366 15 357 0 366 6 l 366 15 b 350 34 366 26 359 34 l 350 34 b 282 45 327 34 305 38 l 282 45 b 262 33 274 47 266 41 l 262 33 b 274 12 260 25 266 13 l 274 12 b 348 0 296 5 321 0 m 400 19 l 400 19 b 418 5 403 11 410 5 l 418 5 b 421 5 420 5 420 5 l 421 5 b 492 26 446 8 470 15 l 492 26 b 502 50 502 30 505 40 l 502 50 b 478 58 498 58 487 63 l 478 58 b 414 38 459 50 438 44 l 414 38 b 400 19 406 37 399 27 m 206 40 l 206 40 b 214 37 209 38 210 37 l 214 37 b 230 45 220 37 227 40 l 230 45 b 223 70 234 54 232 65 l 223 70 b 168 109 203 80 184 94 l 168 109 b 143 106 162 116 150 113 l 143 106 b 145 83 137 100 138 90 l 145 83 b 206 40 163 66 184 51 m 532 66 l 532 66 b 548 59 535 63 539 59 l 548 59 b 557 63 550 59 555 61 l 557 63 b 610 113 577 79 595 97 l 610 113 b 609 138 617 123 616 133 l 609 138 b 584 137 602 145 589 144 l 584 137 b 537 91 570 120 555 105 l 537 91 b 532 66 528 86 525 76 m 96 138 l 96 138 b 110 130 99 133 105 130 l 110 130 b 121 133 114 130 117 131 l 121 133 b 124 158 128 138 130 151 l 124 158 l 124 158 b 92 216 112 176 102 197 l 92 216 b 70 227 89 225 80 230 l 70 227 b 62 204 62 223 57 212 l 62 204 b 96 138 70 181 82 158 m 628 169 l 628 169 b 637 166 630 166 634 166 l 637 166 b 650 177 642 166 649 170 l 650 177 b 677 247 663 198 673 222 l 677 247 b 664 268 680 256 674 265 l 664 268 b 643 255 655 270 646 263 l 643 255 b 621 193 638 231 630 212 l 621 193 b 628 169 616 184 620 175 m 668 302 l 668 302 b 668 302 668 302 668 302 l 668 302 b 687 320 680 302 687 311 l 687 320 b 687 323 687 322 687 322 l 687 391 l 687 391 b 668 408 687 401 680 408 l 668 408 b 650 391 660 408 650 401 l 650 323 l 650 323 b 650 320 650 322 650 322 l 650 320 b 668 302 650 311 660 302 m 650 461 l 650 461 b 668 444 650 452 660 444 l 668 444 b 687 461 680 444 687 452 l 687 532 l 687 532 b 668 550 687 543 680 550 l 668 550 b 650 532 660 550 650 543 l 650 461 m 650 602 l 650 602 b 668 584 650 593 660 584 l 668 584 b 687 602 680 584 687 593 l 687 672 l 687 672 b 668 690 687 683 680 690 l 668 690 b 650 672 660 690 650 683 l 650 602 m 650 743 l 650 743 b 668 725 650 734 660 725 l 668 725 b 687 743 680 725 687 734 l 687 814 l 687 814 b 668 832 687 823 680 832 l 668 832 b 650 814 660 832 650 823 l 650 743 m 650 884 l 650 884 b 668 866 650 875 660 866 l 668 866 b 687 884 680 866 687 875 l 687 954 l 687 954 b 668 972 687 965 680 972 l 668 972 b 650 954 660 972 650 965 l 650 884 "},"|":{"x_min":168.0625,"x_max":209.71875,"ha":397,"o":"m 168 283 b 188 262 168 272 177 262 b 209 283 200 262 209 272 l 209 366 b 188 386 209 377 200 386 b 168 366 177 386 168 377 l 168 283 m 168 -45 b 188 -66 168 -56 177 -66 b 209 -45 200 -66 209 -56 l 209 36 b 188 56 209 48 200 56 b 168 36 177 56 168 48 l 168 -45 m 168 119 b 188 98 168 108 177 98 b 209 119 200 98 209 108 l 209 201 b 188 222 209 212 200 222 b 168 201 177 222 168 212 l 168 119 m 168 448 b 188 427 168 437 177 427 b 209 448 200 427 209 437 l 209 530 b 188 551 209 541 200 551 b 168 530 177 551 168 541 l 168 448 m 168 777 b 188 757 168 766 177 757 b 209 777 200 757 209 766 l 209 859 b 188 880 209 870 200 880 b 168 859 177 880 168 870 l 168 777 m 168 941 b 188 922 168 930 177 922 b 209 941 200 922 209 930 l 209 1025 b 188 1044 209 1036 200 1044 b 168 1025 177 1044 168 1036 l 168 941 m 168 612 b 188 593 168 601 177 593 b 209 612 200 593 209 601 l 209 695 b 188 715 209 707 200 715 b 168 695 177 715 168 707 l 168 612 "},"q":{"x_min":83.328125,"x_max":730.5625,"ha":917,"o":"m 695 138 b 712 122 695 130 702 122 b 730 138 720 122 730 130 l 730 209 b 712 227 730 220 720 227 b 698 220 706 227 701 225 b 693 225 697 222 695 223 b 670 216 684 229 673 225 b 637 158 661 195 651 176 b 643 134 631 150 633 138 b 651 130 644 131 647 130 b 665 137 656 130 661 131 b 695 186 676 151 687 169 l 695 138 m 695 420 b 712 402 695 412 702 402 b 730 420 720 402 730 412 l 730 491 b 712 508 730 501 720 508 b 695 491 702 508 695 501 l 695 483 b 676 487 690 488 681 490 b 666 465 666 484 663 473 b 670 455 669 461 670 459 b 686 445 673 448 680 445 b 693 447 690 445 691 445 b 695 448 693 447 694 447 l 695 420 m 533 607 b 540 604 534 605 538 604 b 556 613 547 604 552 607 b 548 637 561 623 558 633 b 479 663 526 650 504 658 b 458 651 469 665 459 659 b 469 627 455 640 461 632 b 533 607 493 625 512 615 m 531 48 b 547 37 534 41 540 37 b 556 41 551 37 552 38 b 616 83 577 51 598 65 b 618 108 623 88 625 101 b 593 109 611 115 600 115 b 538 70 577 94 558 81 b 531 48 530 68 526 56 m 633 520 b 647 513 637 518 643 513 b 658 518 651 513 654 515 b 661 541 665 525 666 534 b 611 597 645 563 630 580 b 586 594 604 604 591 601 b 587 570 579 587 580 575 b 633 520 604 555 619 538 m 197 570 b 211 565 201 566 206 565 b 222 568 215 565 220 565 b 279 605 240 582 256 594 b 286 627 287 611 288 620 b 261 637 280 637 269 640 b 200 594 240 625 218 611 b 197 570 191 590 191 577 m 120 454 b 129 452 123 452 125 452 b 144 462 134 452 141 455 b 177 519 154 484 163 501 b 175 544 183 527 181 538 b 150 540 165 551 155 548 b 111 476 134 520 122 500 b 120 454 108 468 111 458 m 319 641 b 334 627 320 633 327 627 l 340 627 b 405 637 361 633 381 637 b 422 654 415 637 422 644 b 405 672 422 663 413 672 b 330 664 380 672 355 668 b 319 641 322 659 315 651 m 394 19 b 412 2 394 9 402 2 l 413 2 b 486 12 438 2 462 5 b 498 34 495 15 501 25 b 477 45 495 44 487 50 b 412 37 455 41 434 37 b 394 19 402 37 394 29 m 115 190 b 130 180 118 183 125 180 b 140 181 134 180 136 180 b 147 204 148 184 151 195 b 125 268 137 223 130 244 b 104 280 123 276 113 283 b 91 259 95 277 88 269 b 115 190 97 234 104 211 m 83 333 b 101 315 83 323 90 315 b 118 333 109 315 118 323 l 118 336 b 123 400 118 359 120 380 b 109 420 125 408 120 419 b 90 407 101 422 91 415 b 83 336 84 383 83 361 l 83 333 m 695 -281 b 712 -300 695 -291 702 -300 b 730 -281 720 -300 730 -291 l 730 -212 b 712 -194 730 -201 720 -194 b 695 -212 702 -194 695 -201 l 695 -281 m 695 280 b 712 262 695 270 702 262 b 730 280 720 262 730 270 l 730 350 b 712 368 730 361 720 368 b 695 350 702 368 695 361 l 695 280 m 695 -141 b 712 -159 695 -150 702 -159 b 730 -141 720 -159 730 -150 l 730 -70 b 712 -54 730 -61 720 -54 b 695 -70 702 -54 695 -61 l 695 -141 m 695 561 b 712 544 695 552 702 544 b 730 561 720 544 730 552 l 730 632 b 712 650 730 641 720 650 b 695 632 702 650 695 641 l 695 561 m 206 75 b 216 70 209 70 213 70 b 230 76 222 70 227 72 b 229 101 236 83 236 95 b 181 148 211 115 195 130 b 156 151 176 156 163 156 b 154 127 150 144 148 134 b 206 75 169 108 187 90 m 343 9 b 359 23 350 9 356 15 b 347 44 362 31 355 43 b 283 65 323 48 302 56 b 261 56 275 69 263 65 b 269 34 255 48 261 37 b 338 9 290 23 315 15 l 343 9 m 695 -1 b 712 -18 695 -9 702 -18 b 730 -1 720 -18 730 -9 l 730 69 b 712 86 730 79 720 86 b 695 69 702 86 695 79 l 695 -1 "},"b":{"x_min":129.171875,"x_max":779.171875,"ha":917,"o":"m 166 447 b 173 445 168 445 170 445 b 188 455 180 445 187 448 b 222 513 197 477 208 497 b 216 538 227 520 226 532 b 194 533 209 544 200 543 b 163 486 181 518 172 502 l 163 532 b 147 550 163 543 156 550 b 129 532 137 550 129 543 l 129 461 b 147 444 129 452 137 444 b 159 451 152 444 156 447 b 166 447 161 448 163 448 m 129 179 b 147 162 129 170 137 162 b 163 179 156 162 163 170 l 163 186 b 176 181 166 183 170 181 b 183 183 179 181 181 183 b 193 205 193 186 195 197 b 188 216 190 209 188 212 b 166 225 186 225 175 229 b 163 223 165 225 163 223 l 163 250 b 147 268 163 261 156 268 b 129 250 137 268 129 261 l 129 179 m 686 126 b 695 123 688 125 693 123 b 709 130 701 123 706 125 b 748 193 726 150 738 172 b 740 218 752 204 748 212 b 715 209 731 222 720 218 b 681 151 706 188 695 169 b 686 126 676 144 679 131 m 679 523 b 693 518 681 519 687 518 b 702 520 695 518 700 518 b 706 545 709 526 712 537 b 654 598 691 565 673 583 b 629 595 647 604 634 604 b 630 570 623 588 623 577 b 679 523 648 557 665 540 m 734 405 b 752 391 736 395 744 391 l 755 391 b 770 412 765 393 772 402 b 745 482 763 436 755 459 b 720 491 740 491 729 494 b 713 466 712 486 708 475 b 734 405 722 447 729 426 m 575 41 b 590 33 577 37 583 33 b 600 34 594 33 595 33 b 661 76 620 45 641 59 b 662 100 668 83 668 93 b 637 104 655 109 645 109 b 581 66 620 87 602 76 b 575 41 575 61 570 51 m 241 565 b 254 558 245 559 250 558 b 266 563 259 558 262 559 b 320 600 281 577 301 590 b 327 625 330 605 333 616 b 304 632 322 634 312 637 b 243 590 281 619 261 605 b 241 565 236 583 234 572 m 248 73 b 261 70 252 72 255 70 b 273 77 266 70 269 72 b 272 102 280 84 279 94 b 226 150 255 116 240 131 b 201 152 220 156 209 158 b 197 129 194 148 193 136 b 248 73 213 109 231 90 m 754 251 b 772 265 761 251 770 256 b 779 334 775 287 779 311 l 779 337 b 759 355 777 348 770 355 b 744 337 751 355 741 348 l 744 334 b 736 273 744 313 740 293 b 751 251 734 262 740 254 l 754 251 m 129 743 b 147 725 129 734 137 725 b 163 743 156 725 163 734 l 163 814 b 147 832 163 823 156 832 b 129 814 137 832 129 823 l 129 743 m 361 637 b 377 625 363 630 370 625 l 383 625 b 448 634 404 630 425 634 b 465 652 456 634 465 643 b 445 669 465 662 456 669 b 373 658 422 669 397 665 b 361 637 363 657 358 648 m 129 320 b 147 302 129 311 137 302 b 163 320 156 302 163 311 l 163 391 b 147 408 163 401 156 408 b 129 391 137 408 129 401 l 129 320 m 380 8 b 384 6 383 6 384 6 b 402 20 393 6 400 12 b 390 41 404 30 398 40 b 327 65 366 47 347 54 b 304 58 319 68 308 65 b 311 33 300 50 304 38 b 380 8 333 22 356 13 m 129 884 b 147 866 129 875 137 866 b 163 884 156 866 163 875 l 163 954 b 147 972 163 965 156 972 b 129 954 137 972 129 965 l 129 884 m 129 602 b 147 584 129 593 137 584 b 163 602 156 584 163 593 l 163 672 b 147 690 163 683 156 690 b 129 672 137 690 129 683 l 129 602 m 129 38 b 147 20 129 30 137 20 b 163 38 156 20 163 30 l 163 109 b 147 126 163 119 156 126 b 129 109 137 126 129 119 l 129 38 m 576 605 b 583 604 577 605 581 604 b 600 615 590 604 595 609 b 590 637 604 623 600 634 b 522 662 569 650 544 657 b 501 650 511 664 502 658 b 512 629 497 638 504 630 b 576 605 536 623 556 616 m 437 18 b 455 0 437 6 445 0 b 529 8 481 0 505 4 b 541 30 537 11 544 20 b 520 41 538 38 530 45 b 455 34 498 37 477 34 b 437 18 445 34 437 26 "},"D":{"x_min":144.03125,"x_max":834.703125,"ha":999,"o":"m 144 885 b 162 867 144 875 151 867 b 178 885 170 867 178 875 l 178 938 l 231 938 b 249 954 242 938 249 946 b 231 972 249 966 242 972 l 164 972 l 162 972 l 159 972 b 144 954 149 971 144 964 l 144 885 m 177 0 b 195 18 185 0 195 7 b 177 35 195 26 185 33 b 178 39 178 36 178 38 l 178 110 b 162 126 178 120 170 126 b 144 110 151 126 144 120 l 144 39 b 148 28 144 35 145 32 b 144 18 145 25 144 21 b 162 0 144 7 152 0 l 177 0 m 623 843 b 634 840 626 842 630 840 b 648 847 638 840 644 842 b 644 872 655 854 652 867 b 584 913 624 886 605 900 b 559 906 576 916 565 914 b 566 881 553 896 558 886 b 623 843 585 870 605 859 m 372 18 b 388 1 372 7 380 1 l 391 1 b 463 13 415 4 438 7 b 474 33 472 14 477 25 b 453 47 473 45 463 50 b 387 38 433 42 409 39 b 372 18 376 35 369 26 m 508 45 b 524 33 512 38 517 33 b 531 35 527 33 530 33 b 597 67 553 45 576 54 b 603 92 605 72 608 83 b 578 97 598 100 588 103 b 517 67 559 86 538 76 b 508 45 508 64 505 53 m 799 493 b 816 475 801 482 808 475 l 819 475 b 834 493 827 475 835 485 b 828 565 834 518 833 543 b 808 581 827 577 819 583 b 794 560 799 579 792 571 b 799 493 797 539 799 517 m 631 111 b 645 106 636 107 641 106 b 656 110 650 106 652 106 b 709 160 676 125 694 140 b 708 185 716 167 715 178 b 683 183 701 190 690 190 b 634 136 669 165 651 151 b 631 111 626 131 625 120 m 778 625 b 794 615 780 618 787 615 l 799 615 b 812 638 809 618 815 627 b 783 704 805 661 794 684 b 760 711 780 714 769 717 b 751 689 751 709 748 697 b 778 625 762 670 770 649 m 730 211 b 740 210 733 210 736 210 b 755 217 744 210 751 211 b 790 281 768 238 780 258 b 781 304 794 289 790 300 b 759 296 773 308 762 304 b 725 236 748 275 737 256 b 730 211 720 229 722 217 m 799 336 b 815 349 806 336 813 342 b 831 421 822 372 827 396 b 815 440 833 429 826 439 b 795 425 806 442 797 435 b 781 360 792 403 788 381 b 794 336 780 350 785 340 l 799 336 m 510 909 b 527 920 519 909 524 913 b 517 942 531 928 526 939 b 447 961 494 952 472 959 b 426 950 438 966 427 959 b 440 928 424 939 431 931 b 505 909 463 922 484 918 l 510 909 m 716 747 b 733 740 720 742 724 740 b 741 743 735 740 740 740 b 747 768 749 749 751 760 b 698 822 733 788 716 806 b 674 824 691 829 681 832 b 674 800 667 817 667 807 b 716 747 690 782 703 764 m 373 938 b 391 953 383 938 391 945 b 374 972 392 964 383 971 l 302 972 b 284 954 294 972 284 966 b 302 938 284 946 294 938 l 373 938 m 144 743 b 162 725 144 735 151 725 b 178 743 170 725 178 735 l 178 814 b 162 832 178 824 170 832 b 144 814 151 832 144 824 l 144 743 m 144 321 b 162 303 144 311 151 303 b 178 321 170 303 178 311 l 178 392 b 162 408 178 402 170 408 b 144 392 151 408 144 402 l 144 321 m 319 0 b 335 18 327 0 335 7 b 319 35 335 26 327 35 l 248 35 b 230 18 237 35 230 26 b 248 0 230 7 237 0 l 319 0 m 144 461 b 162 445 144 453 151 445 b 178 461 170 445 178 453 l 178 532 b 162 550 178 543 170 550 b 144 532 151 550 144 543 l 144 461 m 144 179 b 162 163 144 171 151 163 b 178 179 170 163 178 171 l 178 250 b 162 268 178 261 170 268 b 144 250 151 268 144 261 l 144 179 m 144 603 b 162 585 144 593 151 585 b 178 603 170 585 178 593 l 178 672 b 162 690 178 684 170 690 b 144 672 151 690 144 684 l 144 603 "},"z":{"x_min":85.9375,"x_max":593.03125,"ha":769,"o":"m 505 568 b 515 563 509 563 512 563 b 530 570 522 563 526 566 l 572 626 b 572 645 576 633 574 640 l 574 645 b 593 664 586 645 593 652 b 575 682 593 672 586 682 l 505 682 b 489 664 497 682 489 672 b 505 645 489 652 497 645 l 541 645 l 502 591 b 505 568 497 583 498 573 m 92 4 b 103 0 97 0 99 0 l 106 0 l 156 0 b 173 18 166 0 173 6 b 156 34 173 26 166 34 l 137 34 l 159 63 b 156 87 165 72 163 81 b 131 83 148 93 137 90 l 90 27 b 85 18 87 25 85 20 b 90 5 85 12 87 8 b 92 4 91 4 91 4 m 295 645 b 313 664 306 645 313 652 b 295 682 313 672 306 682 l 226 682 b 208 664 216 682 208 672 b 226 645 208 652 216 645 l 295 645 m 436 645 b 454 664 447 645 454 652 b 436 682 454 672 447 682 l 366 682 b 348 664 356 682 348 672 b 366 645 348 652 356 645 l 436 645 m 258 229 b 267 226 260 226 265 226 b 284 233 274 226 280 226 l 322 287 b 320 312 328 297 327 307 b 295 309 313 319 300 318 l 253 252 b 258 229 248 244 251 234 m 174 115 b 185 112 179 113 183 112 b 199 119 190 112 197 115 l 242 176 b 238 200 247 183 245 193 b 213 197 228 206 219 204 l 172 140 b 174 115 166 131 167 122 m 424 454 b 435 450 428 452 431 450 b 447 457 439 450 444 454 l 490 513 b 484 538 495 522 493 532 b 461 534 478 544 466 543 l 421 479 b 424 454 415 472 417 459 m 436 0 b 454 18 447 0 454 6 b 436 34 454 26 447 34 l 366 34 b 348 18 356 34 348 26 b 366 0 348 6 356 0 l 436 0 m 295 0 b 313 18 306 0 313 6 b 295 34 313 26 306 34 l 226 34 b 208 18 216 34 208 26 b 226 0 208 6 216 0 l 295 0 m 575 0 b 593 18 586 0 593 6 b 575 34 593 26 586 34 l 505 34 b 489 18 497 34 489 26 b 505 0 489 6 497 0 l 575 0 m 341 340 b 352 338 343 338 348 338 b 366 345 356 338 362 340 l 406 401 b 403 426 413 408 411 420 b 379 422 396 430 383 430 l 336 365 b 341 340 329 358 332 347 m 156 645 b 173 664 166 645 173 652 b 156 682 173 672 166 682 l 104 682 b 85 664 95 682 85 672 b 104 645 85 652 95 645 l 156 645 "},"w":{"x_min":83.109375,"x_max":1061.359375,"ha":1196,"o":"m 584 418 b 600 407 588 411 593 407 b 606 409 602 407 606 407 b 616 432 616 412 622 422 l 590 495 b 570 505 587 502 577 507 b 555 495 563 505 556 501 l 527 432 b 536 409 525 422 527 412 b 543 407 540 407 541 407 b 561 418 550 407 558 411 l 572 445 l 584 418 m 747 33 b 756 23 748 27 752 25 b 765 1 752 15 756 4 b 773 0 768 0 772 0 b 788 11 780 0 784 4 l 790 12 b 780 34 794 20 788 30 l 779 34 b 780 47 780 38 781 43 l 752 109 b 729 120 748 120 738 123 b 720 97 720 116 715 105 l 747 33 m 355 11 b 373 0 358 4 366 0 b 380 1 375 0 376 0 b 388 23 388 4 391 15 b 397 33 393 25 395 29 l 425 97 b 416 120 429 105 425 116 b 391 109 405 123 397 120 l 366 47 b 365 34 363 43 363 38 l 363 34 b 355 12 355 30 351 20 l 355 11 m 111 590 b 127 579 115 583 120 579 b 133 580 130 579 133 579 b 144 604 143 584 148 594 l 118 668 b 94 676 113 676 102 680 b 84 654 84 673 80 662 l 111 590 m 638 288 b 655 277 641 281 648 277 b 661 280 656 277 659 277 b 670 302 670 283 675 294 l 644 368 b 622 376 640 376 630 379 b 611 352 612 372 606 361 l 638 288 m 794 68 b 801 66 795 66 798 66 b 816 76 806 66 813 69 l 844 140 b 833 163 848 150 843 159 b 811 154 825 166 813 163 l 784 90 b 794 68 781 81 784 70 m 327 76 b 344 66 331 69 337 66 b 350 68 347 66 348 66 b 361 90 361 70 363 81 l 333 154 b 309 163 329 163 318 166 b 301 140 301 159 298 150 l 327 76 m 962 451 b 979 461 969 451 976 454 l 1005 526 b 995 548 1009 534 1005 544 b 972 538 987 551 979 548 l 947 475 b 956 451 943 466 947 455 l 962 451 m 273 205 b 291 195 276 198 283 195 l 295 195 b 306 219 305 200 309 208 l 279 281 b 256 293 276 293 265 295 b 247 269 247 288 244 277 l 273 205 m 219 334 b 234 322 223 327 230 322 b 241 323 238 322 240 323 b 252 345 250 327 256 337 l 225 411 b 201 420 220 419 211 425 b 193 397 193 416 190 405 l 219 334 m 901 323 b 908 322 904 323 906 322 b 923 334 915 322 922 327 l 952 397 b 941 419 956 405 952 416 b 919 411 933 425 922 419 l 893 345 b 901 323 888 337 893 327 m 483 280 b 490 277 486 277 487 277 b 505 288 497 277 502 281 l 531 352 b 525 376 536 361 531 372 b 501 368 516 379 505 376 l 473 302 b 483 280 470 294 473 283 m 855 195 b 870 205 862 195 869 198 l 898 269 b 888 293 901 277 897 288 b 865 281 879 295 869 293 l 840 219 b 848 195 836 211 840 200 l 855 195 m 1009 580 b 1016 579 1013 579 1015 579 b 1031 590 1023 579 1030 583 l 1059 654 b 1051 676 1063 662 1059 673 b 1027 668 1040 680 1031 676 l 1001 604 b 1009 580 997 594 1001 584 m 429 151 b 434 150 431 151 433 150 b 451 161 441 150 450 154 l 479 225 b 470 248 483 234 479 244 b 448 237 461 252 451 247 l 419 173 b 429 151 416 165 419 154 m 693 161 b 708 150 697 154 701 150 b 715 151 712 150 713 151 b 723 173 723 154 729 165 l 698 237 b 675 248 694 247 684 252 b 666 225 666 244 661 234 l 693 161 m 166 461 b 181 451 169 454 176 451 l 188 451 b 198 475 197 455 201 466 l 170 538 b 148 548 168 548 156 551 b 140 526 140 544 136 534 l 166 461 "},"$":{"x_min":87.421875,"x_max":769.453125,"ha":878,"o":"m 401 820 b 425 798 401 809 411 798 b 447 820 438 798 447 809 l 447 908 b 529 891 475 905 504 898 b 537 890 533 890 534 890 b 558 905 547 890 555 895 b 544 936 563 918 555 929 b 448 954 516 944 481 952 b 425 937 437 955 427 947 b 401 914 411 937 401 926 l 401 820 m 401 452 b 425 429 401 440 411 429 b 447 452 438 429 447 440 l 447 473 b 522 455 472 468 497 463 l 527 455 b 550 470 537 455 547 461 b 534 501 552 484 547 498 b 447 520 508 508 477 515 l 447 545 b 425 568 447 559 438 568 b 401 545 411 568 401 559 l 401 452 m 736 205 b 741 204 737 204 738 204 b 762 220 751 204 759 211 b 769 270 768 236 769 254 b 761 326 769 288 766 308 b 734 341 758 337 744 344 b 718 311 720 336 712 325 b 722 270 720 298 722 284 b 718 233 722 256 720 243 b 736 205 713 220 722 208 m 175 88 b 187 84 179 86 181 84 b 208 98 194 84 204 90 b 198 129 213 109 209 123 b 126 179 169 144 145 161 b 91 176 113 187 100 186 b 97 143 84 163 86 151 b 175 88 118 125 145 106 m 134 748 b 143 747 136 747 138 747 b 163 762 151 747 161 752 b 208 829 172 786 187 809 b 208 862 216 839 216 851 b 176 862 200 872 183 872 b 119 777 150 839 131 809 b 134 748 115 765 122 751 m 348 498 b 370 515 359 498 368 504 b 354 543 375 526 366 538 b 270 572 323 551 297 562 b 240 562 259 579 245 572 b 252 530 236 548 240 536 b 343 498 279 518 309 507 l 348 498 m 401 83 b 425 61 401 70 411 61 b 447 83 438 61 447 70 l 447 177 b 425 200 447 190 438 200 b 401 177 411 200 401 190 l 401 83 m 605 77 b 626 65 611 69 618 65 b 637 68 630 65 633 66 b 713 131 668 84 694 108 b 712 163 722 141 722 155 b 680 161 702 173 688 172 b 615 109 663 141 640 125 b 605 77 604 102 600 88 m 359 22 b 381 40 369 22 379 30 b 363 66 383 52 376 65 b 279 93 333 73 305 80 b 247 77 266 95 252 90 b 261 48 243 65 250 52 b 355 22 291 37 322 29 l 359 22 m 401 1005 b 425 983 401 993 411 983 b 447 1005 438 983 447 993 l 447 1098 b 425 1122 447 1111 438 1122 b 401 1098 411 1122 401 1111 l 401 1005 m 675 377 b 690 372 679 373 684 372 b 706 379 695 372 702 373 b 705 412 715 388 713 404 b 625 466 683 433 656 451 b 594 455 612 470 598 466 b 604 425 587 444 591 430 b 675 377 631 411 656 394 m 401 638 b 425 613 401 625 411 613 b 447 638 438 613 447 625 l 447 730 b 425 752 447 741 438 752 b 401 730 411 752 401 741 l 401 638 m 401 -100 b 425 -122 401 -111 411 -122 b 447 -100 438 -122 447 -111 l 447 -8 b 425 16 447 4 438 16 b 401 -8 411 16 401 4 l 401 -100 m 168 584 b 183 579 173 580 179 579 b 201 586 190 579 195 580 b 200 616 211 595 209 609 b 159 684 179 638 165 659 b 131 701 156 695 144 705 b 113 673 118 698 112 686 b 168 584 123 640 143 609 m 245 889 b 268 875 251 879 258 875 b 277 877 270 875 275 876 b 361 902 302 889 330 897 b 379 927 372 905 380 915 b 351 947 376 941 363 951 b 256 918 318 941 287 930 b 245 889 245 912 241 898 m 427 37 b 450 16 429 25 438 16 l 451 16 b 548 31 484 18 518 23 b 563 59 558 34 566 47 b 536 76 559 70 548 79 b 448 62 508 68 479 63 b 427 37 436 61 427 50 m 687 808 b 698 804 691 805 695 804 b 719 815 706 804 713 808 b 712 845 725 825 722 840 b 631 895 688 862 662 880 b 601 887 620 902 606 897 b 611 857 595 876 600 862 b 687 808 636 840 663 825 m 401 269 b 425 247 401 256 411 247 b 447 269 438 247 447 256 l 447 361 b 425 383 447 373 438 383 b 401 361 411 383 401 373 l 401 269 "},"\\":{"x_min":87.46875,"x_max":516.296875,"ha":622,"o":"m 98 1 l 98 1 b 104 0 100 0 102 0 l 104 0 b 122 11 111 0 118 4 l 133 40 l 133 40 b 123 62 137 48 131 59 l 123 62 b 100 52 113 66 104 62 l 88 25 l 88 25 b 98 1 84 15 90 5 m 137 94 l 137 94 b 144 93 138 94 143 93 l 144 93 b 159 105 151 93 158 98 l 188 168 l 188 168 b 177 193 191 179 186 187 l 177 193 b 155 181 169 197 158 191 l 129 118 l 129 118 b 137 94 125 108 129 98 m 191 225 l 191 225 b 198 222 193 222 197 222 l 198 222 b 215 233 205 222 212 226 l 243 298 l 243 298 b 231 320 245 307 240 318 l 231 320 b 209 312 223 325 212 320 l 183 247 l 183 247 b 191 225 179 238 183 227 m 245 354 l 245 354 b 252 352 248 352 251 352 l 252 352 b 269 363 259 352 266 355 l 297 427 l 297 427 b 286 451 300 437 297 447 l 286 451 b 263 441 277 454 269 451 l 237 377 l 237 377 b 245 354 233 368 237 358 m 300 482 l 300 482 b 306 482 302 482 305 482 l 306 482 b 323 493 315 482 322 486 l 351 558 l 351 558 b 343 580 355 566 351 577 l 343 580 b 318 570 331 584 323 579 l 291 507 l 291 507 b 300 482 288 497 291 487 m 355 612 l 355 612 b 362 611 358 612 359 611 l 362 611 b 377 620 369 611 376 616 l 405 686 l 405 686 b 397 708 409 694 405 705 l 397 708 b 372 700 386 714 377 708 l 345 634 l 345 634 b 355 612 343 626 345 616 m 409 741 l 409 741 b 416 740 412 740 415 740 l 416 740 b 431 751 423 740 430 744 l 459 816 l 459 816 b 451 839 463 825 459 834 l 451 839 b 429 830 443 841 431 839 l 400 765 l 400 765 b 409 741 397 757 400 745 m 463 872 l 463 872 b 470 870 466 870 469 870 l 470 870 b 486 880 477 870 484 873 l 515 945 l 515 945 b 505 968 518 954 515 965 l 505 968 b 483 959 497 972 486 968 l 455 894 l 455 894 b 463 872 451 886 455 876 "},"":{"x_min":81.9375,"x_max":151.390625,"ha":319,"o":"m 86 862 b 94 854 86 858 90 854 l 98 854 b 151 930 145 866 151 908 l 151 944 b 150 947 150 944 150 945 b 118 972 145 961 131 972 b 81 936 98 972 81 955 b 118 902 81 918 98 902 l 125 902 b 93 875 120 890 111 879 b 86 862 87 872 83 868 "},"~":{"x_min":119.328125,"x_max":552.5,"ha":639,"o":"m 380 890 b 383 889 381 889 381 889 b 390 894 386 889 388 891 b 386 905 393 898 390 904 b 358 918 376 908 366 914 b 347 915 354 920 350 919 b 350 904 344 912 345 907 b 380 890 359 898 370 893 m 322 923 b 327 922 325 922 326 922 b 333 925 330 922 333 923 b 331 936 337 929 334 934 b 302 952 322 943 311 948 b 291 948 297 952 293 951 b 295 937 290 944 291 939 b 322 923 304 933 313 929 m 268 945 b 276 952 272 945 276 948 b 269 962 276 957 273 961 b 247 964 262 962 254 964 b 236 962 243 964 238 964 b 229 954 231 962 227 959 b 236 947 229 950 231 945 l 247 947 b 266 945 254 947 259 947 l 268 945 m 412 882 b 434 879 419 880 427 879 l 436 879 b 447 880 438 879 443 880 b 454 889 450 880 454 884 b 445 895 452 893 450 895 l 436 895 b 415 897 429 895 422 895 b 405 890 411 898 406 894 b 412 882 405 886 408 882 m 469 891 b 477 886 470 889 473 886 b 480 887 479 886 479 887 b 509 902 490 891 501 895 b 512 914 513 905 513 911 b 501 915 509 918 504 918 b 475 902 493 909 483 905 b 469 891 469 900 468 895 m 169 930 b 176 926 169 929 173 926 b 179 929 176 926 179 927 b 206 940 187 933 197 937 b 212 951 212 941 213 947 b 202 957 211 955 206 957 b 172 941 191 952 180 947 b 169 930 168 940 166 936 m 523 926 b 527 925 525 925 526 925 b 534 926 530 925 533 925 b 551 957 540 936 547 945 b 547 968 554 961 551 965 b 536 962 543 969 538 966 b 522 937 533 952 527 944 b 523 926 518 933 519 929 m 122 887 b 127 884 123 886 126 884 b 133 889 130 884 131 886 b 138 894 133 889 134 891 b 154 909 143 898 147 904 b 155 922 158 914 158 918 b 144 922 152 925 147 925 l 120 898 b 122 887 118 894 119 889 "},"-":{"x_min":91.671875,"x_max":313.890625,"ha":567,"o":"m 262 472 l 262 472 l 302 472 l 302 472 b 313 486 309 472 313 477 l 313 486 b 302 501 313 494 309 501 l 262 501 l 262 501 b 252 486 258 501 252 494 l 252 486 b 262 472 252 477 258 472 m 181 472 l 181 472 l 222 472 l 222 472 b 233 486 229 472 233 477 l 233 486 b 222 501 233 494 229 501 l 181 501 l 181 501 b 172 486 177 501 172 494 l 172 486 b 181 472 172 477 177 472 m 101 472 l 101 472 l 141 472 l 141 472 b 152 486 148 472 152 477 l 152 486 b 141 501 152 494 148 501 l 101 501 l 101 501 b 91 486 97 501 91 494 l 91 486 b 101 472 91 477 97 472 "},"Q":{"x_min":91.671875,"x_max":1121.109375,"ha":1172,"o":"m 948 670 b 969 605 958 647 965 626 b 988 588 972 595 979 588 b 991 590 990 588 990 590 b 1005 611 1002 593 1009 602 b 983 683 1001 636 991 661 b 959 694 979 691 969 697 b 948 670 950 687 945 677 m 963 358 b 937 295 958 337 948 316 b 947 272 934 284 937 275 b 956 269 950 269 954 269 b 972 279 963 269 969 273 b 1000 350 983 301 991 325 b 987 370 1002 358 995 368 b 963 358 976 373 966 368 m 737 944 b 668 970 713 954 691 964 b 647 955 658 972 648 966 b 658 934 644 948 648 939 b 723 915 679 930 701 922 b 730 912 725 912 726 912 b 747 922 737 912 744 916 b 737 944 750 930 747 941 m 594 983 b 555 984 580 983 568 984 b 522 983 544 984 534 983 b 505 964 512 982 505 973 b 523 948 505 954 515 947 b 555 948 536 948 545 948 b 591 947 568 948 579 948 b 593 947 591 947 593 947 b 612 964 602 947 611 954 b 594 983 612 973 604 982 m 555 1 b 566 1 558 1 562 1 b 583 19 576 1 583 9 b 565 38 583 29 575 38 b 555 37 561 38 558 37 b 500 41 537 37 516 38 b 477 26 488 43 480 37 b 493 6 476 16 483 8 b 555 1 513 4 534 1 m 311 912 b 252 866 291 898 270 883 b 252 841 245 862 245 850 b 266 837 255 839 259 837 b 279 841 269 837 276 839 l 279 841 b 331 883 294 857 312 870 b 336 908 338 889 341 898 b 311 912 331 916 319 919 m 426 20 b 444 34 434 20 441 26 b 433 56 447 43 441 52 b 368 84 411 63 391 72 b 343 75 358 88 347 84 b 352 51 337 66 343 56 b 422 22 372 40 397 29 b 426 20 423 20 425 20 m 448 972 b 377 947 425 965 402 955 b 368 923 368 943 363 933 b 387 915 370 918 377 915 b 394 916 390 915 391 915 b 456 937 413 923 436 932 b 469 959 466 940 470 948 b 448 972 468 968 458 973 m 1000 555 b 980 533 988 554 979 544 b 983 493 983 520 983 507 b 977 425 983 470 980 447 b 993 405 976 415 983 407 b 998 405 995 405 995 405 b 1013 419 1005 405 1012 411 b 1018 493 1016 444 1018 468 b 1016 537 1018 508 1018 522 b 1000 555 1016 550 1006 555 m 776 62 b 837 108 798 75 818 90 b 841 131 845 112 847 123 b 813 133 831 140 822 141 l 813 133 b 759 97 798 119 777 108 b 754 68 752 90 748 76 b 768 61 756 63 761 61 b 776 62 770 61 775 61 m 930 241 b 905 234 922 245 912 244 b 866 179 894 216 880 197 b 866 155 858 173 858 162 b 879 152 869 152 875 152 b 891 156 881 152 887 154 b 934 216 908 175 922 195 b 930 241 940 223 937 234 m 256 165 b 233 165 250 172 238 172 b 233 141 226 158 226 147 b 288 91 248 123 269 108 b 300 88 291 90 294 88 b 312 97 304 88 309 91 b 309 120 319 104 316 115 b 256 165 291 133 276 148 m 120 595 b 123 595 122 595 122 595 b 141 609 131 595 137 601 l 141 609 b 161 675 145 630 154 652 b 151 698 165 683 161 694 b 127 687 143 702 133 697 b 105 618 120 665 111 640 b 120 595 104 608 109 598 m 168 730 b 177 727 170 729 173 727 b 191 734 183 727 188 730 l 191 734 b 231 793 202 755 215 776 b 227 818 236 800 236 811 b 202 814 219 823 209 822 b 161 754 188 795 173 776 b 168 730 156 744 159 734 m 833 837 b 847 833 837 834 844 833 b 859 839 852 833 856 834 b 859 864 868 844 868 857 b 801 911 843 880 820 895 b 776 905 793 916 780 912 b 780 880 770 897 772 884 b 833 837 800 866 818 852 m 109 454 b 127 472 120 455 127 462 b 126 493 126 479 126 486 b 129 538 126 509 127 525 b 112 561 129 551 123 559 b 94 543 102 562 94 554 b 91 493 93 526 91 509 b 91 470 91 484 91 477 b 109 454 93 462 100 454 b 109 454 109 454 109 454 m 920 732 b 934 722 923 725 929 722 b 944 725 937 722 943 723 b 950 748 954 730 956 740 b 909 811 937 770 925 790 b 886 812 904 818 893 819 b 881 789 877 808 876 795 b 920 732 895 770 909 751 m 154 338 b 134 405 144 361 138 382 b 113 418 133 412 125 419 b 100 398 104 416 98 408 b 116 327 104 373 111 351 b 136 316 122 320 127 316 b 141 318 137 316 138 316 b 154 338 151 319 156 329 m 180 275 b 155 283 176 284 165 287 b 147 261 145 277 143 268 b 187 197 158 236 172 218 b 200 190 190 191 194 190 b 211 194 202 190 208 190 b 213 218 216 198 219 211 b 180 275 201 234 190 255 m 704 26 b 708 29 705 27 708 27 b 709 29 709 29 709 29 b 722 52 719 33 725 44 b 698 63 718 62 705 66 l 698 63 b 634 44 676 54 655 50 b 618 23 623 43 616 33 b 618 22 618 22 618 22 b 616 6 615 18 613 11 b 634 -4 620 0 626 -4 b 640 -2 636 -4 638 -2 l 704 26 m 983 -153 b 916 -166 959 -160 937 -164 b 901 -184 908 -166 900 -177 b 916 -201 901 -194 909 -201 b 919 -201 919 -201 919 -201 l 919 -201 b 993 -187 944 -199 969 -194 b 1005 -164 1004 -184 1009 -174 b 983 -153 1002 -155 991 -149 m 850 -163 b 784 -145 826 -159 806 -153 b 761 -156 775 -141 765 -146 b 772 -178 758 -164 763 -174 l 772 -178 b 844 -198 797 -187 819 -192 b 847 -198 845 -198 847 -198 b 866 -182 855 -198 863 -191 b 850 -163 868 -171 859 -164 m 1116 -94 b 1091 -92 1112 -88 1101 -87 b 1043 -126 1076 -103 1059 -115 b 1037 -149 1034 -130 1033 -141 b 1054 -158 1038 -155 1047 -158 b 1061 -156 1056 -158 1058 -158 l 1061 -156 b 1113 -119 1079 -146 1098 -134 b 1116 -94 1122 -113 1123 -102 m 456 -69 b 455 -67 456 -67 456 -67 b 433 -59 451 -58 441 -55 l 366 -88 b 358 -110 356 -92 354 -102 b 365 -119 358 -113 361 -116 b 377 -123 368 -121 370 -123 b 387 -120 380 -123 383 -121 b 404 -113 387 -120 393 -119 b 448 -99 413 -109 430 -103 b 461 -79 458 -97 462 -87 b 456 -69 459 -76 458 -70 m 722 -116 b 672 -91 705 -109 690 -99 b 659 -83 669 -88 665 -87 b 637 -91 651 -80 640 -83 b 644 -113 631 -99 636 -109 b 656 -120 648 -115 651 -119 b 704 -149 672 -131 688 -138 b 712 -151 708 -149 711 -151 b 730 -141 719 -151 726 -148 b 722 -116 733 -133 730 -120 m 588 -58 b 529 -54 568 -55 548 -54 l 576 -33 b 584 -8 584 -27 588 -16 b 561 0 579 0 569 4 l 497 -29 b 488 -54 488 -34 483 -45 b 501 -62 490 -58 495 -60 b 497 -70 500 -65 497 -67 b 515 -88 497 -81 505 -90 b 529 -88 520 -88 525 -88 b 580 -92 547 -88 562 -90 b 584 -92 583 -92 583 -92 b 601 -80 593 -92 600 -88 b 588 -58 604 -69 598 -61 "},"M":{"x_min":144.4375,"x_max":976.390625,"ha":1172,"o":"m 568 413 b 577 409 570 411 573 409 b 591 416 583 409 590 411 l 634 476 b 631 501 640 483 638 494 b 606 495 622 507 611 505 l 562 438 b 559 423 559 433 558 427 b 558 438 561 427 559 433 l 516 495 b 491 501 509 505 498 507 b 486 476 481 494 480 483 l 529 416 b 543 409 531 411 537 409 b 554 413 547 409 550 411 b 559 423 556 415 559 419 b 568 413 561 419 563 415 m 193 886 b 206 877 197 880 201 877 b 218 882 211 877 213 877 b 222 905 225 887 227 898 l 180 965 b 168 970 176 968 172 970 b 162 970 166 970 163 970 b 144 954 151 970 144 964 l 144 882 b 162 864 144 873 151 864 b 180 882 173 864 180 873 l 180 902 l 193 886 m 940 882 b 958 864 940 873 950 864 b 976 882 969 864 976 873 l 976 954 b 958 970 976 964 969 970 b 952 970 956 970 954 970 b 941 965 948 970 944 968 l 898 905 b 904 882 894 898 895 887 b 913 877 906 877 909 877 b 929 886 920 877 926 880 l 940 901 l 940 882 m 144 18 b 162 0 144 8 151 0 b 180 18 173 0 180 8 l 180 90 b 162 108 180 100 173 108 b 144 90 151 108 144 100 l 144 18 m 144 305 b 162 287 144 295 151 287 b 180 305 173 287 180 295 l 180 377 b 162 395 180 387 173 395 b 144 377 151 395 144 387 l 144 305 m 144 592 b 162 574 144 584 151 574 b 180 592 173 574 180 584 l 180 665 b 162 683 180 676 173 683 b 144 665 151 683 144 676 l 144 592 m 651 530 b 662 526 654 527 658 526 b 676 533 668 526 672 527 l 719 592 b 713 616 725 599 723 610 b 688 612 706 623 695 622 l 647 555 b 651 530 641 545 644 536 m 940 18 b 958 0 940 8 950 0 b 976 18 969 0 976 8 l 976 90 b 958 108 976 100 969 108 b 940 90 950 108 940 100 l 940 18 m 940 305 b 958 287 940 295 950 287 b 976 305 969 287 976 295 l 976 377 b 958 395 976 387 969 395 b 940 377 950 395 940 387 l 940 305 m 940 592 b 958 574 940 584 950 574 b 976 592 969 574 976 584 l 976 665 b 958 683 976 676 969 683 b 940 665 950 683 940 676 l 940 592 m 275 767 b 291 760 279 763 284 760 b 301 764 295 760 298 760 b 305 789 309 770 311 781 l 262 847 b 237 851 258 857 247 858 b 234 826 230 845 229 834 l 275 767 m 144 448 b 162 432 144 440 151 432 b 180 448 173 432 180 440 l 180 520 b 162 538 180 531 173 538 b 144 520 151 538 144 531 l 144 448 m 144 161 b 162 144 144 152 151 144 b 180 161 173 144 180 152 l 180 233 b 162 251 180 244 173 251 b 144 233 151 251 144 244 l 144 161 m 144 736 b 162 719 144 728 151 719 b 180 736 173 719 180 728 l 180 809 b 162 827 180 820 173 827 b 144 809 151 827 144 820 l 144 736 m 736 647 b 745 643 738 643 743 643 b 761 650 751 643 756 645 l 802 708 b 798 733 809 717 806 728 b 773 729 791 740 779 739 l 731 672 b 736 647 726 662 729 652 m 940 161 b 958 144 940 152 950 144 b 976 161 969 144 976 152 l 976 233 b 958 251 976 244 969 251 b 940 233 950 251 940 244 l 940 161 m 940 448 b 958 432 940 440 950 432 b 976 448 969 432 976 440 l 976 520 b 958 538 976 531 969 538 b 940 520 950 538 940 531 l 940 448 m 940 736 b 958 719 940 728 950 719 b 976 736 969 719 976 728 l 976 809 b 958 827 976 820 969 827 b 940 809 950 827 940 820 l 940 736 m 444 533 b 458 526 448 527 454 526 b 469 530 462 526 466 527 b 473 555 476 536 479 545 l 431 612 b 406 616 426 622 413 623 b 402 592 397 610 395 599 l 444 533 m 820 764 b 830 760 823 760 827 760 b 845 767 836 760 841 763 l 886 826 b 883 851 891 834 890 845 b 858 847 873 858 863 857 l 816 789 b 820 764 809 781 811 770 m 359 650 b 375 643 363 645 369 643 b 384 647 377 643 381 643 b 388 672 394 652 395 662 l 347 729 b 322 733 341 739 331 740 b 319 708 315 728 313 717 l 359 650 "},"C":{"x_min":101.390625,"x_max":929.34375,"ha":1071,"o":"m 575 0 l 575 0 b 605 0 584 0 594 0 l 605 0 b 648 1 620 0 634 0 l 648 1 b 665 19 659 1 666 11 l 665 19 b 645 37 665 30 655 37 l 645 37 b 605 34 633 34 620 34 l 605 34 b 577 34 597 34 586 34 l 577 34 b 558 19 566 34 559 27 l 558 19 b 575 0 558 8 565 0 m 504 11 l 504 11 b 508 8 504 8 506 8 l 508 8 b 522 22 515 8 520 15 l 522 22 b 511 44 526 33 519 41 l 511 44 b 444 61 488 50 466 54 l 444 61 b 422 51 434 65 426 61 l 422 51 b 433 30 418 41 423 33 l 433 30 b 504 11 455 20 480 13 m 700 25 l 700 25 b 719 12 701 18 708 12 l 719 12 b 722 12 719 12 720 12 l 722 12 b 793 33 747 18 770 25 l 793 33 b 801 56 801 37 805 47 l 801 56 b 779 66 798 65 787 70 l 779 66 b 712 45 758 58 736 51 l 712 45 b 700 25 704 44 698 34 m 363 59 l 363 59 b 373 56 366 58 369 56 l 373 56 b 387 66 379 56 386 59 l 387 66 b 380 90 393 73 388 86 l 380 90 b 322 129 361 100 340 113 l 322 129 b 297 126 313 134 302 133 l 297 126 b 301 98 293 115 293 105 l 301 98 b 363 59 320 83 341 70 m 834 70 l 834 70 b 852 61 838 65 847 61 l 852 61 b 861 65 855 61 856 63 l 861 65 b 920 106 881 76 902 90 l 920 106 b 925 133 929 112 931 122 l 925 133 b 900 134 919 140 908 141 l 900 134 l 900 134 b 843 94 881 120 862 106 l 843 94 b 834 70 833 90 831 79 m 244 148 l 244 148 b 259 143 248 145 254 143 l 259 143 b 270 148 262 143 268 145 l 270 148 b 270 173 279 155 279 166 l 270 173 b 223 225 254 188 240 206 l 223 225 b 198 227 219 231 208 233 l 198 227 b 194 204 191 223 188 211 l 194 204 b 244 148 212 184 229 165 m 155 266 l 155 266 b 172 258 159 261 165 258 l 172 258 b 180 259 175 258 177 258 l 180 259 b 187 281 188 262 191 273 l 187 281 b 159 347 177 304 168 325 l 159 347 b 138 358 158 355 147 359 l 138 358 b 127 334 129 354 123 343 l 127 334 b 155 266 134 311 145 287 m 108 407 l 108 407 b 126 393 109 398 116 393 l 126 393 b 129 393 126 393 127 393 l 129 393 b 143 413 138 394 145 402 l 143 413 b 136 479 138 433 136 457 l 136 479 b 116 497 134 487 127 497 l 116 497 b 101 477 108 495 101 487 l 101 477 b 108 407 101 452 105 430 m 119 533 l 119 533 b 122 532 120 532 120 532 l 122 532 b 140 547 131 532 138 538 l 140 547 b 152 613 141 570 147 593 l 152 613 b 140 637 155 625 151 634 l 140 637 b 119 625 131 640 122 634 l 119 625 b 105 552 112 600 106 577 l 105 552 b 119 533 102 543 109 533 m 152 670 l 152 670 b 161 669 155 669 158 669 l 161 669 b 177 679 166 669 173 672 l 177 679 l 177 679 b 209 740 186 700 195 719 l 209 740 b 206 765 215 748 213 759 l 206 765 b 180 759 195 770 186 768 l 180 759 b 143 693 166 740 154 716 l 143 693 b 152 670 140 684 143 673 m 229 793 l 229 793 b 241 790 233 790 236 790 l 241 790 b 254 794 244 790 250 791 l 254 794 l 254 794 b 302 840 269 811 286 826 l 302 840 b 305 866 309 847 312 858 l 305 866 b 280 870 300 875 287 875 l 280 870 b 227 818 261 852 243 834 l 227 818 b 229 793 219 811 220 800 m 901 850 l 901 850 b 912 845 902 847 908 845 l 912 845 b 926 852 918 845 922 847 l 926 852 b 922 879 931 859 929 872 l 922 879 b 900 894 915 884 908 890 l 900 894 b 875 891 893 900 881 898 l 875 891 b 880 866 869 882 872 872 l 880 866 b 901 850 887 859 894 854 m 333 887 l 333 887 b 350 879 336 882 343 879 l 350 879 b 359 882 354 879 356 880 l 359 882 b 420 912 379 893 400 904 l 420 912 b 430 936 430 916 434 926 l 430 936 b 406 947 427 945 416 951 l 406 947 b 340 912 383 936 362 925 l 340 912 b 333 887 331 907 329 897 m 819 900 l 819 900 b 826 898 820 900 825 898 l 826 898 b 845 908 834 898 841 901 l 845 908 b 836 932 850 918 847 927 l 836 932 b 766 961 812 944 791 952 l 766 961 b 745 948 758 965 747 959 l 745 948 b 755 926 741 940 747 930 l 755 926 b 819 900 777 919 798 911 m 463 948 l 463 948 b 481 933 466 940 475 933 l 481 933 b 487 933 483 933 484 933 l 487 933 b 552 947 508 941 529 945 l 552 947 b 568 966 561 948 568 958 l 568 966 b 548 982 566 977 558 984 l 548 982 b 477 970 525 980 501 975 l 477 970 b 463 948 468 966 461 958 m 688 944 l 688 944 b 691 944 688 944 691 944 l 691 944 b 708 958 700 944 706 948 l 708 958 b 694 979 711 968 705 977 l 694 979 b 622 986 672 982 647 986 l 622 986 b 604 968 611 986 604 979 l 604 968 b 620 951 601 959 611 951 l 620 951 b 688 944 644 951 666 947 "},"[":{"x_min":135.96875,"x_max":373.234375,"ha":597,"o":"m 237 -131 b 256 -111 248 -131 256 -122 b 237 -91 256 -100 248 -91 l 174 -91 b 176 -86 176 -88 176 -87 l 176 -5 b 156 13 176 5 167 13 b 135 -5 145 13 135 5 l 135 -86 b 140 -98 135 -90 137 -94 b 135 -111 137 -101 135 -105 b 156 -131 135 -122 145 -131 l 237 -131 m 135 879 b 156 858 135 868 145 858 b 176 879 167 858 176 868 l 176 939 l 237 939 b 256 959 248 939 256 948 b 237 979 256 970 248 979 l 159 979 l 156 979 l 153 979 b 135 959 144 977 135 969 l 135 879 m 135 395 b 156 376 135 384 145 376 b 176 395 167 376 176 384 l 176 476 b 156 497 176 487 167 497 b 135 476 145 497 135 487 l 135 395 m 135 75 b 156 54 135 63 145 54 b 176 75 167 54 176 63 l 176 155 b 156 175 176 166 167 175 b 135 155 145 175 135 166 l 135 75 m 135 557 b 156 537 135 545 145 537 b 176 557 167 537 176 545 l 176 637 b 156 658 176 648 167 658 b 135 637 145 658 135 648 l 135 557 m 135 236 b 156 215 135 225 145 215 b 176 236 167 215 176 225 l 176 315 b 156 336 176 326 167 336 b 135 315 145 336 135 326 l 135 236 m 135 718 b 156 698 135 707 145 698 b 176 718 167 698 176 707 l 176 798 b 156 818 176 809 167 818 b 135 798 145 818 135 809 l 135 718 m 352 939 b 373 959 363 939 373 948 b 352 979 373 970 363 979 l 317 979 b 296 959 306 979 296 970 b 317 939 296 948 306 939 l 352 939 m 352 -131 b 373 -111 363 -131 373 -122 b 352 -91 373 -100 363 -91 l 317 -91 b 296 -111 306 -91 296 -100 b 317 -131 296 -122 306 -131 l 352 -131 "},"L":{"x_min":144.03125,"x_max":675.984375,"ha":782,"o":"m 235 0 b 253 18 244 0 253 6 b 235 34 253 26 244 34 l 177 34 b 178 38 177 36 178 37 l 178 109 b 162 126 178 119 171 126 b 144 109 152 126 144 119 l 144 38 b 149 25 144 33 145 29 b 148 18 148 23 148 20 b 164 0 148 6 155 0 l 235 0 m 144 743 b 162 725 144 734 152 725 b 178 743 171 725 178 734 l 178 814 b 162 832 178 823 171 832 b 144 814 152 832 144 823 l 144 743 m 517 0 b 535 18 525 0 535 6 b 517 34 535 26 525 34 l 446 34 b 428 18 437 34 428 26 b 446 0 428 6 437 0 l 517 0 m 144 320 b 162 302 144 311 152 302 b 178 320 171 302 178 311 l 178 391 b 162 408 178 401 171 408 b 144 391 152 408 144 401 l 144 320 m 144 461 b 162 444 144 452 152 444 b 178 461 171 444 178 452 l 178 532 b 162 550 178 543 171 550 b 144 532 152 550 144 543 l 144 461 m 144 179 b 162 162 144 170 152 162 b 178 179 171 162 178 170 l 178 250 b 162 268 178 261 171 268 b 144 250 152 268 144 261 l 144 179 m 144 884 b 162 866 144 875 152 866 b 178 884 171 866 178 875 l 178 954 b 162 972 178 965 171 972 b 144 954 152 972 144 965 l 144 884 m 144 602 b 162 584 144 593 152 584 b 178 602 171 584 178 593 l 178 672 b 162 690 178 683 171 690 b 144 672 152 690 144 683 l 144 602 m 375 0 b 394 18 385 0 394 6 b 375 34 394 26 385 34 l 306 34 b 288 18 295 34 288 26 b 306 0 288 6 295 0 l 375 0 m 657 0 b 675 18 667 0 675 6 b 657 34 675 26 667 34 l 588 34 b 570 18 577 34 570 26 b 588 0 570 6 577 0 l 657 0 "},"":{"x_min":81.71875,"x_max":151.171875,"ha":333,"o":"m 85 -38 b 94 -47 85 -43 90 -47 l 98 -47 b 151 29 145 -34 151 6 l 151 34 l 151 38 l 151 43 b 149 45 149 43 149 44 b 117 70 145 59 131 70 b 81 34 98 70 81 54 b 117 1 81 16 98 1 l 124 1 b 92 -26 120 -9 110 -20 b 85 -38 87 -29 83 -33 m 151 543 b 117 577 151 562 135 577 b 81 543 98 577 81 562 b 117 508 81 525 98 508 b 151 543 135 508 151 525 "},"!":{"x_min":129.171875,"x_max":163.890625,"ha":350,"o":"m 129 231 l 129 231 b 147 213 129 220 136 213 l 147 213 b 163 231 155 213 163 220 l 163 302 l 163 302 b 147 319 163 312 155 319 l 147 319 b 129 302 136 319 129 312 l 129 231 m 129 372 l 129 372 b 147 355 129 362 136 355 l 147 355 b 163 372 155 355 163 362 l 163 443 l 163 443 b 147 461 163 454 155 461 l 147 461 b 129 443 136 461 129 454 l 129 372 m 129 513 l 129 513 b 147 495 129 502 136 495 l 147 495 b 163 513 155 495 163 502 l 163 583 l 163 583 b 147 601 163 594 155 601 l 147 601 b 129 583 136 601 129 594 l 129 513 m 129 654 l 129 654 b 147 636 129 643 136 636 l 147 636 b 163 654 155 636 163 643 l 163 725 l 163 725 b 147 741 163 734 155 741 l 147 741 b 129 725 136 741 129 734 l 129 654 m 129 794 l 129 794 b 147 776 129 784 136 776 l 147 776 b 163 794 155 776 163 784 l 163 865 l 163 865 b 147 882 163 875 155 882 l 147 882 b 129 865 136 882 129 875 l 129 794 m 129 934 l 129 934 b 147 918 129 925 136 918 l 147 918 b 163 934 155 918 163 925 l 163 954 l 163 954 b 147 972 163 964 155 972 l 147 972 b 129 954 136 972 129 964 l 129 934 m 129 18 l 129 18 b 147 0 129 8 136 0 l 147 0 b 163 18 155 0 163 8 l 163 51 l 163 51 b 147 68 163 61 155 68 l 147 68 b 129 51 136 68 129 61 l 129 18 "}," ":{"x_min":0,"x_max":0,"ha":417},"{":{"x_min":77.5,"x_max":592.875,"ha":667,"o":"m 476 930 b 494 916 478 922 485 916 b 501 918 496 916 499 918 b 553 932 521 925 539 929 b 574 934 567 934 574 934 b 592 957 585 936 594 945 b 571 975 592 968 583 976 b 488 957 570 975 534 972 b 476 930 477 952 471 941 m 349 205 b 370 223 360 205 369 212 b 371 248 371 231 371 240 b 359 312 371 269 367 291 b 333 323 355 322 342 327 b 322 297 322 318 317 307 b 331 248 328 281 331 265 b 330 227 331 241 331 234 b 348 205 328 216 337 206 l 349 205 m 315 690 b 334 672 316 680 324 672 b 337 673 335 672 335 672 b 353 695 348 675 356 684 b 351 733 352 708 351 720 b 355 769 351 745 352 758 b 338 793 356 780 349 790 b 315 776 327 794 316 787 b 310 733 312 762 310 748 b 315 690 310 719 312 705 m 353 830 b 364 826 356 827 360 826 b 381 834 371 826 377 829 b 433 886 395 855 413 872 b 438 914 442 891 445 904 b 410 919 433 922 420 925 b 348 858 388 904 366 883 b 353 830 342 848 344 836 m 333 516 b 340 515 335 515 338 515 b 359 527 348 515 355 519 b 371 591 367 548 371 569 b 370 616 371 600 370 608 b 348 634 369 627 359 634 b 330 612 337 633 328 622 b 331 591 331 605 331 598 b 322 543 331 575 328 558 b 333 516 317 533 322 520 m 573 -136 b 592 -116 583 -136 592 -127 b 574 -95 594 -105 585 -95 l 553 -91 b 501 -79 539 -90 521 -86 b 476 -91 491 -75 478 -80 b 488 -116 471 -101 477 -112 b 571 -136 534 -131 570 -136 l 573 -136 m 315 63 b 334 47 316 54 324 47 l 338 47 b 355 70 349 48 356 59 b 351 106 352 81 351 94 b 353 144 351 118 352 130 b 337 166 355 155 348 165 b 315 150 326 168 316 161 b 310 106 312 134 310 120 b 315 63 310 91 312 76 m 277 348 b 288 344 281 345 285 344 b 305 352 295 344 301 347 b 301 382 312 362 309 375 b 222 416 279 395 254 408 b 197 404 210 420 199 413 b 210 379 194 393 199 382 b 277 348 238 370 260 359 m 197 436 b 216 422 199 427 208 422 l 222 422 b 299 458 254 432 279 444 b 305 486 309 465 312 477 b 277 491 299 495 287 498 b 210 461 260 480 238 469 b 197 436 199 458 194 447 m 410 -79 b 421 -81 414 -81 419 -81 b 438 -73 428 -81 435 -79 b 432 -45 445 -63 442 -51 b 381 4 413 -31 395 -15 b 353 9 374 13 362 16 b 348 -18 344 2 342 -9 b 410 -79 366 -43 388 -63 m 137 394 b 158 412 147 394 156 401 b 156 419 158 415 158 416 b 158 427 158 422 158 425 b 134 444 156 438 145 447 b 95 440 122 443 109 441 b 77 422 84 440 77 430 l 77 420 l 77 419 b 95 398 76 408 84 400 b 134 394 109 398 122 397 l 137 394 "},"X":{"x_min":103.984375,"x_max":823.78125,"ha":1003,"o":"m 444 457 b 452 454 445 455 450 454 b 463 455 456 454 459 454 b 473 454 466 454 470 454 b 484 457 477 454 480 455 b 487 482 491 462 493 473 l 486 483 l 509 516 b 505 541 513 525 512 536 b 480 537 498 548 486 547 l 462 513 l 445 537 b 423 541 440 547 430 548 b 418 516 413 536 412 525 l 441 484 l 438 482 b 444 457 433 473 436 462 m 625 233 b 638 226 629 229 634 226 b 650 230 643 226 648 226 b 655 255 658 236 661 245 l 612 311 b 588 315 608 318 595 319 b 584 290 579 309 577 298 l 625 233 m 609 683 b 619 680 612 682 616 680 b 634 687 625 680 630 683 l 676 745 b 670 769 681 752 679 762 b 645 765 663 775 652 773 l 605 708 b 609 683 600 701 602 689 m 209 801 b 225 794 213 795 219 794 b 234 798 227 794 233 794 b 238 822 244 802 245 814 l 198 879 b 173 882 193 886 180 887 b 169 858 165 877 162 866 l 209 801 m 359 343 b 370 338 363 341 366 338 b 384 345 375 338 380 343 l 426 404 b 423 429 431 411 430 423 b 398 425 413 434 404 432 l 356 368 b 359 343 351 359 352 350 m 277 230 b 287 226 280 226 284 226 b 301 233 293 226 298 229 l 344 290 b 340 315 348 298 347 309 b 315 311 331 319 320 318 l 273 255 b 277 230 268 245 270 236 m 543 345 b 556 338 545 343 551 338 b 566 343 559 338 563 341 b 570 368 576 350 577 359 l 530 425 b 505 429 523 432 512 434 b 502 404 497 423 495 411 l 543 345 m 377 575 b 391 568 380 569 386 568 b 401 569 394 568 398 568 b 405 594 409 576 411 587 l 363 652 b 338 655 358 659 347 661 b 334 630 331 650 330 637 l 377 575 m 791 6 b 806 0 795 1 801 0 b 816 4 809 0 813 0 b 820 27 823 8 826 19 l 777 84 b 754 87 773 91 762 93 b 750 63 747 81 744 70 l 791 6 m 194 116 b 205 112 198 113 201 112 b 219 119 209 112 215 116 l 261 177 b 255 202 266 184 265 195 b 231 197 248 206 238 205 l 191 140 b 194 116 186 133 187 120 m 526 569 b 537 568 530 568 533 568 b 551 575 543 568 548 569 l 591 630 b 588 655 598 637 597 650 b 563 652 581 661 569 659 l 523 594 b 526 569 516 587 518 576 m 709 119 b 723 112 713 116 718 112 b 734 116 727 112 730 113 b 737 140 741 120 743 133 l 695 197 b 670 202 690 205 679 206 b 668 177 663 195 662 184 l 709 119 m 691 798 b 702 794 695 794 698 794 b 716 801 708 794 713 795 l 758 858 b 755 882 763 866 762 877 b 730 879 747 887 736 886 l 688 822 b 691 798 683 814 684 802 m 294 687 b 308 680 297 683 304 680 b 318 683 312 680 315 682 b 322 708 326 689 327 701 l 280 765 b 255 769 275 773 265 775 b 252 745 248 762 247 752 l 294 687 m 112 4 b 122 0 115 0 119 0 b 136 6 127 0 133 1 l 176 63 b 173 87 183 70 181 81 b 148 84 166 93 154 91 l 108 27 b 112 4 101 19 102 8 m 775 911 b 784 907 777 908 781 907 b 800 914 790 907 795 911 l 820 941 b 816 966 826 951 823 961 b 791 964 808 972 797 970 l 770 934 b 775 911 765 927 768 915 m 127 914 b 141 907 131 911 136 907 b 152 911 145 907 148 908 b 155 934 161 915 162 927 l 136 964 b 112 966 129 970 119 972 b 108 941 102 961 101 951 l 127 914 "},"P":{"x_min":144.4375,"x_max":729.171875,"ha":810,"o":"m 259 419 b 277 438 268 419 277 426 b 259 456 277 446 268 456 l 187 456 b 180 454 184 456 181 454 l 180 522 b 162 540 180 533 173 540 b 144 522 152 540 144 533 l 144 450 b 162 432 144 442 152 432 b 169 433 165 432 166 432 b 187 419 170 424 177 419 l 259 419 m 144 881 b 162 863 144 873 152 863 b 180 881 173 863 180 873 l 180 936 l 236 936 b 254 954 247 936 254 945 b 236 972 254 965 247 972 l 165 972 l 163 972 l 162 972 b 144 954 152 972 144 965 l 144 881 m 144 18 b 162 0 144 8 152 0 b 180 18 173 0 180 8 l 180 90 b 162 108 180 101 173 108 b 144 90 152 108 144 101 l 144 18 m 690 740 b 708 725 691 730 698 725 l 711 725 b 726 746 720 727 727 736 b 702 819 720 772 713 796 b 677 826 697 827 686 832 b 670 802 668 822 665 812 b 690 740 679 783 686 761 m 144 594 b 162 576 144 585 152 576 b 180 594 173 576 180 585 l 180 666 b 162 684 180 676 173 684 b 144 666 152 684 144 676 l 144 594 m 380 936 b 398 954 391 936 398 945 b 380 972 398 965 391 972 l 308 972 b 290 954 298 972 290 965 b 308 936 290 945 298 936 l 380 936 m 144 306 b 162 287 144 297 152 287 b 180 306 173 287 180 297 l 180 378 b 162 396 180 389 173 396 b 144 378 152 396 144 389 l 144 306 m 404 419 b 422 438 412 419 422 426 b 404 456 422 446 412 456 l 331 456 b 313 438 320 456 313 446 b 331 419 313 426 320 419 l 404 419 m 687 585 b 695 583 690 583 691 583 b 711 594 702 583 708 587 b 729 669 720 618 727 643 b 713 689 729 679 722 687 b 693 673 702 689 693 682 b 677 608 691 650 686 628 b 687 585 673 600 679 589 m 631 858 b 644 851 636 852 638 851 b 656 856 648 851 654 852 b 656 881 665 863 665 874 b 600 930 641 901 622 917 b 575 924 590 936 580 934 b 580 899 569 916 570 905 b 631 858 600 888 616 874 m 144 162 b 162 144 144 153 152 144 b 180 162 173 144 180 153 l 180 235 b 162 251 180 244 173 251 b 144 235 152 251 144 244 l 144 162 m 144 737 b 162 720 144 729 152 720 b 180 737 173 720 180 729 l 180 809 b 162 827 180 820 173 827 b 144 809 152 827 144 820 l 144 737 m 525 927 b 541 940 531 927 538 931 b 529 961 544 948 538 959 b 454 972 504 967 479 972 l 452 972 b 434 954 443 972 434 965 b 452 936 434 945 443 936 l 454 936 b 519 927 477 936 498 931 l 525 927 m 594 478 b 608 469 598 474 604 469 b 619 474 612 469 616 472 b 673 528 638 490 656 508 b 670 553 679 536 679 547 b 644 549 662 560 650 558 b 598 503 631 533 616 517 b 594 478 588 497 587 486 m 458 438 b 476 419 458 426 466 419 l 477 419 b 551 438 502 424 527 429 b 562 461 559 442 565 451 b 538 472 558 469 547 474 b 473 456 519 462 497 457 b 458 438 465 456 455 446 "},"#":{"x_min":62.5,"x_max":762.5,"ha":972,"o":"m 554 275 b 573 293 565 275 573 283 b 554 311 573 302 565 311 l 531 311 l 543 376 b 527 397 544 386 537 395 b 506 383 518 400 508 393 l 494 311 l 481 311 b 463 293 470 311 463 302 b 481 275 463 283 470 275 l 554 275 m 262 275 b 280 293 272 275 280 283 b 273 307 280 298 277 302 l 286 376 b 272 397 288 386 281 395 b 251 383 262 400 252 393 l 237 311 l 188 311 b 170 293 179 311 170 302 b 188 275 170 283 179 275 l 262 275 m 293 626 l 288 598 b 304 577 287 588 294 579 l 306 577 b 325 593 315 577 323 583 l 337 664 b 322 686 338 675 333 683 b 301 670 312 687 302 680 l 300 664 l 231 664 b 213 645 222 664 213 655 b 231 626 213 634 222 626 l 293 626 m 548 626 l 544 598 b 559 577 543 588 550 579 l 562 577 b 580 593 570 577 579 583 l 586 626 l 597 626 b 615 645 606 626 615 634 b 597 664 615 655 606 664 l 593 664 b 579 686 594 675 588 683 b 556 670 568 687 559 680 l 555 664 l 525 664 b 505 645 513 664 505 655 b 525 626 505 634 513 626 l 548 626 m 451 626 b 469 645 461 626 469 634 b 451 664 469 655 461 664 l 377 664 b 359 645 368 664 359 655 b 377 626 359 634 368 626 l 451 626 m 743 626 b 762 645 754 626 762 634 b 743 664 762 655 754 664 l 670 664 b 652 645 661 664 652 655 b 670 626 652 634 661 626 l 743 626 m 281 433 b 300 448 290 433 298 440 l 312 520 b 297 541 313 530 306 540 b 276 526 287 543 277 537 l 263 455 b 277 433 261 444 268 436 l 281 433 m 329 722 b 331 720 330 722 330 720 b 350 736 340 720 348 727 l 362 808 b 348 829 365 818 358 827 b 326 815 337 832 329 825 l 313 743 b 329 722 312 733 319 723 m 584 722 b 587 720 586 722 587 720 b 605 736 597 720 604 727 l 619 808 b 604 829 620 818 613 827 b 583 815 594 832 584 825 l 569 743 b 584 722 568 733 575 723 m 613 865 b 631 880 622 865 630 872 l 644 952 b 629 973 645 962 638 972 b 608 958 619 975 609 968 l 595 887 b 609 865 593 876 600 868 l 613 865 m 461 1 b 479 16 469 1 477 8 l 491 88 b 476 109 493 98 487 108 b 455 94 466 111 456 105 l 443 23 b 458 1 441 12 448 4 l 461 1 m 205 1 b 223 16 213 1 222 8 l 236 88 b 220 109 237 98 230 108 b 200 94 211 111 201 105 l 187 23 b 202 1 186 12 191 4 l 205 1 m 537 433 b 555 448 545 433 554 440 l 568 520 b 552 541 569 530 562 540 b 531 526 543 543 533 537 l 519 455 b 534 433 518 444 523 436 l 537 433 m 486 145 b 504 161 495 145 502 151 l 516 233 b 502 254 519 243 512 252 b 480 238 493 255 483 248 l 468 166 b 483 145 466 156 473 147 l 486 145 m 230 145 b 248 161 238 145 247 151 l 261 233 b 247 254 262 243 256 252 b 225 238 236 255 227 248 l 212 166 b 227 145 211 156 218 147 l 230 145 m 701 275 b 719 293 711 275 719 283 b 701 311 719 302 711 311 l 627 311 b 609 293 618 311 609 302 b 627 275 609 283 618 275 l 701 275 m 408 275 b 426 293 418 275 426 283 b 408 311 426 302 418 311 l 336 311 b 316 293 325 311 316 302 b 336 275 316 283 325 275 l 408 275 m 358 865 b 375 880 366 865 373 872 l 388 952 b 373 973 390 962 383 972 b 352 958 363 975 354 968 l 340 887 b 354 865 337 876 344 868 l 358 865 m 159 626 b 177 645 169 626 177 634 b 159 664 177 655 169 664 l 123 664 b 105 645 113 664 105 655 b 123 626 105 634 113 626 l 159 626 m 116 275 b 134 293 126 275 134 283 b 116 311 134 302 126 311 l 80 311 b 62 293 70 311 62 302 b 80 275 62 283 70 275 l 116 275 "},"_":{"x_min":-33.328125,"x_max":188.890625,"ha":833,"o":"m 137 1 l 137 1 l 177 1 l 177 1 b 188 15 184 1 188 6 l 188 15 b 177 30 188 23 184 30 l 137 30 l 137 30 b 127 15 133 30 127 23 l 127 15 b 137 1 127 6 133 1 m 56 1 l 56 1 l 97 1 l 97 1 b 108 15 104 1 108 6 l 108 15 b 97 30 108 23 104 30 l 56 30 l 56 30 b 47 15 52 30 47 23 l 47 15 b 56 1 47 6 52 1 m -23 1 l -23 1 l 16 1 l 16 1 b 27 15 23 1 27 6 l 27 15 b 16 30 27 23 23 30 l -23 30 l -23 30 b -33 15 -27 30 -33 23 l -33 15 b -23 1 -33 6 -27 1 "},"+":{"x_min":88.890625,"x_max":602.78125,"ha":861,"o":"m 327 247 l 327 247 b 344 229 327 238 336 229 l 344 229 b 363 247 355 229 363 238 l 363 284 l 363 284 b 344 302 363 294 355 302 l 344 302 b 327 284 336 302 327 294 l 327 247 m 327 358 l 327 358 b 344 340 327 348 336 340 l 344 340 b 363 358 355 340 363 348 l 363 432 l 363 432 b 344 450 363 441 355 450 l 344 450 b 327 432 336 450 327 441 l 327 358 m 327 504 l 327 504 b 344 487 327 495 336 487 l 344 487 b 363 504 355 487 363 495 l 363 577 l 363 577 b 344 595 363 587 355 595 l 344 595 b 327 577 336 595 327 587 l 327 504 m 327 650 l 327 650 b 344 633 327 641 336 633 l 344 633 b 363 650 355 633 363 641 l 363 725 l 363 725 b 344 743 363 734 355 743 l 344 743 b 327 725 336 743 327 734 l 327 650 m 509 468 l 509 468 l 584 468 l 584 468 b 602 487 594 468 602 476 l 602 487 b 584 504 602 497 594 504 l 509 504 l 509 504 b 491 487 500 504 491 497 l 491 487 b 509 468 491 476 500 468 m 363 468 l 363 468 l 437 468 l 437 468 b 455 487 447 468 455 476 l 455 487 b 437 504 455 497 447 504 l 363 504 l 363 504 b 344 487 354 504 344 497 l 344 487 b 363 468 344 476 354 468 m 216 468 l 216 468 l 291 468 l 291 468 b 309 487 301 468 309 476 l 309 487 b 291 504 309 497 301 504 l 216 504 l 216 504 b 198 487 206 504 198 497 l 198 487 b 216 468 198 476 206 468 m 106 468 l 106 468 l 144 468 l 144 468 b 161 487 154 468 161 476 l 161 487 b 144 504 161 497 154 504 l 106 504 l 106 504 b 88 487 97 504 88 497 l 88 487 b 106 468 88 476 97 468 "},"":{"x_min":0,"x_max":0,"ha":319},")":{"x_min":82.90625,"x_max":402.1875,"ha":597,"o":"m 353 690 b 367 715 363 693 370 704 b 339 793 359 743 349 769 b 313 804 335 804 323 808 b 302 777 302 800 298 787 b 328 704 312 755 320 730 b 348 689 330 695 338 689 b 353 690 349 689 350 690 m 188 -123 b 200 -97 199 -119 205 -108 b 174 -86 196 -87 184 -81 b 103 -98 152 -94 130 -98 b 82 -119 92 -98 82 -108 b 103 -138 82 -130 92 -138 b 188 -123 134 -138 163 -134 m 389 227 b 398 308 393 254 396 280 b 380 330 399 319 391 329 b 357 311 369 330 359 322 b 349 233 356 284 353 258 b 367 211 348 222 356 212 b 370 209 367 209 369 209 b 389 227 380 209 388 218 m 294 839 b 298 866 302 845 305 858 b 237 929 280 891 261 912 b 209 925 229 936 216 933 b 213 895 204 915 205 902 b 265 844 233 883 250 865 b 281 836 269 839 276 836 b 294 839 286 836 290 836 m 402 390 l 402 416 b 400 472 402 434 402 454 b 380 491 400 483 391 491 b 360 470 369 490 360 482 b 362 416 362 452 362 434 l 362 391 b 381 370 362 380 370 370 b 402 390 392 370 402 379 m 350 66 b 374 147 360 91 367 118 b 359 170 377 156 370 168 b 335 155 349 173 338 166 b 313 80 328 129 321 104 b 324 55 309 70 314 59 b 331 54 327 54 330 54 b 350 66 339 54 348 59 m 262 -76 b 314 -8 282 -56 299 -34 b 307 19 320 1 317 12 b 280 11 298 25 287 20 b 234 -47 267 -11 252 -30 b 234 -75 227 -54 225 -68 b 248 -81 238 -79 244 -81 b 262 -76 253 -81 259 -80 m 377 532 b 395 552 388 532 396 543 b 385 634 392 582 389 608 b 362 651 382 645 373 652 b 345 627 350 648 344 638 b 356 550 349 602 353 576 b 375 532 356 538 366 532 l 377 532 m 173 941 b 157 965 175 952 169 962 b 103 972 141 969 121 972 b 82 951 92 972 82 962 b 103 932 82 940 92 932 b 148 926 119 932 134 929 l 153 926 b 173 941 162 926 170 932 "},"'":{"x_min":94.4375,"x_max":163.890625,"ha":319,"o":"m 98 864 b 106 855 98 859 102 855 l 111 855 b 163 932 158 868 163 909 l 163 945 b 162 948 162 945 162 947 b 130 973 158 962 144 973 b 94 937 111 973 94 957 b 130 904 94 919 111 904 l 137 904 b 105 876 133 891 123 880 b 98 864 100 873 95 869 "},"}":{"x_min":75.125,"x_max":590.5,"ha":667,"o":"m 191 930 b 179 957 196 941 190 952 b 96 975 133 972 97 975 b 75 957 85 976 75 968 b 93 934 73 945 82 936 b 114 932 93 934 100 934 b 166 918 128 929 146 925 b 173 916 168 918 171 916 b 191 930 182 916 189 922 m 319 205 b 337 227 330 206 339 216 b 336 248 336 234 336 241 b 345 297 336 265 339 281 b 334 323 350 307 345 318 b 308 312 325 327 312 322 b 296 248 300 291 296 269 b 297 223 296 240 296 231 b 318 205 298 212 307 205 l 319 205 m 352 690 b 357 733 355 705 357 719 b 352 776 357 748 355 762 b 329 793 351 787 340 794 b 312 769 318 790 311 780 b 316 733 315 758 316 745 b 314 695 316 720 315 708 b 330 673 311 684 319 675 b 333 672 332 672 332 672 b 352 690 343 672 351 680 m 314 830 b 319 858 323 836 325 848 b 257 919 301 883 279 904 b 229 914 247 925 235 922 b 235 886 222 904 225 891 b 286 834 254 872 272 855 b 303 826 290 829 296 826 b 314 830 307 826 311 827 m 334 516 b 345 543 345 520 350 533 b 336 591 339 558 336 575 b 337 612 336 598 336 605 b 319 634 339 622 330 633 b 297 616 308 634 298 627 b 296 591 297 608 296 600 b 308 527 296 569 300 548 b 327 515 312 519 319 515 b 334 516 329 515 332 515 m 96 -136 b 179 -116 97 -136 133 -131 b 191 -91 190 -112 196 -101 b 166 -79 189 -80 176 -75 b 114 -91 146 -86 128 -90 l 93 -95 b 75 -116 82 -95 73 -105 b 94 -136 75 -127 85 -136 l 96 -136 m 352 63 b 357 106 355 76 357 91 b 352 150 357 120 355 134 b 330 166 351 161 341 168 b 314 144 319 165 312 155 b 316 106 315 130 316 118 b 312 70 316 94 315 81 b 329 47 311 59 318 48 l 333 47 b 352 63 343 47 351 54 m 390 348 b 457 379 407 359 429 370 b 470 404 468 382 473 393 b 445 416 468 413 457 420 b 366 382 413 408 388 395 b 362 352 358 375 355 362 b 379 344 366 347 372 344 b 390 348 382 344 386 345 m 470 436 b 457 461 473 447 468 458 b 390 491 429 469 407 480 b 362 486 380 498 368 495 b 368 458 355 477 358 465 b 445 422 388 444 413 432 l 451 422 b 470 436 459 422 468 427 m 257 -79 b 319 -18 279 -63 301 -43 b 314 9 325 -9 323 2 b 286 4 305 16 293 13 b 235 -45 272 -15 254 -31 b 229 -73 225 -51 222 -63 b 246 -81 232 -79 239 -81 b 257 -79 248 -81 253 -81 m 533 394 b 572 398 545 397 558 398 b 590 419 583 400 591 408 l 590 420 l 590 422 b 572 440 590 430 583 440 b 533 444 558 441 545 443 b 509 427 522 447 511 438 b 511 419 509 425 509 422 b 509 412 509 416 509 415 b 530 394 511 401 520 394 l 533 394 "},"T":{"x_min":69.4375,"x_max":754.171875,"ha":900,"o":"m 372 882 b 390 864 372 870 379 864 b 408 882 398 864 408 870 l 408 936 l 447 936 b 465 954 456 936 465 945 b 447 972 465 965 456 972 l 393 972 l 390 972 l 375 972 b 356 954 365 972 356 965 b 372 936 356 945 363 937 l 372 882 m 372 305 b 390 287 372 295 379 287 b 408 305 398 287 408 295 l 408 377 b 390 395 408 387 398 395 b 372 377 379 395 372 387 l 372 305 m 372 450 b 390 432 372 438 379 432 b 408 450 398 432 408 438 l 408 522 b 390 540 408 530 398 540 b 372 522 379 540 372 530 l 372 450 m 372 594 b 390 576 372 583 379 576 b 408 594 398 576 408 583 l 408 666 b 390 684 408 675 398 684 b 372 666 379 684 372 675 l 372 594 m 372 18 b 390 0 372 6 379 0 b 408 18 398 0 408 6 l 408 90 b 390 108 408 98 398 108 b 372 90 379 108 372 98 l 372 18 m 736 936 b 754 954 744 936 754 945 b 736 972 754 965 744 972 l 663 972 b 645 954 652 972 645 965 b 663 936 645 945 652 936 l 736 936 m 591 936 b 609 954 600 936 609 945 b 591 972 609 965 600 972 l 519 972 b 501 954 508 972 501 965 b 519 936 501 945 508 936 l 591 936 m 159 936 b 177 954 168 936 177 945 b 159 972 177 965 168 972 l 87 972 b 69 954 76 972 69 965 b 87 936 69 945 76 936 l 159 936 m 372 162 b 390 144 372 151 379 144 b 408 162 398 144 408 151 l 408 234 b 390 251 408 243 398 251 b 372 234 379 251 372 243 l 372 162 m 372 737 b 390 720 372 727 379 720 b 408 737 398 720 408 727 l 408 809 b 390 827 408 819 398 827 b 372 809 379 827 372 819 l 372 737 m 304 936 b 320 954 312 936 320 945 b 304 972 320 965 312 972 l 231 972 b 213 954 220 972 213 965 b 231 936 213 945 220 936 l 304 936 "},"a":{"x_min":55.5625,"x_max":700,"ha":860,"o":"m 347 34 l 347 34 b 283 49 325 38 302 44 b 261 39 275 53 263 48 b 270 17 256 30 262 20 b 343 0 294 8 318 4 b 344 0 343 0 344 0 b 362 14 352 0 359 6 b 347 34 363 26 356 34 m 465 633 b 470 630 466 633 469 630 b 487 642 477 630 484 635 b 476 665 490 651 486 662 b 404 681 452 671 427 677 b 384 663 393 681 386 674 b 400 645 384 655 391 645 b 465 633 423 644 444 638 m 76 281 b 93 301 86 284 94 292 l 93 301 b 90 339 90 313 90 327 b 90 367 90 349 90 359 b 75 387 93 376 86 385 b 55 370 66 387 56 378 b 55 339 55 360 55 349 b 56 296 55 326 55 310 b 75 281 59 288 66 281 b 76 281 75 281 76 281 m 587 556 b 600 562 593 556 597 558 b 600 587 606 569 606 580 b 541 633 583 603 563 619 b 519 626 536 637 525 635 b 525 603 513 619 515 609 b 575 562 541 591 559 577 b 587 556 579 558 583 556 m 583 126 b 533 82 568 109 551 95 b 530 59 526 76 522 66 b 544 49 531 53 538 49 b 552 53 548 49 551 52 b 609 102 575 67 593 82 b 609 127 616 109 616 120 b 583 126 600 134 590 132 m 476 52 b 412 37 454 44 434 38 b 397 14 401 34 395 26 b 415 1 398 6 405 1 b 416 1 415 1 416 1 b 487 19 441 5 465 10 b 498 41 495 21 502 32 b 476 52 495 49 484 56 m 81 420 b 86 420 83 420 86 420 b 102 431 94 420 101 424 b 129 492 109 453 119 474 b 122 519 131 502 130 512 b 97 510 112 521 102 519 b 69 442 86 488 76 466 b 81 420 68 434 73 423 m 105 235 b 86 246 102 245 94 249 b 73 226 75 245 70 234 b 104 157 81 201 93 178 b 119 151 108 152 112 151 b 129 152 122 151 125 151 b 134 177 136 157 138 167 b 105 235 123 194 112 214 m 272 624 b 336 642 291 633 313 638 b 350 663 344 644 351 652 b 330 677 348 671 340 678 b 258 658 304 674 281 667 b 250 633 250 652 244 644 b 265 623 252 628 258 623 b 272 624 268 623 269 624 m 175 124 b 150 124 168 131 156 131 b 148 99 143 117 141 106 b 204 52 165 82 184 64 b 215 48 208 48 211 48 b 229 56 219 48 226 49 b 223 80 234 64 233 74 b 175 124 206 92 188 106 m 165 548 b 215 594 181 564 197 580 b 218 617 222 598 223 609 b 194 621 213 624 202 626 b 138 570 175 606 155 589 b 141 545 134 563 134 553 b 154 542 144 542 148 542 b 165 548 158 542 162 544 m 681 120 b 665 102 672 120 665 113 l 665 32 b 681 14 665 24 672 14 b 700 32 691 14 700 24 l 700 102 b 681 120 700 113 691 120 m 681 260 b 666 252 675 260 670 257 b 650 239 659 252 651 248 b 623 180 643 219 633 199 b 627 155 618 170 620 160 b 636 153 631 153 636 153 b 652 162 644 153 650 157 b 665 185 655 170 662 178 l 665 173 b 681 155 665 163 672 155 b 700 173 691 155 700 163 l 700 242 b 681 260 700 253 691 260 m 681 541 b 665 523 672 541 665 534 l 665 495 b 645 528 659 505 652 519 b 620 534 640 537 629 538 b 616 509 613 528 609 519 l 616 509 b 645 449 627 492 636 470 b 662 439 647 442 654 439 b 669 439 662 439 666 439 b 670 439 669 439 669 439 b 681 435 673 437 677 435 b 700 453 691 435 700 444 l 700 523 b 681 541 700 534 691 541 m 681 401 b 665 383 672 401 665 394 l 665 313 b 681 295 665 303 672 295 b 700 313 691 295 700 303 l 700 383 b 681 401 700 394 691 401 m 681 681 b 665 663 672 681 665 674 l 665 594 b 681 576 665 584 672 576 b 700 594 691 576 700 584 l 700 663 b 681 681 700 674 691 681 "},"=":{"x_min":109.71875,"x_max":616.671875,"ha":861,"o":"m 526 326 l 526 326 l 598 326 l 598 326 b 616 344 609 326 616 336 l 616 344 b 598 362 616 355 609 362 l 526 362 l 526 362 b 508 344 516 362 508 355 l 508 344 b 526 326 508 336 516 326 m 380 326 l 380 326 l 452 326 l 452 326 b 472 344 463 326 472 336 l 472 344 b 452 362 472 355 463 362 l 380 362 l 380 362 b 363 344 372 362 363 355 l 363 344 b 380 326 363 336 372 326 m 236 326 l 236 326 l 308 326 l 308 326 b 326 344 319 326 326 336 l 326 344 b 308 362 326 355 319 362 l 236 362 l 236 362 b 218 344 227 362 218 355 l 218 344 b 236 326 218 336 227 326 m 127 326 l 127 326 l 163 326 l 163 326 b 181 344 175 326 181 336 l 181 344 b 163 362 181 355 175 362 l 127 362 l 127 362 b 109 344 119 362 109 355 l 109 344 b 127 326 109 336 119 326 m 526 611 l 526 611 l 598 611 l 598 611 b 616 627 609 611 616 618 l 616 627 b 598 647 616 637 609 647 l 526 647 l 526 647 b 508 627 516 647 508 637 l 508 627 b 526 611 508 618 516 611 m 380 611 l 380 611 l 452 611 l 452 611 b 472 627 463 611 472 618 l 472 627 b 452 647 472 637 463 647 l 380 647 l 380 647 b 363 627 372 647 363 637 l 363 627 b 380 611 363 618 372 611 m 236 611 l 236 611 l 308 611 l 308 611 b 326 627 319 611 326 618 l 326 627 b 308 647 326 637 319 647 l 236 647 l 236 647 b 218 627 227 647 218 637 l 218 627 b 236 611 218 618 227 611 m 127 611 l 127 611 l 163 611 l 163 611 b 181 627 175 611 181 618 l 181 627 b 163 647 181 637 175 647 l 127 647 l 127 647 b 109 627 119 647 109 637 l 109 627 b 127 611 109 618 119 611 "},"N":{"x_min":145.078125,"x_max":858.984375,"ha":1071,"o":"m 189 886 b 203 879 192 880 197 879 b 214 880 207 879 211 879 b 218 905 222 887 224 898 l 177 964 b 152 966 171 971 161 972 b 145 953 147 962 145 958 l 145 947 l 145 878 b 163 859 145 868 154 859 b 181 878 174 859 181 868 l 181 897 l 189 886 m 822 7 b 838 0 825 2 831 0 b 846 2 842 0 845 0 b 854 21 853 7 856 14 b 858 34 857 25 858 29 l 858 104 b 842 121 858 114 852 121 b 824 104 832 121 824 114 l 824 57 b 810 54 820 59 814 57 b 806 31 803 49 800 38 l 822 7 m 145 174 b 163 157 145 165 154 157 b 181 174 174 157 181 165 l 181 245 b 163 263 181 256 174 263 b 145 245 154 263 145 256 l 145 174 m 145 736 b 163 719 145 728 154 719 b 181 736 174 719 181 728 l 181 807 b 163 825 181 818 174 825 b 145 807 154 825 145 818 l 145 736 m 145 315 b 163 297 145 306 154 297 b 181 315 174 297 181 306 l 181 385 b 163 403 181 396 174 403 b 145 385 154 403 145 396 l 145 315 m 145 34 b 163 15 145 25 154 15 b 181 34 174 15 181 25 l 181 104 b 163 121 181 114 174 121 b 145 104 154 121 145 114 l 145 34 m 145 596 b 163 578 145 587 154 578 b 181 596 174 578 181 587 l 181 666 b 163 683 181 676 174 683 b 145 666 154 683 145 676 l 145 596 m 145 455 b 163 437 145 447 154 437 b 181 455 174 437 181 447 l 181 525 b 163 543 181 536 174 543 b 145 525 154 543 145 536 l 145 455 m 354 657 b 368 650 357 653 363 650 b 379 654 372 650 375 650 b 382 679 386 659 388 669 l 342 734 b 317 739 335 743 324 746 b 313 714 308 733 307 722 l 354 657 m 436 543 b 452 536 440 537 446 536 b 461 540 454 536 458 536 b 465 564 468 544 470 555 l 422 621 b 400 623 417 629 407 630 b 395 600 390 619 389 608 l 436 543 m 271 772 b 286 765 275 766 281 765 b 296 768 289 765 293 765 b 300 791 304 773 307 784 l 260 848 b 235 853 254 855 242 858 b 231 828 228 847 225 837 l 271 772 m 683 200 b 697 193 686 197 692 193 b 707 197 700 193 704 196 b 711 221 714 203 717 213 l 671 278 b 646 284 664 286 653 289 b 642 259 638 277 635 265 l 683 200 m 824 174 b 842 157 824 165 832 157 b 858 174 852 157 858 165 l 858 245 b 842 263 858 256 852 263 b 824 245 832 263 824 256 l 824 174 m 824 736 b 842 719 824 728 832 719 b 858 736 852 719 858 728 l 858 807 b 842 825 858 818 852 825 b 824 807 832 825 824 818 l 824 736 m 518 429 b 532 422 521 423 527 422 b 542 425 538 422 540 423 b 547 450 552 430 553 441 l 506 507 b 481 509 500 515 489 516 b 478 487 474 504 472 494 l 518 429 m 824 315 b 842 297 824 306 832 297 b 858 315 852 297 858 306 l 858 385 b 842 403 858 396 852 403 b 824 385 832 403 824 396 l 824 315 m 824 878 b 842 859 824 868 832 859 b 858 878 852 859 858 868 l 858 947 b 842 965 858 958 852 965 b 824 947 832 965 824 958 l 824 878 m 824 596 b 842 578 824 587 832 578 b 858 596 852 578 858 587 l 858 666 b 842 683 858 676 852 683 b 824 666 832 683 824 676 l 824 596 m 824 455 b 842 437 824 447 832 437 b 858 455 852 437 858 447 l 858 525 b 842 543 858 536 852 543 b 824 525 832 543 824 536 l 824 455 m 765 86 b 779 79 770 82 774 79 b 790 82 783 79 786 81 b 793 107 797 88 799 100 l 752 164 b 729 170 746 172 736 174 b 724 145 720 164 718 152 l 765 86 m 600 315 b 614 308 604 310 608 308 b 625 311 618 308 621 310 b 628 336 633 317 635 326 l 588 391 b 564 397 582 401 571 403 b 560 372 556 390 554 379 l 600 315 "},"2":{"x_min":62.65625,"x_max":661.109375,"ha":819,"o":"m 529 868 b 541 865 531 866 536 865 b 552 870 545 865 550 866 b 551 897 559 879 559 890 b 490 937 531 912 512 926 b 466 930 481 941 470 939 b 473 905 462 920 465 911 b 529 868 493 897 512 884 m 641 613 b 658 629 650 613 656 620 b 661 661 658 640 661 650 b 656 702 661 675 658 689 b 637 719 655 714 647 720 b 622 700 627 716 620 708 b 625 661 623 686 625 673 b 623 633 625 652 623 641 b 638 613 622 623 629 615 l 641 613 m 604 762 b 622 751 608 755 615 751 b 627 752 623 751 625 752 b 637 775 637 755 641 766 b 602 840 629 798 616 820 b 577 845 597 848 584 851 b 575 820 569 839 568 827 b 604 762 586 801 597 782 m 416 927 b 433 941 425 927 431 933 b 420 964 436 951 430 961 b 350 972 397 968 372 972 l 347 972 b 330 954 337 972 330 964 b 347 937 330 944 337 937 l 350 937 b 412 927 370 937 391 933 l 416 927 m 584 484 b 594 482 588 483 590 482 b 609 490 601 482 605 484 b 641 557 623 511 634 534 b 630 577 644 566 641 576 b 609 568 622 582 611 577 b 579 509 601 548 591 527 b 584 484 575 501 576 490 m 275 198 b 287 193 279 195 284 193 b 300 197 293 193 297 193 l 352 244 b 352 269 359 251 359 262 b 327 270 347 276 334 276 l 277 223 b 275 198 270 216 268 205 m 379 293 b 393 286 383 288 387 286 b 404 291 397 286 402 288 l 456 338 b 458 363 463 344 463 357 b 433 363 451 370 440 370 l 380 318 b 379 293 373 311 373 300 m 502 0 b 519 18 511 0 519 8 b 502 34 519 27 511 34 l 431 34 b 413 18 420 34 413 27 b 431 0 413 8 420 0 l 502 0 m 220 0 b 238 18 230 0 238 8 b 220 34 238 27 230 34 l 151 34 b 133 18 140 34 133 27 b 151 0 133 8 140 0 l 220 0 m 361 0 b 379 18 370 0 379 8 b 361 34 379 27 370 34 l 291 34 b 273 18 280 34 273 27 b 291 0 273 8 280 0 l 361 0 m 643 0 b 661 18 651 0 661 8 b 643 34 661 27 651 34 l 572 34 b 555 18 562 34 555 27 b 572 0 555 8 562 0 l 643 0 m 172 104 b 184 98 175 100 179 98 b 195 101 188 98 193 100 l 247 150 b 248 173 256 156 256 166 b 225 176 241 180 231 183 l 172 127 b 172 104 165 123 165 111 m 66 8 b 80 4 69 5 75 4 b 93 8 83 4 88 5 l 143 56 b 145 80 151 61 152 73 b 120 80 138 87 127 87 l 68 34 b 66 8 61 27 61 15 m 484 386 b 497 382 488 383 491 382 b 509 386 500 382 505 383 l 556 430 b 559 432 558 430 559 432 b 562 458 569 438 569 451 b 537 458 555 465 544 465 b 534 455 536 458 536 457 l 484 411 b 484 386 477 405 477 394 m 195 912 b 212 904 200 905 205 904 b 219 905 213 904 218 904 b 281 927 240 915 259 923 b 294 950 291 930 297 940 b 273 961 291 959 281 965 b 204 934 248 957 226 947 b 195 912 194 932 191 920 m 88 820 b 101 815 93 818 98 815 b 113 820 106 815 109 818 l 162 865 b 166 866 165 865 165 866 b 166 891 173 873 173 884 b 141 893 161 900 148 900 l 140 891 l 91 845 b 88 820 83 840 81 827 "},"j":{"x_min":-6.9375,"x_max":120.828125,"ha":346,"o":"m 86 852 l 86 852 b 102 834 86 844 94 834 l 102 834 b 120 852 115 834 120 844 l 120 887 l 120 887 b 102 904 120 897 115 904 l 102 904 b 86 887 94 904 86 897 l 86 852 m -6 -283 l -6 -283 b 9 -300 -6 -293 1 -300 l 9 -300 b 13 -300 12 -300 12 -300 l 13 -300 b 30 -283 23 -300 30 -291 l 30 -283 b 12 -263 30 -270 23 -263 l 12 -263 b 9 -263 12 -263 9 -263 l 9 -263 b -6 -283 1 -263 -6 -272 m 65 -265 l 65 -265 b 76 -270 68 -269 72 -270 l 76 -270 b 88 -265 80 -270 86 -269 l 88 -265 b 118 -194 105 -247 118 -220 l 118 -190 l 118 -190 b 98 -171 118 -177 111 -171 l 98 -171 b 81 -190 90 -171 81 -177 l 81 -194 l 81 -194 b 63 -241 81 -210 75 -227 l 63 -241 b 65 -265 56 -248 56 -261 m 81 -117 l 81 -117 b 98 -135 81 -125 90 -135 l 98 -135 b 118 -117 111 -135 118 -125 l 118 -47 l 118 -47 b 98 -28 118 -35 111 -28 l 98 -28 b 81 -47 90 -28 81 -35 l 81 -117 m 81 25 l 81 25 b 98 9 81 17 90 9 l 98 9 b 118 25 111 9 118 17 l 118 98 l 118 98 b 98 115 118 108 111 115 l 98 115 b 81 98 90 115 81 108 l 81 25 m 81 168 l 81 168 b 98 151 81 159 90 151 l 98 151 b 118 168 111 151 118 159 l 118 240 l 118 240 b 98 258 118 251 111 258 l 98 258 b 81 240 90 258 81 251 l 81 168 m 81 311 l 81 311 b 98 293 81 303 90 293 l 98 293 b 118 311 111 293 118 303 l 118 383 l 118 383 b 98 400 118 393 111 400 l 98 400 b 81 383 90 400 81 393 l 81 311 m 81 453 l 81 453 b 98 436 81 445 90 436 l 98 436 b 118 453 111 436 118 445 l 118 526 l 118 526 b 98 542 118 535 111 542 l 98 542 b 81 526 90 542 81 535 l 81 453 m 81 595 l 81 595 b 98 578 81 587 90 578 l 98 578 b 118 595 111 578 118 587 l 118 669 l 118 669 b 98 687 118 680 111 687 l 98 687 b 81 669 90 687 81 680 l 81 595 "},"Z":{"x_min":101.546875,"x_max":821.28125,"ha":926,"o":"m 772 911 b 782 907 775 908 779 907 b 797 914 787 907 793 911 l 818 941 b 821 950 819 944 821 947 l 821 952 l 821 955 b 804 970 819 965 811 970 l 733 970 b 715 952 722 970 715 964 b 733 934 715 944 722 934 l 768 934 b 772 911 762 927 765 918 m 242 934 b 258 952 250 934 258 944 b 242 970 258 964 250 970 l 171 970 b 153 952 160 970 153 964 b 171 934 153 944 160 934 l 242 934 m 663 934 b 681 952 672 934 681 944 b 663 970 681 964 672 970 l 593 970 b 575 952 582 970 575 964 b 593 934 575 944 582 934 l 663 934 m 522 934 b 541 952 531 934 541 944 b 522 970 541 964 531 970 l 451 970 b 435 952 442 970 435 964 b 451 934 435 944 442 934 l 522 934 m 442 457 b 450 454 443 455 447 454 b 467 461 457 454 462 455 l 507 516 b 503 541 511 525 510 536 b 478 537 496 548 483 547 l 436 482 b 442 457 430 473 433 462 m 608 683 b 617 680 610 682 615 680 b 633 687 623 680 629 683 l 675 745 b 669 769 680 752 677 762 b 644 765 662 775 651 773 l 603 708 b 608 683 598 701 601 689 m 381 934 b 398 952 390 934 398 944 b 381 970 398 964 390 970 l 311 970 b 294 952 301 970 294 964 b 311 934 294 944 301 934 l 381 934 m 356 343 b 367 338 360 341 363 338 b 381 345 371 338 377 343 l 423 404 b 421 429 429 411 428 423 b 395 425 411 434 401 432 l 353 368 b 356 343 348 359 349 350 m 275 230 b 285 226 278 226 282 226 b 298 233 290 226 296 229 l 341 290 b 337 315 345 298 343 309 b 312 311 328 319 317 318 l 271 255 b 275 230 265 245 268 236 m 192 116 b 203 112 196 113 199 112 b 217 119 207 112 212 116 l 258 177 b 253 202 264 184 263 195 b 229 197 246 206 236 205 l 189 140 b 192 116 183 133 183 120 m 524 569 b 535 568 528 568 531 568 b 549 575 541 568 546 569 l 589 630 b 587 655 596 637 595 650 b 562 652 580 661 567 659 l 521 594 b 524 569 514 587 515 576 m 242 0 b 258 18 250 0 258 6 b 242 34 258 26 250 34 l 171 34 b 153 18 160 34 153 26 b 171 0 153 6 160 0 l 242 0 m 804 0 b 821 18 812 0 821 6 b 804 34 821 26 812 34 l 733 34 b 715 18 722 34 715 26 b 733 0 715 6 722 0 l 804 0 m 663 0 b 681 18 672 0 681 6 b 663 34 681 26 672 34 l 593 34 b 575 18 582 34 575 26 b 593 0 575 6 582 0 l 663 0 m 522 0 b 541 18 531 0 541 6 b 522 34 541 26 531 34 l 451 34 b 435 18 442 34 435 26 b 451 0 435 6 442 0 l 522 0 m 689 798 b 700 794 693 794 696 794 b 714 801 706 794 711 795 l 756 858 b 753 882 761 866 760 877 b 728 879 744 887 733 886 l 686 822 b 689 798 681 814 682 802 m 110 4 b 119 0 112 0 117 0 b 133 6 125 0 130 1 l 173 63 b 171 87 180 70 179 81 b 146 84 164 93 151 91 l 105 27 b 110 4 98 19 100 8 m 381 0 b 398 18 390 0 398 6 b 381 34 398 26 390 34 l 311 34 b 294 18 301 34 294 26 b 311 0 294 6 301 0 l 381 0 "},"u":{"x_min":115.375,"x_max":663.984375,"ha":851,"o":"m 395 15 l 395 15 b 413 0 395 6 405 0 l 413 0 b 415 0 413 0 413 0 l 415 0 b 486 18 440 4 463 8 l 486 18 b 497 40 495 20 501 30 l 497 40 b 475 50 493 48 483 54 l 475 50 b 412 34 455 41 434 37 l 412 34 b 395 15 401 34 394 26 m 340 4 l 340 4 b 344 4 341 4 341 4 l 344 4 b 361 18 352 4 359 8 l 361 18 b 347 37 363 27 357 37 l 347 37 b 284 56 325 41 304 48 l 284 56 b 262 50 276 63 266 59 l 262 50 b 270 26 258 41 262 30 l 270 26 b 340 4 291 15 315 8 m 529 56 l 529 56 b 543 50 532 52 537 50 l 543 50 b 554 54 545 50 550 50 l 554 54 b 605 105 572 68 590 86 l 605 105 b 602 131 611 113 611 123 l 602 131 b 577 127 595 136 584 134 l 577 127 b 532 81 565 109 550 94 l 532 81 b 529 56 523 75 522 63 m 208 68 l 208 68 b 220 63 211 63 216 63 l 220 63 b 232 69 225 63 229 66 l 232 69 b 232 94 238 76 238 87 l 232 94 b 188 143 213 108 201 125 l 188 143 b 163 148 183 151 172 154 l 163 148 b 159 123 157 143 152 131 l 159 123 b 208 68 172 102 190 83 m 619 161 l 619 161 b 626 158 622 158 625 158 l 626 158 b 641 169 633 158 640 162 l 641 169 b 661 241 652 191 658 216 l 661 241 b 645 261 661 251 655 259 l 645 261 b 626 245 637 261 629 254 l 626 245 l 626 245 b 611 183 622 223 618 202 l 611 183 b 619 161 607 173 611 163 m 127 191 l 127 191 b 145 180 130 183 137 180 l 145 180 b 150 180 145 180 148 180 l 150 180 b 161 202 159 183 163 191 l 161 202 b 150 265 155 222 152 244 l 150 265 b 133 283 150 276 143 283 l 133 283 b 115 265 122 283 115 273 l 115 265 b 127 191 116 238 120 215 m 629 313 l 629 313 b 645 297 629 302 636 297 l 645 297 b 663 313 655 297 663 302 l 663 384 l 663 384 b 645 401 663 393 655 401 l 645 401 b 629 384 636 401 629 393 l 629 313 m 115 336 l 115 336 b 133 318 115 326 123 318 l 133 318 b 150 336 143 318 150 326 l 150 404 l 150 404 b 133 422 150 415 143 422 l 133 422 b 115 404 123 422 115 415 l 115 336 m 629 454 l 629 454 b 645 436 629 443 636 436 l 645 436 b 663 454 655 436 663 443 l 663 523 l 663 523 b 645 540 663 532 655 540 l 645 540 b 629 523 636 540 629 532 l 629 454 m 115 475 l 115 475 b 133 457 115 465 123 457 l 133 457 b 150 475 143 457 150 465 l 150 544 l 150 544 b 133 562 150 555 143 562 l 133 562 b 115 544 123 562 115 555 l 115 475 m 629 593 l 629 593 b 645 576 629 582 636 576 l 645 576 b 663 593 655 576 663 582 l 663 664 l 663 664 b 645 680 663 672 655 680 l 645 680 b 629 664 636 680 629 672 l 629 593 m 115 615 l 115 615 b 133 597 115 605 123 597 l 133 597 b 150 615 143 597 150 605 l 150 664 l 150 664 b 133 680 150 672 143 680 l 133 680 b 115 664 123 680 115 672 l 115 615 "},"1":{"x_min":44.6875,"x_max":266.671875,"ha":465,"o":"m 230 880 b 248 862 230 869 238 862 b 266 880 259 862 266 869 l 266 952 b 248 970 266 961 259 970 b 234 964 243 970 238 968 l 177 930 b 170 905 169 925 165 915 b 187 897 175 900 180 897 b 195 900 188 897 193 898 l 230 920 l 230 880 m 230 18 b 248 0 230 6 238 0 b 266 18 259 0 266 6 l 266 90 b 248 108 266 98 259 108 b 230 90 238 108 230 98 l 230 18 m 230 593 b 248 575 230 582 238 575 b 266 593 259 575 266 582 l 266 665 b 248 683 266 673 259 683 b 230 665 238 683 230 673 l 230 593 m 230 305 b 248 287 230 294 238 287 b 266 305 259 287 266 294 l 266 377 b 248 395 266 386 259 395 b 230 377 238 395 230 386 l 230 305 m 230 448 b 248 432 230 438 238 432 b 266 448 259 432 266 438 l 266 520 b 248 538 266 530 259 538 b 230 520 238 538 230 530 l 230 448 m 230 161 b 248 144 230 151 238 144 b 266 161 259 144 266 151 l 266 233 b 248 251 266 243 259 251 b 230 233 238 251 230 243 l 230 161 m 230 736 b 248 719 230 726 238 719 b 266 736 259 719 266 726 l 266 808 b 248 826 266 818 259 826 b 230 808 238 826 230 818 l 230 736 m 47 832 b 63 823 50 826 55 823 b 72 826 66 823 68 825 l 133 862 b 140 887 141 868 145 879 b 115 893 134 897 125 898 l 54 857 b 47 832 45 851 41 841 "},"":{"x_min":147.09375,"x_max":580.28125,"ha":694,"o":"m 408 890 b 411 889 409 889 409 889 b 418 894 413 889 416 891 b 413 905 420 898 418 904 b 386 918 404 908 394 914 b 375 915 381 920 377 919 b 377 904 372 912 373 907 b 408 890 387 898 398 893 m 350 923 b 355 922 352 922 354 922 b 361 925 358 922 361 923 b 359 936 365 929 362 934 b 330 952 350 943 338 948 b 319 948 325 952 320 951 b 323 937 318 944 319 939 b 350 923 331 933 341 929 m 295 945 b 304 952 300 945 304 948 b 297 962 304 957 301 961 b 275 964 290 962 281 964 b 263 962 270 964 266 964 b 256 954 259 962 255 959 b 263 947 256 950 259 945 l 275 947 b 294 945 281 947 287 947 l 295 945 m 440 882 b 462 879 447 880 455 879 l 463 879 b 475 880 466 879 470 880 b 481 889 477 880 481 884 b 473 895 480 893 477 895 l 463 895 b 443 897 456 895 450 895 b 433 890 438 898 434 894 b 440 882 433 886 436 882 m 497 891 b 505 886 498 889 501 886 b 508 887 506 886 506 887 b 537 902 518 891 529 895 b 540 914 541 905 541 911 b 529 915 537 918 531 918 b 502 902 520 909 511 905 b 497 891 497 900 495 895 m 197 930 b 204 926 197 929 201 926 b 206 929 204 926 206 927 b 234 940 215 933 225 937 b 240 951 240 941 241 947 b 230 957 238 955 234 957 b 200 941 219 952 208 947 b 197 930 195 940 194 936 m 551 926 b 555 925 552 925 554 925 b 562 926 558 925 561 925 b 579 957 568 936 575 945 b 575 968 581 961 579 965 b 563 962 570 969 566 966 b 550 937 561 952 555 944 b 551 926 545 933 547 929 m 150 887 b 155 884 151 886 154 884 b 161 889 158 884 159 886 b 166 894 161 889 162 891 b 181 909 170 898 175 904 b 183 922 186 914 186 918 b 172 922 180 925 175 925 l 148 898 b 150 887 145 894 147 889 "},"k":{"x_min":129.171875,"x_max":640.140625,"ha":778,"o":"m 129 180 b 147 163 129 170 136 163 b 163 180 155 163 163 170 l 163 184 b 168 187 165 184 166 186 l 216 238 b 216 263 223 244 223 256 b 193 263 209 270 200 270 l 163 233 l 163 251 b 147 269 163 259 155 269 b 129 251 136 269 129 259 l 129 180 m 550 80 b 561 73 552 75 556 73 b 573 77 565 73 570 75 b 576 104 580 84 580 94 l 531 156 b 505 159 525 165 513 165 b 504 134 498 152 498 143 l 550 80 m 369 297 b 381 291 373 293 379 291 b 394 295 387 291 391 291 b 395 319 401 300 402 312 l 352 375 b 327 376 345 382 334 383 b 325 351 319 370 319 358 l 369 297 m 440 487 b 452 482 444 483 448 482 b 466 487 458 482 463 483 l 515 536 b 515 561 523 543 523 554 b 491 561 508 568 498 568 l 440 511 b 440 487 433 504 433 494 m 341 386 b 354 382 345 383 348 382 b 366 386 358 382 362 383 l 415 437 b 415 462 422 444 422 455 b 391 462 408 469 398 469 l 341 411 b 341 386 334 405 334 394 m 129 462 b 147 444 129 451 136 444 b 163 462 155 444 163 451 l 163 533 b 147 550 163 541 155 550 b 129 533 136 550 129 541 l 129 462 m 129 884 b 147 866 129 873 136 866 b 163 884 155 866 163 873 l 163 954 b 147 972 163 964 155 972 b 129 954 136 972 129 964 l 129 884 m 129 322 b 147 304 129 311 136 304 b 163 322 155 304 163 311 l 163 391 b 147 409 163 401 155 409 b 129 391 136 409 129 401 l 129 322 m 129 40 b 147 22 129 30 136 22 b 163 40 155 22 163 30 l 163 111 b 147 127 163 119 155 127 b 129 111 136 127 129 119 l 129 40 m 129 743 b 147 726 129 733 136 726 b 163 743 155 726 163 733 l 163 814 b 147 832 163 822 155 832 b 129 814 136 832 129 822 l 129 743 m 241 288 b 254 283 245 284 250 283 b 266 288 259 283 262 284 l 316 337 b 316 362 325 344 325 355 b 293 362 309 369 298 369 l 241 312 b 241 288 234 305 234 295 m 540 587 b 552 582 544 583 547 582 b 565 587 558 582 561 583 l 613 636 b 613 661 620 643 620 654 b 590 661 606 668 597 668 l 540 612 b 540 587 533 604 533 593 m 459 190 b 472 183 463 184 466 183 b 484 186 477 183 480 184 b 486 211 491 193 493 204 l 441 265 b 418 266 434 272 425 273 b 413 243 408 262 408 251 l 459 190 m 129 602 b 147 586 129 593 136 586 b 163 602 155 586 163 593 l 163 673 b 147 690 163 682 155 690 b 129 673 136 690 129 682 l 129 602 m 609 6 b 623 0 612 4 618 0 b 633 5 626 0 630 1 b 636 30 640 11 643 20 l 619 48 b 594 51 613 56 604 58 b 593 26 587 44 586 33 l 609 6 "},"<":{"x_min":85.421875,"x_max":534.421875,"ha":861,"o":"m 91 523 l 91 523 b 105 516 95 519 101 516 l 105 516 b 120 523 112 516 116 519 l 179 582 l 179 582 b 179 612 186 588 186 604 l 179 612 b 150 612 170 620 158 618 l 91 552 l 91 552 b 91 523 83 544 83 532 m 206 641 l 206 641 b 222 634 211 637 218 634 l 222 634 b 238 641 227 634 234 637 l 295 698 l 295 698 b 295 727 304 707 304 722 l 295 727 b 268 727 287 736 273 736 l 206 670 l 206 670 b 206 641 201 662 201 650 m 325 759 l 325 759 b 340 752 329 755 333 752 l 340 752 b 354 759 344 752 350 755 l 412 816 l 412 816 b 412 845 420 825 420 837 l 412 845 b 383 845 404 854 391 854 l 325 787 l 325 787 b 325 759 316 779 316 765 m 441 875 l 441 875 b 455 869 445 870 451 869 l 455 869 b 470 875 462 869 466 870 l 530 934 l 530 934 b 527 964 536 943 536 955 l 527 964 b 498 964 522 972 506 972 l 441 905 l 441 905 b 441 875 433 897 433 883 m 498 5 l 498 5 b 513 0 502 1 509 0 l 513 0 b 527 5 519 0 526 1 l 527 5 b 530 34 536 13 536 26 l 470 95 l 470 95 b 441 95 462 102 450 102 l 441 95 b 441 66 433 87 433 72 l 498 5 m 383 123 l 383 123 b 397 118 387 119 391 118 l 397 118 b 412 123 404 118 408 119 l 412 123 b 412 152 420 131 420 144 l 354 211 l 354 211 b 325 211 345 219 333 219 l 325 211 b 325 181 316 204 316 190 l 383 123 m 268 241 l 268 241 b 281 236 272 237 276 236 l 281 236 b 295 241 286 236 291 237 l 295 241 b 295 270 304 250 304 262 l 238 329 l 238 329 b 206 329 230 337 215 337 l 206 329 b 206 300 201 320 201 308 l 268 241 m 150 358 l 150 358 b 163 354 154 355 159 354 l 163 354 b 179 358 170 354 175 355 l 179 358 b 179 388 186 366 186 380 l 120 447 l 120 447 b 91 447 112 455 100 455 l 91 447 b 91 418 83 438 83 426 l 150 358 "},"t":{"x_min":58.328125,"x_max":330.5625,"ha":556,"o":"m 243 647 l 243 647 l 312 647 l 312 647 b 330 663 322 647 330 654 l 330 663 b 312 681 330 673 322 681 l 243 681 l 243 681 b 225 663 233 681 225 673 l 225 663 b 243 647 225 654 233 647 m 76 647 l 76 647 l 145 647 l 145 647 b 163 663 155 647 163 654 l 163 663 b 145 681 163 673 155 681 l 76 681 l 76 681 b 58 663 66 681 58 673 l 58 663 b 76 647 58 654 66 647 m 280 -2 l 280 -2 b 283 -2 280 -2 281 -2 l 283 -2 b 300 14 293 -2 300 4 l 300 14 b 283 32 300 24 293 32 l 283 32 b 280 32 281 32 281 32 l 280 32 b 262 16 270 32 262 25 l 262 16 b 280 -2 262 6 270 -2 m 205 31 l 205 31 b 218 25 208 27 213 25 l 218 25 b 230 29 222 25 226 27 l 230 29 b 230 54 237 36 237 48 l 230 54 b 212 103 219 67 212 85 l 212 107 l 212 107 b 194 125 212 117 204 125 l 194 125 b 176 107 184 125 176 117 l 176 103 l 176 103 b 205 31 176 75 187 50 m 176 178 l 176 178 b 194 160 176 168 184 160 l 194 160 b 212 178 204 160 212 168 l 212 248 l 212 248 b 194 266 212 257 204 266 l 194 266 b 176 248 184 266 176 257 l 176 178 m 176 319 l 176 319 b 194 301 176 309 184 301 l 194 301 b 212 319 204 301 212 309 l 212 389 l 212 389 b 194 406 212 399 204 406 l 194 406 b 176 389 184 406 176 399 l 176 319 m 176 459 l 176 459 b 194 442 176 449 184 442 l 194 442 b 212 459 204 442 212 449 l 212 530 l 212 530 b 194 548 212 540 204 548 l 194 548 b 176 530 184 548 176 540 l 176 459 m 176 601 l 176 601 b 194 583 176 591 184 583 l 194 583 b 212 601 204 583 212 591 l 212 670 l 212 670 b 194 688 212 680 204 688 l 194 688 b 176 670 184 688 176 680 l 176 601 m 176 741 l 176 741 b 194 723 176 731 184 723 l 194 723 b 212 741 204 723 212 731 l 212 812 l 212 812 b 194 829 212 822 204 829 l 194 829 b 176 812 184 829 176 822 l 176 741 m 176 882 l 176 882 b 194 865 176 872 184 865 l 194 865 b 212 882 204 865 212 872 l 212 952 l 212 952 b 194 970 212 962 204 970 l 194 970 b 176 952 184 970 176 962 l 176 882 "},"W":{"x_min":86.078125,"x_max":1492.515625,"ha":1531,"o":"m 802 630 b 818 620 805 623 811 620 b 825 622 822 620 823 620 b 836 645 834 626 838 636 l 808 709 b 791 719 805 716 798 719 b 770 709 783 722 773 718 l 743 645 b 752 622 738 636 744 626 b 759 620 755 620 756 620 b 776 630 766 620 772 623 l 788 662 l 802 630 m 856 501 b 872 490 859 494 865 490 b 879 491 876 490 877 490 b 890 515 888 495 894 507 l 862 580 b 838 588 858 588 848 593 b 830 566 830 586 825 575 l 856 501 m 333 362 b 348 351 336 357 341 351 b 355 352 352 351 354 352 b 366 376 365 357 369 368 l 338 441 b 315 450 334 450 323 455 b 306 427 306 447 301 436 l 333 362 m 1222 352 b 1229 351 1225 352 1226 351 b 1245 362 1236 351 1241 357 l 1272 427 b 1262 450 1276 436 1272 447 b 1240 441 1254 455 1243 450 l 1212 376 b 1222 352 1208 368 1213 357 m 1113 94 b 1120 93 1115 93 1116 93 b 1136 104 1126 93 1133 97 l 1162 169 b 1154 191 1166 177 1162 187 b 1130 183 1145 195 1134 191 l 1102 118 b 1113 94 1100 108 1104 98 m 169 752 b 184 741 173 745 177 741 l 191 741 b 201 765 201 745 206 755 l 175 829 b 151 840 170 839 161 844 b 141 815 143 834 137 826 l 169 752 m 441 104 b 458 93 445 97 452 93 b 465 94 461 93 462 93 b 475 118 473 98 479 108 l 447 183 b 425 191 443 191 433 195 b 415 169 415 187 412 177 l 441 104 m 644 362 b 651 359 645 362 647 359 b 666 370 656 359 663 365 l 693 436 b 684 458 697 444 693 455 b 661 450 676 463 665 458 l 633 384 b 644 362 630 376 634 365 m 223 622 b 240 612 227 615 233 612 b 247 613 243 612 244 612 b 255 636 255 616 261 627 l 229 701 b 206 709 226 709 215 714 b 195 687 197 707 191 695 l 223 622 m 1276 483 b 1284 482 1279 482 1280 482 b 1300 491 1291 482 1295 484 l 1326 557 b 1318 580 1331 566 1326 576 b 1294 570 1308 583 1298 580 l 1268 507 b 1276 483 1262 497 1268 487 m 534 104 b 540 101 537 101 538 101 b 558 112 547 101 554 105 l 584 177 b 575 200 587 186 584 197 b 552 191 566 204 556 200 l 525 126 b 534 104 520 118 526 106 m 1331 613 b 1338 612 1333 612 1334 612 b 1354 622 1345 612 1351 615 l 1381 687 b 1372 709 1386 695 1380 707 b 1348 701 1363 714 1352 709 l 1322 636 b 1331 613 1318 627 1322 616 m 911 370 b 927 359 915 365 922 359 b 934 362 930 359 931 362 b 944 384 943 365 948 376 l 916 450 b 894 458 912 458 902 463 b 884 436 884 455 881 444 l 911 370 m 115 880 b 130 870 118 875 123 870 b 137 872 131 870 136 870 b 147 894 147 875 150 886 l 120 959 b 97 968 116 968 105 972 b 87 945 88 965 83 954 l 115 880 m 1440 872 b 1447 870 1441 870 1445 870 b 1463 880 1454 870 1459 875 l 1491 945 b 1480 968 1494 954 1490 965 b 1458 959 1472 972 1461 968 l 1431 894 b 1440 872 1427 886 1431 875 m 597 231 b 612 243 601 231 608 236 l 638 308 b 630 330 643 316 638 326 b 606 319 620 334 611 329 l 579 256 b 590 231 575 245 580 237 l 597 231 m 387 233 b 402 223 391 226 395 223 l 409 223 b 420 245 419 229 425 237 l 393 311 b 369 322 388 319 379 325 b 361 298 361 318 356 308 l 387 233 m 965 243 b 981 231 969 236 976 231 l 988 231 b 998 256 997 237 1002 245 l 970 319 b 948 330 968 329 956 334 b 938 308 938 326 936 316 l 965 243 m 698 491 b 705 490 700 490 702 490 b 720 501 712 490 718 494 l 747 566 b 738 588 752 575 747 586 b 716 580 730 593 719 588 l 687 515 b 698 491 684 507 690 495 m 1020 112 b 1037 101 1023 105 1030 101 b 1043 104 1040 101 1041 101 b 1054 126 1051 106 1056 118 l 1025 191 b 1002 200 1022 200 1011 204 b 994 177 994 197 990 186 l 1020 112 m 1393 741 b 1408 752 1400 741 1405 745 l 1437 815 b 1426 840 1440 826 1434 834 b 1404 829 1418 844 1406 839 l 1377 765 b 1386 741 1372 755 1377 745 l 1393 741 m 1175 223 b 1190 233 1181 223 1187 226 l 1216 298 b 1208 322 1222 308 1216 318 b 1186 311 1200 325 1188 319 l 1156 245 b 1168 223 1154 237 1159 229 l 1175 223 m 279 491 b 294 482 281 484 287 482 b 301 483 297 482 300 482 b 309 507 309 487 315 497 l 283 570 b 261 580 280 580 269 583 b 252 557 252 576 247 566 l 279 491 m 495 0 l 498 0 l 505 0 b 515 13 509 2 513 8 l 530 47 b 520 70 533 56 530 66 b 498 61 512 73 501 70 l 497 58 b 479 61 491 62 484 63 b 469 38 469 58 466 47 l 480 12 b 491 0 481 6 484 2 l 495 0 m 1087 0 b 1097 13 1091 2 1095 8 l 1108 38 b 1100 61 1112 47 1108 58 b 1080 58 1093 63 1086 62 l 1080 61 b 1056 70 1076 70 1066 73 b 1048 47 1048 66 1044 56 l 1062 12 b 1073 0 1063 6 1066 2 l 1087 0 "},"v":{"x_min":76.15625,"x_max":651.640625,"ha":808,"o":"m 156 458 b 172 448 161 451 168 448 b 179 450 176 448 177 448 b 190 473 187 454 194 463 l 162 537 b 140 545 159 545 148 550 b 130 523 130 541 126 532 l 156 458 m 445 193 b 461 202 452 193 458 197 l 488 268 b 477 290 491 276 487 287 b 455 280 469 293 458 290 l 429 218 b 438 193 426 206 429 198 l 445 193 m 545 450 b 552 448 548 448 551 448 b 568 458 559 448 566 451 l 597 523 b 586 545 600 532 597 541 b 563 537 577 550 566 545 l 537 473 b 545 450 533 463 537 454 m 600 579 b 606 577 601 577 605 577 b 623 587 613 577 620 580 l 650 651 b 641 673 654 661 650 670 b 616 665 631 677 623 673 l 591 601 b 600 579 587 593 591 583 m 491 322 b 500 319 494 322 497 319 b 515 332 506 319 513 326 l 543 394 b 533 419 545 405 541 413 b 509 409 523 422 513 416 l 484 344 b 491 322 480 336 484 326 m 318 75 b 336 65 322 68 329 65 b 343 66 337 65 338 65 b 351 88 351 69 355 80 l 323 152 b 301 161 320 161 309 165 b 293 138 293 158 288 148 l 318 75 m 384 66 b 391 65 386 65 390 65 b 406 75 398 65 404 68 l 434 138 b 425 161 438 148 433 158 b 401 152 416 165 405 161 l 376 88 b 384 66 370 80 376 69 m 211 332 b 227 319 213 326 220 319 b 233 322 230 319 231 322 b 243 344 243 326 247 336 l 216 409 b 194 416 212 416 201 422 b 184 394 184 413 181 405 l 211 332 m 102 587 b 119 577 106 580 113 577 b 126 579 122 577 123 577 b 136 601 134 583 140 593 l 108 665 b 86 673 104 673 94 677 b 77 651 77 670 73 661 l 102 587 m 265 202 b 281 193 268 197 275 193 l 287 193 b 297 218 297 198 301 206 l 269 280 b 247 290 266 290 255 293 b 238 268 238 287 234 276 l 265 202 m 356 0 b 361 -1 356 -1 359 -1 l 363 -1 l 366 -1 b 370 0 368 -1 369 -1 b 380 9 375 1 379 5 l 381 11 b 370 33 384 19 379 29 l 366 33 b 355 33 362 34 358 34 b 345 11 345 29 343 19 l 347 9 b 352 1 348 6 350 4 b 355 0 354 1 354 1 l 356 0 "},">":{"x_min":125,"x_max":574.3125,"ha":861,"o":"m 129 5 l 129 5 b 145 0 133 1 140 0 l 145 0 b 161 5 150 0 156 1 l 219 66 l 219 66 b 219 95 226 72 226 87 l 219 95 b 190 95 211 102 195 102 l 129 34 l 129 34 b 129 5 123 26 123 13 m 247 123 l 247 123 b 262 118 251 119 255 118 l 262 118 b 276 123 266 118 272 119 l 334 181 l 334 181 b 334 211 343 190 343 204 l 334 211 b 305 211 326 219 313 219 l 247 152 l 247 152 b 247 123 238 144 238 131 m 363 241 l 363 241 b 377 236 368 237 373 236 l 377 236 b 393 241 384 236 388 237 l 452 300 l 452 300 b 450 329 458 308 458 320 l 450 329 b 420 329 444 337 429 337 l 363 270 l 363 270 b 363 241 355 262 355 250 m 481 358 l 481 358 b 495 354 486 354 490 354 l 495 354 b 511 358 500 354 506 355 l 568 418 l 568 418 b 568 447 576 426 576 438 l 568 447 b 538 447 559 455 547 455 l 479 388 l 479 388 b 481 358 473 380 473 366 m 538 523 l 538 523 b 554 516 543 519 547 516 l 554 516 b 568 523 558 516 563 519 l 568 523 b 568 552 576 532 576 544 l 511 612 l 511 612 b 481 612 502 618 487 620 l 481 612 b 479 582 473 604 473 588 l 538 523 m 420 641 l 420 641 b 436 634 425 637 431 634 l 436 634 b 450 641 441 634 448 637 l 450 641 b 452 670 458 650 458 662 l 393 727 l 393 727 b 363 727 384 736 372 736 l 363 727 b 363 698 355 719 355 707 l 420 641 m 305 759 l 305 759 b 319 752 309 755 313 752 l 319 752 b 334 759 326 752 330 755 l 334 759 b 334 787 343 765 343 779 l 276 845 l 276 845 b 247 845 268 854 255 854 l 247 845 b 247 816 238 837 238 825 l 305 759 m 190 875 l 190 875 b 204 869 194 870 198 869 l 204 869 b 219 875 208 869 215 870 l 219 875 b 219 904 226 883 226 897 l 161 964 l 161 964 b 129 964 152 972 137 972 l 129 964 b 129 934 123 955 123 943 l 190 875 "},"s":{"x_min":72.046875,"x_max":548.609375,"ha":683,"o":"m 248 5 l 248 5 b 302 0 266 2 284 0 l 302 0 b 322 1 309 0 315 1 l 322 1 b 338 19 331 1 338 9 l 338 19 b 320 36 338 29 330 36 l 320 36 l 320 36 b 302 36 313 36 308 36 l 302 36 b 255 40 286 36 270 37 l 255 40 b 234 25 245 41 236 34 l 234 25 b 248 5 233 15 238 6 m 373 25 l 373 25 b 390 13 376 18 383 13 l 390 13 b 395 13 391 13 393 13 l 395 13 b 462 44 419 22 443 31 l 462 44 b 468 69 470 50 473 61 l 468 69 b 444 75 462 77 452 79 l 444 75 b 384 47 426 63 406 54 l 384 47 b 373 25 376 44 370 34 m 179 25 l 179 25 b 184 23 180 25 183 23 l 184 23 b 201 34 191 23 198 27 l 201 34 b 191 58 204 44 200 54 l 191 58 l 191 58 b 131 87 169 66 150 76 l 131 87 b 106 80 123 91 112 88 l 106 80 b 113 56 102 72 105 62 l 113 56 b 179 25 133 45 155 34 m 494 93 l 494 93 b 504 88 497 90 501 88 l 504 88 b 518 95 509 88 515 91 l 518 95 b 548 168 534 118 544 141 l 548 168 b 533 187 548 177 541 186 l 533 187 b 513 172 523 188 513 181 l 513 172 b 490 116 511 152 502 134 l 490 116 b 494 93 484 109 486 98 m 504 230 l 504 230 b 519 220 506 225 512 220 l 519 220 b 527 222 522 220 525 220 l 527 222 b 534 245 536 226 538 237 l 534 245 b 484 304 523 269 505 287 l 484 304 b 459 300 476 309 465 308 l 459 300 b 463 276 454 293 455 282 l 463 276 b 504 230 481 262 495 247 m 405 307 l 405 307 b 412 305 408 305 409 305 l 412 305 b 429 316 419 305 426 309 l 429 316 b 419 338 431 325 427 336 l 419 338 b 350 361 397 347 375 354 l 350 361 b 329 348 340 363 331 357 l 329 348 b 341 326 326 338 331 329 l 341 326 b 405 307 365 320 386 313 m 273 341 l 273 341 b 277 340 275 340 276 340 l 277 340 b 294 354 286 340 293 345 l 294 354 b 281 375 297 363 290 373 l 281 375 b 216 393 258 380 236 386 l 216 393 b 194 383 206 397 197 391 l 194 383 b 204 361 190 373 195 363 l 204 361 b 273 341 226 352 250 347 m 138 393 l 138 393 b 148 390 141 391 144 390 l 148 390 b 162 398 154 390 159 393 l 162 398 b 158 422 168 405 165 416 l 158 422 b 115 465 138 434 125 450 l 115 465 b 91 473 111 475 101 477 l 91 473 b 84 450 83 468 80 458 l 84 450 l 84 450 b 138 393 97 427 115 408 m 87 508 l 87 508 b 88 508 87 508 88 508 l 88 508 b 106 522 97 508 105 513 l 106 522 b 131 576 109 541 118 559 l 131 576 b 129 601 137 584 136 595 l 129 601 b 104 598 122 608 111 607 l 104 598 b 72 527 87 577 76 554 l 72 527 b 87 508 70 518 77 509 m 488 573 l 488 573 b 498 570 491 572 494 570 l 498 570 b 512 579 504 570 509 573 l 512 579 b 508 602 518 587 515 597 l 508 602 l 508 602 b 447 640 488 615 469 627 l 447 640 b 423 633 438 644 427 641 l 423 633 b 430 609 419 625 422 614 l 430 609 b 488 573 451 598 469 586 m 156 623 l 156 623 b 172 613 159 618 165 613 l 172 613 b 180 616 175 613 177 615 l 180 616 b 240 640 198 626 218 634 l 240 640 b 254 661 250 641 255 651 l 254 661 b 233 673 251 669 241 676 l 233 673 l 233 673 b 163 647 206 668 184 658 l 163 647 b 156 623 154 643 151 632 m 369 636 l 369 636 b 375 634 370 634 373 634 l 375 634 b 391 647 381 634 388 640 l 391 647 b 379 669 394 657 388 666 l 379 669 l 379 669 b 306 680 356 676 333 680 l 306 680 b 288 664 297 682 288 673 l 288 664 b 305 645 288 654 295 645 l 305 645 b 369 636 327 645 350 641 "},"B":{"x_min":144.03125,"x_max":717.875,"ha":825,"o":"m 552 495 b 569 507 559 495 566 499 b 558 528 572 517 566 527 b 498 540 540 536 519 539 l 501 540 b 510 543 505 540 508 540 b 566 593 531 557 551 574 b 565 618 573 600 572 613 b 540 617 556 625 545 624 b 491 572 526 599 510 585 b 485 547 484 567 480 557 b 498 540 488 543 494 540 l 484 540 b 466 524 473 540 466 532 b 484 506 466 513 473 506 b 547 495 506 506 527 502 l 552 495 m 144 39 b 149 25 144 33 145 28 b 148 18 148 22 148 20 b 164 0 148 7 156 0 l 234 0 b 251 18 244 0 251 7 b 234 35 251 26 244 35 l 177 35 b 178 39 178 36 178 38 l 178 110 b 162 126 178 120 170 126 b 144 110 151 126 144 120 l 144 39 m 144 885 b 162 867 144 875 151 867 b 178 885 170 867 178 875 l 178 938 l 235 938 b 253 954 247 938 253 946 b 235 972 253 966 247 972 l 164 972 l 162 972 b 144 954 150 972 144 966 l 144 885 m 385 507 b 441 513 405 507 424 508 b 453 533 451 517 455 525 b 433 547 452 545 441 550 b 385 543 417 545 401 543 l 366 543 b 348 525 356 543 348 533 b 366 507 348 514 356 507 l 385 507 m 295 507 b 313 525 306 507 313 514 b 295 543 313 533 306 543 l 224 543 b 208 525 216 543 208 533 b 224 507 208 514 216 507 l 295 507 m 683 293 b 701 275 683 282 691 275 l 702 275 b 717 295 710 277 717 283 b 706 367 716 320 713 343 b 683 379 702 377 694 382 b 672 357 674 377 669 367 b 683 293 677 336 681 315 m 499 902 b 508 899 501 899 505 899 b 524 906 516 899 520 900 b 519 931 530 914 527 925 b 451 964 499 945 474 957 b 428 952 441 966 433 960 b 441 931 426 942 433 932 b 499 902 463 922 481 914 m 645 418 b 660 408 649 413 655 408 b 669 413 663 408 667 410 b 676 435 677 415 681 428 b 624 493 662 458 644 478 b 599 490 617 499 608 499 b 603 465 595 482 595 472 b 645 418 619 453 634 435 m 565 45 b 578 38 569 39 573 38 b 590 39 583 38 585 38 b 648 86 610 51 630 68 b 645 111 652 93 652 104 b 622 111 638 118 628 118 b 570 68 608 95 590 81 b 565 45 563 64 559 53 m 144 743 b 162 725 144 735 151 725 b 178 743 170 725 178 735 l 178 814 b 162 832 178 824 170 832 b 144 814 151 832 144 824 l 144 743 m 573 797 b 591 786 577 790 584 786 b 597 788 592 786 595 788 b 608 809 605 790 610 800 b 573 878 599 834 588 856 b 549 881 569 885 556 886 b 545 856 542 875 540 865 b 573 797 558 839 569 820 m 427 18 b 445 0 427 7 437 0 l 448 0 b 520 8 473 0 498 4 b 533 31 530 13 535 21 b 510 42 530 40 520 46 b 448 35 491 38 470 35 l 445 35 b 427 18 437 35 427 26 m 665 140 b 674 139 669 139 670 139 b 690 149 681 139 687 143 b 715 218 701 171 709 193 b 701 239 716 229 709 238 b 680 225 690 242 681 236 b 658 164 676 204 669 183 b 665 140 655 156 658 145 m 144 321 b 162 303 144 311 151 303 b 178 321 170 303 178 311 l 178 392 b 162 408 178 402 170 408 b 144 392 151 408 144 402 l 144 321 m 374 0 b 392 18 385 0 392 7 b 374 35 392 26 385 35 l 303 35 b 287 18 295 35 287 26 b 303 0 287 7 295 0 l 374 0 m 144 179 b 162 163 144 171 151 163 b 178 179 170 163 178 171 l 178 250 b 162 268 178 261 170 268 b 144 250 151 268 144 261 l 144 179 m 144 461 b 162 445 144 453 151 445 b 178 461 170 445 178 453 l 178 532 b 162 550 178 543 170 550 b 144 532 151 550 144 543 l 144 461 m 376 938 b 394 954 387 938 394 946 b 376 972 394 966 387 972 l 306 972 b 288 954 297 972 288 966 b 306 938 288 946 297 938 l 376 938 m 144 603 b 162 585 144 593 151 585 b 178 603 170 585 178 593 l 178 672 b 162 690 178 684 170 690 b 144 672 151 690 144 684 l 144 603 m 583 650 b 588 649 584 649 585 649 b 603 659 595 649 602 652 b 617 735 612 684 617 709 b 602 752 619 743 610 752 b 583 735 591 752 584 745 b 572 671 583 714 578 692 b 583 650 569 663 572 652 "},"?":{"x_min":54.0625,"x_max":604.171875,"ha":742,"o":"m 294 329 b 311 312 294 319 301 312 b 327 329 319 312 327 319 l 327 386 l 330 386 l 331 386 b 401 400 355 388 379 393 b 412 422 411 402 416 413 b 391 432 409 430 400 434 b 329 419 370 425 351 422 b 316 412 323 418 319 415 b 311 413 315 412 312 413 b 294 397 301 413 294 405 l 294 329 m 587 648 b 604 666 595 648 604 657 l 604 679 b 598 736 604 700 601 718 b 579 750 597 745 587 751 b 565 729 569 748 563 740 b 569 679 568 712 569 695 l 569 668 b 587 648 569 657 576 651 m 541 525 b 550 522 543 523 547 522 b 563 530 555 522 559 525 b 591 595 575 550 584 572 b 580 618 595 605 590 613 b 559 605 572 619 561 613 b 534 547 552 586 544 565 b 541 525 530 540 533 530 m 544 790 b 559 779 548 783 555 779 b 568 782 563 779 565 779 b 576 802 576 784 580 794 b 538 864 565 825 552 844 b 515 866 533 870 522 872 b 511 843 508 859 506 850 b 544 790 525 826 536 808 m 355 934 b 372 948 363 934 370 940 b 356 969 375 958 368 966 b 311 972 343 970 327 972 l 287 972 b 272 954 279 970 272 962 b 290 939 272 944 280 937 l 311 939 b 352 934 323 939 338 937 l 355 934 m 148 904 b 163 897 151 898 156 897 b 172 898 166 897 168 897 b 229 925 190 909 208 918 b 238 947 237 929 241 939 b 218 957 237 955 227 961 b 152 926 195 950 173 940 b 148 904 147 922 143 912 m 443 434 b 456 427 445 430 451 427 b 466 430 459 427 462 427 b 522 475 486 443 505 458 b 519 498 526 482 526 491 b 495 498 513 505 502 505 b 448 458 483 483 466 470 b 443 434 440 454 437 443 m 62 802 b 70 801 65 801 68 801 b 84 809 76 801 83 805 b 123 859 97 827 108 844 b 123 883 130 866 130 876 b 100 883 116 890 105 890 b 56 826 83 865 68 847 b 62 802 51 818 54 808 m 468 887 b 477 883 469 883 473 883 b 491 890 483 883 487 884 b 487 914 495 897 494 907 b 426 948 468 926 448 939 b 404 940 418 952 408 948 b 412 918 401 932 404 922 b 468 887 433 909 451 898 m 294 218 b 311 201 294 206 301 201 b 327 218 319 201 327 206 l 327 262 b 311 279 327 270 319 279 b 294 262 301 279 294 270 l 294 218 m 294 16 b 311 0 294 8 301 0 b 327 16 319 0 327 8 l 327 48 b 311 65 327 58 319 65 b 294 48 301 65 294 58 l 294 16 "},"H":{"x_min":144.4375,"x_max":781.953125,"ha":985,"o":"m 144 450 b 162 432 144 441 151 432 b 180 450 170 432 180 441 l 180 457 l 240 457 b 258 475 250 457 258 463 b 240 493 258 484 250 493 l 180 493 l 180 522 b 162 540 180 533 170 540 b 144 522 151 540 144 533 l 144 450 m 745 450 b 763 432 745 441 752 432 b 781 450 772 432 781 441 l 781 522 b 763 540 781 533 772 540 b 745 522 752 540 745 533 l 745 493 l 744 493 b 726 475 734 493 726 484 b 744 457 726 463 734 457 l 745 457 l 745 450 m 672 457 b 690 475 683 457 690 463 b 672 493 690 484 683 493 l 600 493 b 581 475 590 493 581 484 b 600 457 581 463 590 457 l 672 457 m 745 18 b 763 0 745 8 752 0 b 781 18 772 0 781 8 l 781 90 b 763 108 781 101 772 108 b 745 90 752 108 745 101 l 745 18 m 144 18 b 162 0 144 8 151 0 b 180 18 170 0 180 8 l 180 90 b 162 108 180 101 170 108 b 144 90 151 108 144 101 l 144 18 m 527 457 b 545 475 538 457 545 463 b 527 493 545 484 538 493 l 455 493 b 437 475 447 493 437 484 b 455 457 437 463 447 457 l 527 457 m 144 594 b 162 576 144 584 151 576 b 180 594 170 576 180 584 l 180 666 b 162 684 180 676 170 684 b 144 666 151 684 144 676 l 144 594 m 745 594 b 763 576 745 584 752 576 b 781 594 772 576 781 584 l 781 666 b 763 684 781 676 772 684 b 745 666 752 684 745 676 l 745 594 m 745 882 b 763 864 745 873 752 864 b 781 882 772 864 781 873 l 781 954 b 763 972 781 965 772 972 b 745 954 752 972 745 965 l 745 882 m 745 305 b 763 287 745 297 752 287 b 781 305 772 287 781 297 l 781 377 b 763 395 781 388 772 395 b 745 377 752 395 745 388 l 745 305 m 144 305 b 162 287 144 297 151 287 b 180 305 170 287 180 297 l 180 377 b 162 395 180 388 170 395 b 144 377 151 395 144 388 l 144 305 m 144 882 b 162 864 144 873 151 864 b 180 882 170 864 180 873 l 180 954 b 162 972 180 965 170 972 b 144 954 151 972 144 965 l 144 882 m 383 457 b 401 475 394 457 401 463 b 383 493 401 484 394 493 l 312 493 b 294 475 302 493 294 484 b 312 457 294 463 302 457 l 383 457 m 745 162 b 763 144 745 152 752 144 b 781 162 772 144 781 152 l 781 234 b 763 251 781 244 772 251 b 745 234 752 251 745 244 l 745 162 m 745 737 b 763 720 745 729 752 720 b 781 737 772 720 781 729 l 781 809 b 763 827 781 820 772 827 b 745 809 752 827 745 820 l 745 737 m 144 737 b 162 720 144 729 151 720 b 180 737 170 720 180 729 l 180 809 b 162 827 180 820 170 827 b 144 809 151 827 144 820 l 144 737 m 144 162 b 162 144 144 152 151 144 b 180 162 170 144 180 152 l 180 234 b 162 251 180 244 170 251 b 144 234 151 251 144 244 l 144 162 "},"c":{"x_min":80.5625,"x_max":653.421875,"ha":793,"o":"m 425 15 l 425 15 b 443 0 425 6 434 0 l 443 0 b 443 0 443 0 443 0 l 443 0 b 515 8 468 0 491 2 l 515 8 b 527 29 523 11 529 20 l 527 29 b 506 41 526 38 515 44 l 506 41 b 441 34 484 36 462 34 l 441 34 b 425 15 431 34 425 25 m 369 2 l 369 2 b 372 1 370 2 370 1 l 372 1 b 388 18 381 1 388 8 l 388 18 b 376 36 390 27 383 34 l 376 36 b 311 54 352 40 331 47 l 311 54 b 288 45 302 58 291 54 l 288 45 b 298 22 284 36 290 27 l 298 22 b 369 2 322 15 344 8 m 562 41 l 562 41 b 576 31 563 34 569 31 l 576 31 b 583 34 579 31 581 31 l 583 34 b 647 72 606 44 627 55 l 647 72 b 650 97 654 77 655 88 l 650 97 b 626 100 643 104 631 104 l 626 100 l 626 100 b 569 65 608 86 588 73 l 569 65 b 562 41 562 61 556 51 m 234 55 l 234 55 b 243 54 236 54 238 54 l 243 54 b 256 61 248 54 255 55 l 256 61 b 254 86 262 70 261 80 l 254 86 l 254 86 b 201 127 234 97 216 112 l 201 127 b 176 127 195 134 183 134 l 176 127 b 176 104 170 120 170 109 l 176 104 b 234 55 194 86 212 70 m 130 161 l 130 161 b 147 152 134 155 140 152 l 147 152 b 155 155 148 152 152 154 l 155 155 b 161 179 162 161 166 172 l 161 179 b 130 237 148 198 140 216 l 130 237 b 111 248 129 248 118 251 l 111 248 b 100 227 100 247 97 236 l 100 227 b 130 161 106 202 118 180 m 83 300 l 83 300 b 100 283 83 290 90 283 l 100 283 b 102 283 100 283 102 283 l 102 283 b 116 301 111 284 116 294 l 116 301 b 116 340 116 313 116 327 l 116 340 b 116 369 116 350 116 359 l 116 369 b 100 387 116 377 111 386 l 100 387 b 83 372 90 387 83 380 l 83 372 b 80 340 80 361 80 350 l 80 340 b 83 300 80 326 80 311 m 109 420 l 109 420 b 113 420 111 420 111 420 l 113 420 b 129 433 120 420 127 425 l 129 433 b 156 493 136 454 147 473 l 156 493 b 152 518 162 501 159 512 l 152 518 b 127 511 143 520 133 519 l 127 511 b 97 444 116 488 104 466 l 97 444 b 109 420 94 434 97 425 m 172 545 l 172 545 b 186 540 176 541 179 540 l 186 540 b 197 545 188 540 194 541 l 197 545 b 248 588 212 561 230 575 l 248 588 b 251 613 255 594 256 605 l 251 613 b 227 616 247 619 236 622 l 227 616 b 170 569 208 602 188 587 l 170 569 b 172 545 166 562 166 550 m 620 582 l 620 582 b 630 579 623 580 627 579 l 630 579 b 644 586 636 579 641 580 l 644 586 b 641 609 650 593 648 605 l 641 609 b 579 645 622 625 601 636 l 579 645 b 554 639 569 652 559 645 l 554 639 b 562 615 550 629 554 619 l 562 615 b 620 582 583 607 602 594 m 283 629 l 283 629 b 298 619 284 622 291 619 l 298 619 b 306 619 300 619 304 619 l 306 619 b 369 639 325 626 345 633 l 369 639 b 383 658 376 641 383 650 l 383 658 b 362 672 381 669 372 675 l 362 672 b 291 652 337 669 315 659 l 291 652 b 283 629 283 648 280 639 m 500 636 l 500 636 b 504 636 502 636 502 636 l 504 636 b 520 650 511 636 519 641 l 520 650 b 508 672 523 658 516 669 l 508 672 b 434 679 484 676 459 677 l 434 679 b 416 662 426 679 416 672 l 416 662 b 434 645 416 652 425 645 l 434 645 l 434 645 b 500 636 458 643 479 641 "},"&":{"x_min":68.0625,"x_max":776.390625,"ha":967,"o":"m 168 519 b 181 512 172 513 177 512 b 193 518 186 512 191 513 b 247 557 211 532 227 545 b 254 562 250 557 252 559 b 266 569 259 562 263 563 b 263 593 272 576 270 588 b 218 638 245 605 230 622 b 193 643 212 645 201 648 b 188 618 186 637 181 626 b 220 580 198 604 208 591 b 170 544 201 569 184 557 b 168 519 162 537 162 526 m 654 336 b 672 320 656 327 663 320 l 673 320 b 690 340 684 322 691 330 b 680 393 687 357 686 375 b 737 419 701 395 720 405 b 738 444 744 426 745 436 b 713 447 733 452 723 452 b 659 426 700 434 680 427 b 655 425 658 426 656 426 l 652 425 b 641 401 644 420 638 409 b 654 336 648 380 652 359 m 102 398 b 120 408 109 398 118 401 b 151 468 127 429 138 448 b 145 493 155 475 154 486 b 120 487 138 498 126 494 b 87 420 106 466 95 445 b 98 398 83 412 88 401 l 102 398 m 259 922 b 276 914 263 918 269 914 b 283 915 277 914 280 914 l 284 915 b 344 934 302 926 323 933 b 358 957 355 937 361 945 b 338 970 358 965 350 972 b 266 947 312 966 290 958 b 259 922 258 941 254 932 m 351 209 b 369 197 352 202 361 197 l 375 197 b 384 220 383 201 388 211 b 383 229 384 220 384 223 b 381 256 381 236 381 244 b 383 281 381 263 381 273 b 369 301 384 290 377 301 b 348 287 358 302 350 297 b 345 256 345 276 345 265 b 351 209 345 229 351 211 m 645 184 b 652 183 647 183 648 183 b 668 193 659 183 665 186 b 687 265 677 216 684 241 b 673 284 690 275 683 283 b 652 270 663 287 654 280 b 634 208 648 248 644 227 b 645 184 631 198 637 188 m 69 275 b 87 258 72 265 79 258 l 88 258 b 105 277 100 261 106 269 b 102 311 102 290 102 301 b 105 345 102 323 102 334 b 88 363 105 354 100 362 b 69 348 80 366 72 359 b 68 311 68 336 68 323 b 69 275 68 300 68 287 m 550 815 b 566 805 554 808 559 805 b 573 807 569 805 572 805 b 584 827 581 809 587 819 b 545 894 575 852 561 875 b 520 895 538 901 527 901 b 519 872 512 889 512 879 b 550 815 531 854 543 836 m 122 136 b 136 129 126 131 131 129 b 147 131 140 129 144 130 b 151 156 154 137 155 148 b 120 215 138 175 127 193 b 98 225 118 223 106 229 b 87 202 88 222 83 211 b 122 136 95 179 108 156 m 383 334 b 395 329 387 330 391 329 b 409 336 401 329 405 330 b 461 372 420 348 436 361 b 469 394 469 375 473 386 b 447 402 466 402 455 407 b 383 359 418 391 397 376 b 383 334 376 352 376 340 m 175 814 b 181 812 177 812 179 812 b 198 822 188 812 194 815 b 233 877 206 841 218 861 b 231 901 238 884 238 894 b 206 900 225 908 213 907 b 166 836 188 882 175 859 b 175 814 161 827 166 816 m 231 37 b 240 34 234 34 237 34 b 256 44 245 34 252 38 b 250 68 259 52 256 63 b 194 105 230 79 211 91 b 170 105 187 112 175 112 b 172 80 162 98 162 86 b 231 37 188 63 211 50 m 427 20 b 444 6 430 13 437 6 b 448 8 447 6 448 6 b 519 33 473 13 497 22 b 527 56 527 37 531 47 b 502 65 522 65 512 68 b 441 41 483 54 462 47 b 427 20 431 40 425 31 m 376 0 b 394 18 384 0 391 8 b 376 34 394 27 384 34 b 311 44 352 34 330 38 b 288 31 300 47 291 40 b 300 11 286 22 291 12 b 375 0 325 4 350 0 l 376 0 m 555 76 b 569 70 559 72 565 70 b 581 73 573 70 579 72 b 631 129 600 90 618 109 b 627 152 638 137 637 148 b 604 150 620 158 608 156 b 559 100 591 131 575 116 b 555 76 550 94 550 84 m 155 687 b 173 675 158 679 165 675 l 177 675 b 188 695 187 677 193 687 b 181 748 186 714 181 730 b 184 761 181 751 181 755 b 166 779 184 769 177 779 b 148 762 158 780 148 770 b 147 748 147 757 147 754 b 155 687 147 727 151 707 m 502 402 b 520 387 504 394 512 387 l 523 387 b 588 393 543 391 565 393 l 591 393 b 608 409 600 393 608 400 b 591 427 608 419 601 427 l 588 427 b 519 422 562 427 540 426 b 502 402 508 420 501 412 m 469 912 b 477 911 470 911 475 911 b 493 919 483 911 488 912 b 487 941 497 926 494 939 b 415 968 463 954 441 965 b 395 954 405 970 397 965 b 408 934 394 945 398 937 b 469 912 430 930 450 922 m 758 477 b 776 491 766 477 775 482 l 776 512 b 770 559 776 526 775 543 b 750 572 769 569 758 573 b 737 551 740 570 733 562 b 740 512 738 537 740 523 l 740 497 b 755 477 738 486 745 477 l 758 477 m 562 748 b 580 730 562 737 572 730 b 598 748 591 730 598 737 l 598 754 b 580 770 598 764 588 770 b 562 754 569 770 562 762 l 562 748 "},"I":{"x_min":154.171875,"x_max":190.28125,"ha":424,"o":"m 154 18 l 154 18 b 172 0 154 8 161 0 l 172 0 b 190 18 180 0 190 8 l 190 90 l 190 90 b 172 108 190 101 180 108 l 172 108 b 154 90 161 108 154 101 l 154 18 m 154 162 l 154 162 b 172 144 154 152 161 144 l 172 144 b 190 162 180 144 190 152 l 190 234 l 190 234 b 172 251 190 244 180 251 l 172 251 b 154 234 161 251 154 244 l 154 162 m 154 305 l 154 305 b 172 287 154 297 161 287 l 172 287 b 190 305 180 287 190 297 l 190 377 l 190 377 b 172 395 190 388 180 395 l 172 395 b 154 377 161 395 154 388 l 154 305 m 154 450 l 154 450 b 172 432 154 441 161 432 l 172 432 b 190 450 180 432 190 441 l 190 522 l 190 522 b 172 540 190 533 180 540 l 172 540 b 154 522 161 540 154 533 l 154 450 m 154 594 l 154 594 b 172 576 154 584 161 576 l 172 576 b 190 594 180 576 190 584 l 190 666 l 190 666 b 172 684 190 676 180 684 l 172 684 b 154 666 161 684 154 676 l 154 594 m 154 737 l 154 737 b 172 720 154 729 161 720 l 172 720 b 190 737 180 720 190 729 l 190 809 l 190 809 b 172 827 190 820 180 827 l 172 827 b 154 809 161 827 154 820 l 154 737 m 154 882 l 154 882 b 172 864 154 873 161 864 l 172 864 b 190 882 180 864 190 873 l 190 954 l 190 954 b 172 972 190 965 180 972 l 172 972 b 154 954 161 972 154 965 l 154 882 "},"G":{"x_min":101.390625,"x_max":930.15625,"ha":1131,"o":"m 836 72 b 851 62 840 66 845 62 b 859 66 854 62 858 65 b 922 106 880 77 902 91 b 929 118 925 109 927 113 l 929 122 l 929 186 b 912 204 929 194 922 204 b 894 186 902 204 894 194 l 894 127 b 844 95 876 115 859 105 b 836 72 834 91 831 80 m 894 400 b 912 382 894 388 902 382 b 929 400 922 382 929 388 l 929 470 b 912 487 929 479 922 487 l 911 487 l 908 487 l 884 487 b 866 470 875 487 866 479 b 884 452 866 459 875 452 l 894 452 l 894 400 m 336 887 b 350 879 340 882 344 879 b 361 882 354 879 356 880 b 420 912 379 893 400 904 b 430 934 430 916 434 926 b 406 945 427 944 415 950 b 341 912 383 934 362 925 b 336 887 333 907 329 897 m 463 947 b 481 933 466 939 473 933 l 486 933 b 552 945 508 940 529 944 b 568 965 562 947 570 957 b 548 981 566 977 558 984 b 476 970 525 980 500 974 b 463 947 468 965 462 956 m 506 8 b 525 22 515 8 522 15 b 509 44 526 33 519 41 b 444 62 487 51 466 55 b 420 52 436 66 426 62 b 433 30 416 41 422 31 b 502 8 455 20 479 13 l 506 8 m 820 900 b 829 898 825 898 826 898 b 845 908 834 898 841 901 b 836 932 848 918 845 927 b 768 959 815 943 791 951 b 745 947 758 962 748 958 b 755 926 741 939 747 927 b 820 900 779 919 801 911 m 155 670 b 162 669 156 669 159 669 b 179 679 169 669 175 672 b 212 738 187 701 200 720 b 206 764 216 747 215 758 b 181 758 197 769 187 766 b 145 694 168 738 156 718 b 155 670 141 684 145 673 m 363 59 b 373 58 368 59 369 58 b 388 68 380 58 386 61 b 381 91 393 75 390 86 b 322 127 361 101 341 113 b 297 125 315 133 302 131 b 301 100 293 115 294 105 b 363 59 320 84 343 72 m 227 793 b 241 787 231 790 234 787 b 254 794 247 787 250 791 b 302 840 269 811 286 826 b 305 865 308 847 312 858 b 280 869 300 873 288 873 b 226 818 262 852 244 834 b 227 793 220 811 220 800 m 700 25 b 719 12 702 18 709 12 l 722 12 b 794 33 747 18 770 25 b 805 58 802 37 808 48 b 780 68 801 66 788 72 b 715 47 759 59 738 52 b 700 25 705 44 698 34 m 120 533 b 122 532 120 532 122 532 b 140 547 131 532 138 538 b 155 615 141 570 148 593 b 141 637 156 625 152 634 b 119 625 131 640 122 634 b 105 552 113 601 108 577 b 120 533 102 543 109 533 m 108 405 b 126 391 109 397 116 391 l 129 391 b 143 412 138 393 145 401 b 136 479 140 433 136 457 b 119 497 136 487 127 497 b 101 477 108 495 101 487 b 108 405 101 452 105 427 m 247 148 b 259 143 250 145 254 143 b 270 148 262 143 268 145 b 270 173 279 155 279 166 b 226 225 255 188 238 206 b 201 227 219 233 208 234 b 197 204 193 223 190 211 b 247 148 212 184 227 165 m 693 943 b 712 957 702 943 709 947 b 694 979 713 966 706 977 b 622 986 672 981 647 986 b 604 966 613 986 604 979 b 622 950 604 958 612 950 b 688 943 645 950 668 945 l 693 943 m 670 452 b 687 470 680 452 687 459 b 670 487 687 479 680 487 l 598 487 b 580 470 588 487 580 479 b 598 452 580 459 588 452 l 670 452 m 813 452 b 831 470 825 452 831 459 b 813 487 831 479 825 487 l 741 487 b 725 470 733 487 725 479 b 741 452 725 459 733 452 l 813 452 m 894 258 b 912 240 894 247 902 240 b 929 258 922 240 929 247 l 929 329 b 912 347 929 338 922 347 b 894 329 902 347 894 338 l 894 258 m 605 0 b 648 1 622 0 636 0 b 666 19 659 1 666 11 b 647 34 665 30 655 37 l 577 34 b 559 19 568 34 559 27 b 575 0 558 8 566 0 l 605 0 m 159 266 b 173 258 161 261 168 258 b 181 259 176 258 180 258 b 188 281 190 262 194 273 b 162 345 179 304 169 325 b 138 358 159 355 148 359 b 127 334 129 354 123 343 b 159 266 136 311 145 287 m 901 850 b 912 845 905 847 908 845 b 926 852 918 845 922 847 b 922 879 931 859 931 870 b 901 894 915 884 908 890 b 875 891 893 900 880 898 b 879 865 870 882 872 870 b 901 850 887 859 894 854 "},"(":{"x_min":98.8125,"x_max":418.09375,"ha":597,"o":"m 147 690 b 152 689 150 690 151 689 b 172 704 162 689 170 695 b 198 777 180 730 188 755 b 187 804 202 787 198 800 b 161 793 177 808 165 804 b 133 715 151 769 141 743 b 147 690 130 704 137 693 m 312 -123 b 397 -138 337 -134 366 -138 b 418 -119 408 -138 418 -130 b 397 -98 418 -108 408 -98 b 326 -86 370 -98 348 -94 b 300 -97 316 -81 304 -87 b 312 -123 295 -108 301 -119 m 111 227 b 130 209 112 218 120 209 b 133 211 132 209 133 209 b 151 233 144 212 152 222 b 143 311 147 258 144 284 b 120 330 141 322 132 330 b 102 308 109 329 101 319 b 111 227 104 280 107 254 m 206 839 b 219 836 211 836 215 836 b 236 844 225 836 231 839 b 287 895 251 865 268 883 b 291 925 295 902 297 915 b 263 929 284 933 272 936 b 202 866 240 912 220 891 b 206 839 195 858 198 845 m 98 390 b 119 370 98 379 108 370 b 138 391 130 370 138 380 l 138 416 b 140 470 138 434 138 452 b 120 491 140 482 132 490 b 100 472 109 491 100 483 b 98 416 98 454 98 434 l 98 390 m 150 66 b 169 54 152 59 161 54 b 176 55 170 54 173 54 b 187 80 186 59 191 70 b 165 155 179 104 172 129 b 141 170 162 166 151 173 b 126 147 130 168 123 156 b 150 66 133 118 140 91 m 238 -76 b 252 -81 241 -80 247 -81 b 266 -75 256 -81 262 -79 b 266 -47 275 -68 273 -54 b 220 11 248 -30 233 -11 b 193 19 213 20 202 25 b 186 -8 183 12 180 1 b 238 -76 201 -34 218 -56 m 125 532 b 144 550 134 532 144 538 b 155 627 147 576 151 602 b 138 651 156 638 150 648 b 115 634 127 652 118 645 b 105 552 111 608 108 582 b 123 532 104 543 112 532 l 125 532 m 327 941 b 347 926 330 932 338 926 l 352 926 b 397 932 366 929 381 932 b 418 951 408 932 418 940 b 397 972 418 962 408 972 b 343 965 379 972 359 969 b 327 941 331 962 325 952 "},"U":{"x_min":146.125,"x_max":925.078125,"ha":1131,"o":"m 486 1 l 486 1 b 534 0 501 0 519 0 l 534 0 b 559 0 544 0 551 0 l 559 0 b 575 19 568 0 577 8 l 575 19 b 558 34 575 27 566 34 l 558 34 b 534 34 551 34 541 34 l 534 34 b 491 37 519 34 505 34 l 491 37 b 469 22 480 38 472 31 l 469 22 b 486 1 469 12 476 4 m 611 25 l 611 25 b 627 11 612 15 619 11 l 627 11 b 632 12 630 11 630 11 l 632 12 b 702 37 657 18 679 26 l 702 37 b 709 59 711 40 715 51 l 709 59 b 686 68 705 68 695 72 l 686 68 b 623 45 666 58 645 51 l 623 45 b 611 25 614 44 609 33 m 414 19 l 414 19 b 419 18 415 18 416 18 l 419 18 b 436 30 428 18 434 22 l 436 30 b 426 52 440 38 434 50 l 426 52 b 364 79 403 59 383 68 l 364 79 b 339 72 355 83 344 80 l 339 72 b 347 47 334 63 337 52 l 347 47 b 414 19 368 34 390 26 m 741 77 l 741 77 b 755 70 743 73 750 70 l 755 70 b 765 73 758 70 762 72 l 765 73 b 820 123 784 87 802 105 l 820 123 b 818 148 827 130 825 140 l 818 148 b 794 148 811 155 801 155 l 794 148 b 744 102 780 130 762 116 l 744 102 b 741 77 736 97 734 86 m 284 90 l 284 90 b 297 86 289 86 294 86 l 297 86 b 311 91 303 86 308 87 l 311 91 b 308 116 316 98 316 111 l 308 116 b 259 163 291 130 276 145 l 259 163 b 236 166 255 172 244 172 l 236 166 b 233 143 229 159 229 150 l 233 143 b 284 90 250 123 266 105 m 841 176 l 841 176 b 850 172 843 175 847 172 l 850 172 b 863 181 855 172 861 176 l 863 181 b 897 247 879 202 888 223 l 897 247 b 888 269 901 255 897 265 l 888 269 b 866 261 879 273 869 269 l 866 261 l 866 261 b 834 201 857 238 847 218 l 834 201 b 841 176 829 191 833 181 m 193 202 l 193 202 b 207 193 196 197 203 193 l 207 193 b 216 195 211 193 214 193 l 216 195 b 223 220 225 201 229 211 l 223 220 b 197 281 212 238 204 261 l 197 281 b 176 293 196 290 185 295 l 176 293 b 164 270 165 290 161 280 l 164 270 b 193 202 171 247 180 223 m 897 304 l 897 304 b 901 302 900 302 900 302 l 901 302 b 919 319 909 302 916 309 l 919 319 b 925 388 922 341 925 363 l 925 391 l 925 391 b 907 408 925 401 916 408 l 907 408 b 888 391 897 408 888 401 l 888 388 l 888 388 b 883 323 888 366 887 345 l 883 323 b 897 304 882 315 888 307 m 147 343 l 147 343 b 165 327 150 333 157 327 l 165 327 b 166 327 166 327 166 327 l 166 327 b 183 347 178 327 185 336 l 183 347 l 183 347 b 180 388 180 361 180 375 l 180 415 l 180 415 b 164 433 180 425 172 433 l 164 433 b 146 415 153 433 146 425 l 146 388 l 146 388 b 147 343 146 373 146 357 m 888 461 l 888 461 b 907 444 888 452 897 444 l 907 444 b 925 461 916 444 925 452 l 925 532 l 925 532 b 907 550 925 543 916 550 l 907 550 b 888 532 897 550 888 543 l 888 461 m 146 486 l 146 486 b 164 468 146 475 153 468 l 164 468 b 180 486 172 468 180 475 l 180 557 l 180 557 b 164 573 180 565 172 573 l 164 573 b 146 557 153 573 146 565 l 146 486 m 888 602 l 888 602 b 907 584 888 593 897 584 l 907 584 b 925 602 916 584 925 593 l 925 672 l 925 672 b 907 690 925 683 916 690 l 907 690 b 888 672 897 690 888 683 l 888 602 m 146 626 l 146 626 b 164 609 146 616 153 609 l 164 609 b 180 626 172 609 180 616 l 180 697 l 180 697 b 164 715 180 707 172 715 l 164 715 b 146 697 153 715 146 707 l 146 626 m 888 743 l 888 743 b 907 725 888 734 897 725 l 907 725 b 925 743 916 725 925 734 l 925 814 l 925 814 b 907 832 925 823 916 832 l 907 832 b 888 814 897 832 888 823 l 888 743 m 146 768 l 146 768 b 164 750 146 757 153 750 l 164 750 b 180 768 172 750 180 757 l 180 839 l 180 839 b 164 855 180 847 172 855 l 164 855 b 146 839 153 855 146 847 l 146 768 m 888 884 l 888 884 b 907 866 888 875 897 866 l 907 866 b 925 884 916 866 925 875 l 925 954 l 925 954 b 907 972 925 965 916 972 l 907 972 b 888 954 897 972 888 965 l 888 884 m 146 908 l 146 908 b 164 891 146 898 153 891 l 164 891 b 180 908 172 891 180 898 l 180 954 l 180 954 b 164 972 180 965 172 972 l 164 972 b 146 954 153 972 146 965 l 146 908 "},"F":{"x_min":144.4375,"x_max":687.5,"ha":840,"o":"m 144 882 b 162 864 144 873 152 864 b 180 882 173 864 180 873 l 180 936 l 237 936 b 255 954 248 936 255 945 b 237 972 255 965 248 972 l 166 972 l 162 972 b 144 954 152 972 144 965 l 144 882 m 144 450 b 162 432 144 441 152 432 b 180 450 173 432 180 441 l 180 457 l 237 457 b 255 475 248 457 255 463 b 237 493 255 484 248 493 l 180 493 l 180 522 b 162 540 180 533 173 540 b 144 522 152 540 144 533 l 144 450 m 526 457 b 544 475 537 457 544 463 b 526 493 544 484 537 493 l 454 493 b 436 475 443 493 436 484 b 454 457 436 463 443 457 l 526 457 m 381 457 b 400 475 393 457 400 463 b 381 493 400 484 393 493 l 309 493 b 291 475 298 493 291 484 b 309 457 291 463 298 457 l 381 457 m 144 18 b 162 0 144 8 152 0 b 180 18 173 0 180 8 l 180 90 b 162 108 180 101 173 108 b 144 90 152 108 144 101 l 144 18 m 381 936 b 400 954 393 936 400 945 b 381 972 400 965 393 972 l 309 972 b 291 954 298 972 291 965 b 309 936 291 945 298 936 l 381 936 m 526 936 b 544 954 537 936 544 945 b 526 972 544 965 537 972 l 454 972 b 436 954 443 972 436 965 b 454 936 436 945 443 936 l 526 936 m 144 594 b 162 576 144 584 152 576 b 180 594 173 576 180 584 l 180 666 b 162 684 180 676 173 684 b 144 666 152 684 144 676 l 144 594 m 144 305 b 162 287 144 297 152 287 b 180 305 173 287 180 297 l 180 377 b 162 395 180 388 173 395 b 144 377 152 395 144 388 l 144 305 m 144 162 b 162 144 144 152 152 144 b 180 162 173 144 180 152 l 180 234 b 162 251 180 244 173 251 b 144 234 152 251 144 244 l 144 162 m 144 737 b 162 720 144 729 152 720 b 180 737 173 720 180 729 l 180 809 b 162 827 180 820 173 827 b 144 809 152 827 144 820 l 144 737 m 670 936 b 687 954 680 936 687 945 b 670 972 687 965 680 972 l 598 972 b 580 954 587 972 580 965 b 598 936 580 945 587 936 l 670 936 m 631 457 b 650 475 643 457 650 463 b 631 493 650 484 643 493 l 598 493 b 580 475 587 493 580 484 b 598 457 580 463 587 457 l 631 457 "},"":{"x_min":91.671875,"x_max":313.890625,"ha":567,"o":"m 262 472 l 262 472 l 302 472 l 302 472 b 313 486 309 472 313 477 l 313 486 b 302 501 313 494 309 501 l 262 501 l 262 501 b 252 486 258 501 252 494 l 252 486 b 262 472 252 477 258 472 m 181 472 l 181 472 l 222 472 l 222 472 b 233 486 229 472 233 477 l 233 486 b 222 501 233 494 229 501 l 181 501 l 181 501 b 172 486 177 501 172 494 l 172 486 b 181 472 172 477 177 472 m 101 472 l 101 472 l 141 472 l 141 472 b 152 486 148 472 152 477 l 152 486 b 141 501 152 494 148 501 l 101 501 l 101 501 b 91 486 97 501 91 494 l 91 486 b 101 472 91 477 97 472 "},"r":{"x_min":129.171875,"x_max":498.609375,"ha":610,"o":"m 129 304 b 147 287 129 294 136 287 b 165 304 155 287 165 294 l 165 332 b 188 391 168 340 175 361 b 177 415 191 401 187 412 b 155 405 168 419 158 415 b 150 394 154 401 151 397 l 147 394 b 129 376 136 394 129 386 l 129 336 l 129 334 l 129 304 m 194 448 b 202 444 197 447 200 444 b 219 455 211 444 215 448 b 256 512 230 473 243 493 b 252 538 262 522 259 532 b 227 534 244 544 233 543 b 187 470 212 515 200 493 b 194 448 183 463 184 451 m 276 563 b 288 559 280 561 283 559 b 301 563 291 559 298 561 b 355 607 318 580 336 595 b 361 630 362 611 366 623 b 336 638 355 640 344 641 b 276 591 315 623 294 607 b 276 563 269 584 269 572 m 129 161 b 147 143 129 151 136 143 b 165 161 155 143 165 151 l 165 233 b 147 251 165 243 155 251 b 129 233 136 251 129 243 l 129 161 m 129 591 b 147 573 129 580 136 573 b 165 591 155 573 165 580 l 165 664 b 147 682 165 672 155 682 b 129 664 136 682 129 672 l 129 591 m 129 448 b 147 430 129 437 136 430 b 165 448 155 430 165 437 l 165 519 b 147 538 165 529 155 538 b 129 519 136 538 129 529 l 129 448 m 129 18 b 147 0 129 6 136 0 b 165 18 155 0 165 6 l 165 88 b 147 108 165 98 155 108 b 129 88 136 108 129 98 l 129 18 m 393 647 b 411 633 394 638 402 633 b 415 634 412 633 415 634 b 480 645 436 640 458 643 b 498 664 491 645 498 652 b 480 682 498 672 490 682 b 405 668 454 679 429 675 b 393 647 394 665 390 655 "},":":{"x_min":120.828125,"x_max":190.28125,"ha":333,"o":"m 190 543 b 156 577 190 562 175 577 b 120 543 137 577 120 562 b 156 508 120 525 137 508 b 190 543 175 508 190 525 m 190 34 b 156 70 190 54 175 70 b 120 34 137 70 120 54 b 156 1 120 16 137 1 b 190 34 175 1 190 16 "},"x":{"x_min":95.1875,"x_max":621.78125,"ha":792,"o":"m 359 354 b 370 351 362 351 366 351 b 384 359 375 351 381 354 l 427 416 b 423 441 433 425 431 437 b 397 438 415 448 404 445 l 358 383 l 319 438 b 294 441 312 445 301 448 b 288 416 284 437 283 425 l 331 359 b 347 351 336 354 341 351 b 358 354 350 351 354 351 l 359 354 m 188 119 b 198 115 191 118 194 115 b 215 123 205 115 211 119 l 256 183 b 252 208 261 190 259 201 b 227 204 244 213 231 212 l 183 144 b 188 119 177 137 179 126 m 416 241 b 431 233 420 236 426 233 b 443 237 436 233 440 236 b 447 262 452 243 452 254 l 404 320 b 379 323 397 330 387 332 b 375 298 370 319 368 308 l 416 241 m 502 123 b 518 115 505 119 511 115 b 527 119 522 115 526 118 b 533 144 537 126 538 137 l 490 204 b 465 208 484 212 472 213 b 461 183 456 201 455 190 l 502 123 m 273 237 b 284 233 277 236 281 233 b 300 241 290 233 297 236 l 341 298 b 337 323 348 308 347 319 b 312 320 330 332 318 330 l 270 262 b 273 237 263 254 265 243 m 162 593 b 176 584 165 587 170 584 b 187 588 179 584 183 584 b 191 613 194 594 195 605 l 147 672 b 122 676 141 679 130 682 b 118 650 113 670 112 659 l 162 593 m 444 470 b 455 468 448 469 452 468 b 469 475 461 468 466 470 l 513 534 b 509 558 518 543 518 552 b 484 555 501 565 490 563 l 440 497 b 444 470 436 490 437 477 m 101 4 b 112 0 105 0 109 0 b 127 6 118 0 123 1 l 170 65 b 166 90 176 73 175 84 b 141 86 158 95 147 94 l 98 29 b 101 4 93 19 94 8 m 590 6 b 604 0 593 1 598 0 b 615 4 608 0 611 0 b 619 29 622 8 623 19 l 575 86 b 550 90 570 94 558 95 b 545 65 543 84 541 73 l 590 6 m 530 588 b 541 584 533 584 537 584 b 555 593 545 584 551 587 l 598 650 b 595 676 604 659 602 670 b 570 672 586 682 575 679 l 526 613 b 530 588 520 605 522 594 m 247 475 b 261 468 251 470 256 468 b 272 470 265 468 269 469 b 276 497 280 477 281 490 l 231 555 b 206 558 227 563 216 565 b 204 534 200 552 198 543 l 247 475 "},"*":{"x_min":105.5625,"x_max":548.609375,"ha":597,"o":"m 283 220 b 297 216 286 216 293 216 b 308 218 302 216 305 216 b 325 201 309 209 316 201 b 344 218 333 201 341 208 b 356 216 348 216 351 216 b 372 220 361 216 365 216 b 372 245 379 229 379 240 b 388 262 381 248 388 256 b 375 281 388 273 381 280 b 372 309 377 291 377 300 b 343 312 362 315 351 316 b 325 326 340 320 333 326 b 308 309 316 326 309 319 b 283 309 302 316 290 316 b 277 281 273 300 272 291 b 263 262 269 280 263 273 b 280 245 263 256 269 248 b 283 220 272 240 272 229 m 169 106 b 181 102 176 102 180 102 b 198 106 191 102 193 102 l 255 163 b 255 193 262 170 262 183 b 226 193 244 200 233 200 l 169 136 b 169 106 162 130 162 118 m 226 337 b 240 329 229 329 237 329 b 255 337 244 329 245 329 b 255 366 262 344 262 358 l 198 419 b 169 419 191 430 180 430 b 169 393 162 411 162 404 l 226 337 m 455 106 b 470 102 459 102 466 102 b 481 106 470 102 477 102 b 481 136 488 118 488 130 l 429 193 b 400 193 418 200 406 200 b 400 163 388 183 388 170 l 455 106 m 400 337 b 413 329 402 333 406 329 b 429 337 418 329 425 333 l 481 393 b 481 419 488 404 488 411 b 455 419 470 430 463 430 l 400 366 b 400 337 388 358 388 344 m 208 245 b 226 262 219 245 226 256 b 208 283 226 276 219 283 l 127 283 b 105 262 112 283 105 276 b 127 245 105 256 112 245 l 208 245 m 308 65 b 325 43 308 54 315 43 b 345 65 336 43 345 54 l 345 145 b 325 163 345 156 336 163 b 308 145 315 163 308 156 l 308 65 m 308 386 b 325 366 308 375 315 366 b 345 386 336 366 345 375 l 345 465 b 325 486 345 475 336 486 b 308 465 315 486 308 475 l 308 386 m 527 245 b 548 262 537 245 548 256 b 527 283 548 276 537 283 l 448 283 b 429 262 437 283 429 276 b 448 245 429 256 437 245 l 527 245 "},"V":{"x_min":80.3125,"x_max":903.796875,"ha":1042,"o":"m 327 362 b 343 351 329 357 336 351 b 350 352 344 351 348 352 b 359 376 359 357 362 368 l 333 441 b 309 450 327 450 318 455 b 298 427 298 447 295 436 l 327 362 m 687 483 b 694 482 691 482 693 482 b 711 491 701 482 708 484 l 738 557 b 730 580 741 566 738 576 b 705 570 719 583 711 580 l 679 507 b 687 483 675 497 679 487 m 436 104 b 452 93 437 97 445 93 b 459 94 454 93 456 93 b 468 118 468 98 472 108 l 441 183 b 419 191 437 191 427 195 b 408 169 409 187 404 177 l 436 104 m 525 94 b 531 93 526 93 529 93 b 547 104 538 93 545 97 l 575 169 b 565 191 579 177 573 187 b 541 183 555 195 545 191 l 515 118 b 525 94 512 108 515 98 m 218 622 b 234 612 220 615 227 612 b 241 613 236 612 237 612 b 250 636 250 616 254 627 l 223 701 b 198 709 218 709 209 714 b 190 687 190 707 186 695 l 218 622 m 273 491 b 288 482 275 484 281 482 b 295 483 290 482 291 482 b 304 507 304 487 308 497 l 277 570 b 254 580 273 580 263 583 b 244 557 244 576 241 566 l 273 491 m 851 872 b 858 870 854 870 856 870 b 876 880 865 870 872 875 l 902 945 b 893 968 905 954 902 965 b 870 959 884 972 873 968 l 843 894 b 851 872 838 886 843 875 m 586 223 b 601 233 593 223 600 226 l 629 298 b 619 322 633 308 629 318 b 595 311 611 325 600 319 l 569 245 b 579 223 566 237 569 229 l 586 223 m 633 352 b 640 351 634 352 638 351 b 655 362 647 351 654 357 l 684 427 b 673 450 687 436 684 447 b 651 441 665 455 655 450 l 625 376 b 633 352 620 368 625 357 m 381 233 b 397 223 383 226 390 223 l 404 223 b 413 245 413 229 416 237 l 387 311 b 363 322 383 319 373 325 b 354 298 355 318 350 308 l 381 233 m 741 613 b 750 612 745 612 747 612 b 765 622 756 612 763 615 l 793 687 b 784 709 797 695 793 707 b 761 701 776 714 765 709 l 733 636 b 741 613 730 627 733 616 m 163 752 b 179 741 165 745 172 741 l 186 741 b 195 765 195 745 198 755 l 168 829 b 144 840 163 839 152 844 b 136 815 136 834 131 826 l 163 752 m 109 880 b 125 870 111 875 118 870 b 131 872 126 870 129 870 b 141 894 141 875 144 886 l 112 959 b 90 968 109 968 98 972 b 81 945 81 965 77 954 l 109 880 m 804 741 b 819 752 811 741 818 745 l 847 818 b 838 840 851 826 847 834 b 816 829 830 844 819 839 l 787 765 b 797 741 784 755 787 745 l 804 741 m 498 0 b 509 13 504 2 508 8 l 520 38 b 509 61 525 47 519 58 b 491 58 504 63 495 62 b 473 61 486 62 479 63 b 462 38 463 58 459 47 l 475 11 b 476 8 475 9 475 9 b 479 5 476 6 477 6 b 480 4 479 4 479 4 b 486 0 481 2 483 1 l 498 0 "},"":{"x_min":0,"x_max":0,"ha":417},"h":{"x_min":129.03125,"x_max":680.421875,"ha":851,"o":"m 148 423 b 166 438 156 423 166 430 b 181 502 169 462 174 483 b 173 525 185 511 181 522 b 163 526 169 526 166 526 l 163 534 b 147 551 163 543 156 551 b 129 534 137 551 129 543 l 129 463 b 131 452 129 459 129 455 b 130 444 130 450 130 447 b 147 423 130 433 137 425 l 148 423 m 129 159 b 147 141 129 151 137 141 b 163 159 156 141 163 151 l 163 177 l 163 181 l 163 252 b 147 270 163 261 156 270 b 129 252 137 270 129 261 l 129 233 l 129 230 l 129 159 m 129 300 b 147 283 129 291 137 283 b 163 300 156 283 163 291 l 163 319 l 163 323 l 163 393 b 147 411 163 402 156 411 b 129 393 137 411 129 402 l 129 373 l 129 370 l 129 300 m 129 19 b 147 1 129 9 137 1 b 163 19 156 1 163 9 l 163 112 b 147 129 163 120 156 129 b 129 112 137 129 129 120 l 129 41 l 129 38 l 129 19 m 295 647 b 312 636 299 639 305 636 l 319 636 b 381 651 338 644 359 650 b 398 670 392 651 399 661 b 379 687 398 680 388 687 b 306 669 354 683 329 677 b 295 647 298 665 292 655 m 606 543 b 620 536 610 537 616 536 b 631 537 624 536 627 536 b 637 562 638 543 642 552 b 587 618 623 583 605 602 b 563 616 580 625 567 625 b 565 591 556 609 556 598 b 606 543 580 577 594 562 m 190 557 b 201 552 194 552 197 552 b 215 558 206 552 210 555 b 260 604 229 576 242 591 b 263 629 269 611 272 622 b 240 632 259 637 248 638 b 187 582 220 618 202 601 b 190 557 181 572 183 562 m 645 419 b 663 402 645 409 652 402 b 680 419 673 402 680 411 b 669 493 679 445 676 470 b 645 505 665 504 654 509 b 635 483 637 502 631 493 b 645 419 640 463 644 443 m 510 629 b 517 627 512 627 513 627 b 533 636 524 627 530 630 b 524 661 537 644 533 655 b 454 683 504 670 479 677 b 433 669 444 684 434 677 b 447 648 431 658 438 650 b 510 629 470 644 491 637 m 129 886 b 147 868 129 875 137 868 b 163 886 156 868 163 875 l 163 955 b 147 973 163 965 156 973 b 129 955 137 973 129 965 l 129 886 m 645 138 b 663 120 645 129 652 120 b 680 138 672 120 680 129 l 680 208 b 663 226 680 219 672 226 b 645 208 652 226 645 219 l 645 138 m 129 744 b 147 727 129 734 137 727 b 163 744 156 727 163 734 l 163 815 b 147 833 163 823 156 833 b 129 815 137 833 129 823 l 129 744 m 645 279 b 663 261 645 270 652 261 b 680 279 672 261 680 270 l 680 350 b 663 366 680 359 672 366 b 645 350 652 366 645 359 l 645 279 m 129 604 b 147 587 129 594 137 587 b 163 604 156 587 163 594 l 163 675 b 147 691 163 683 156 691 b 129 675 137 691 129 683 l 129 604 m 645 19 b 663 1 645 9 652 1 b 680 19 672 1 680 9 l 680 68 b 663 86 680 79 672 86 b 645 68 652 86 645 79 l 645 19 "},"0":{"x_min":90.28125,"x_max":751.390625,"ha":986,"o":"m 406 0 l 406 0 b 420 0 412 0 415 0 l 420 0 b 481 8 441 0 461 4 l 481 8 b 494 30 491 11 495 20 l 494 30 b 473 41 491 40 481 45 l 473 41 b 420 34 455 38 438 34 l 420 34 b 408 34 416 34 412 34 l 408 34 b 390 19 400 37 390 30 l 390 19 b 406 0 388 11 395 1 m 333 18 l 333 18 b 340 15 334 15 337 15 l 340 15 b 355 26 347 15 354 20 l 355 26 b 345 48 359 37 355 45 l 345 48 l 345 48 b 288 81 326 58 308 68 l 288 81 b 263 79 281 87 270 86 l 263 79 b 268 54 259 72 261 59 l 268 54 b 333 18 288 38 309 26 m 526 44 l 526 44 b 541 37 529 38 534 37 l 541 37 b 551 38 544 37 547 37 l 551 38 b 608 86 572 51 591 66 l 608 86 b 608 111 615 93 615 104 l 608 111 b 584 111 601 118 588 118 l 584 111 b 531 68 566 93 551 80 l 531 68 b 526 44 525 63 520 52 m 215 105 l 215 105 b 227 98 218 101 222 98 l 227 98 b 240 104 233 98 236 100 l 240 104 b 241 127 247 108 247 120 l 241 127 b 202 183 227 144 213 163 l 202 183 b 177 190 197 191 187 193 l 177 190 b 170 165 169 184 168 173 l 170 165 b 215 105 184 144 198 123 m 630 137 l 630 137 b 640 134 633 134 637 134 l 640 134 b 654 143 645 134 651 137 l 654 143 b 691 205 668 161 680 183 l 691 205 b 683 229 694 213 691 225 l 683 229 b 659 220 673 233 663 230 l 659 220 l 659 220 b 626 161 650 200 638 179 l 626 161 b 630 137 620 154 623 143 m 138 230 l 138 230 b 155 219 141 223 148 219 l 155 219 b 162 219 156 219 161 219 l 162 219 b 170 243 170 225 175 233 l 170 243 b 148 308 162 263 155 284 l 148 308 b 127 319 147 316 136 322 l 127 319 b 115 298 118 316 112 308 l 115 298 b 138 230 122 273 130 251 m 697 262 l 697 262 b 702 259 698 262 700 259 l 702 259 b 718 272 709 259 716 265 l 718 272 b 737 343 725 295 731 318 l 737 343 b 723 363 738 351 733 362 l 723 363 b 702 350 713 365 704 358 l 702 350 l 702 350 b 684 284 698 326 691 305 l 684 284 b 697 262 683 273 686 265 m 98 369 l 98 369 b 116 352 101 359 108 352 l 116 352 b 120 352 116 352 118 352 l 120 352 b 134 375 129 355 136 365 l 134 375 b 125 443 130 397 127 418 l 125 443 b 108 458 125 451 116 458 l 108 458 b 90 438 97 458 90 450 l 90 438 b 98 369 91 416 95 391 m 727 398 l 727 398 b 730 398 730 398 730 398 l 730 398 b 747 415 738 398 747 404 l 747 415 b 751 484 751 437 751 462 l 751 484 b 750 495 751 488 751 491 l 750 495 b 751 507 751 498 751 501 l 751 507 b 745 576 751 529 750 554 l 745 576 b 726 593 744 587 736 594 l 726 593 b 711 573 716 590 709 582 l 711 573 b 716 504 713 550 716 527 l 716 504 b 719 495 716 501 718 497 l 719 495 b 716 484 718 491 716 488 l 716 484 b 712 418 716 462 716 438 l 712 418 b 727 398 712 408 719 398 m 105 494 l 105 494 b 108 494 108 494 108 494 l 108 494 b 125 511 116 494 125 501 l 125 511 b 130 577 125 534 127 557 l 130 577 b 116 600 131 588 125 597 l 116 600 b 95 583 105 601 97 594 l 95 583 b 90 511 94 561 90 536 l 90 511 b 105 494 90 502 97 494 m 698 640 l 698 640 b 716 626 700 633 706 626 l 716 626 b 719 627 718 626 718 627 l 719 627 b 731 648 727 629 736 637 l 731 648 b 712 716 726 672 719 695 l 712 716 b 690 727 709 726 698 732 l 690 727 b 679 705 680 725 676 714 l 679 705 b 698 640 686 683 693 662 m 123 633 l 123 633 b 127 633 123 633 125 633 l 127 633 b 144 647 134 633 141 637 l 144 647 b 163 712 150 669 156 690 l 163 712 b 155 734 168 720 163 732 l 155 734 b 131 725 144 739 136 733 l 131 725 b 109 655 123 701 116 679 l 109 655 b 123 633 108 645 112 636 m 651 768 l 651 768 b 666 758 654 761 659 758 l 666 758 b 676 759 670 758 672 759 l 676 759 b 683 784 683 765 686 775 l 683 784 b 644 845 670 807 658 826 l 644 845 b 619 848 637 852 626 854 l 619 848 b 615 825 611 844 608 832 l 615 825 b 651 768 627 807 640 787 m 169 766 l 169 766 b 177 765 170 765 175 765 l 177 765 b 191 773 183 765 190 766 l 191 773 l 191 773 b 229 829 204 793 216 812 l 229 829 b 227 854 236 837 234 848 l 227 854 b 202 851 218 859 208 859 l 202 851 b 162 789 187 833 175 812 l 162 789 b 169 766 156 782 161 769 m 570 873 l 570 873 b 581 870 573 870 577 870 l 581 870 b 594 875 587 870 591 872 l 594 875 b 593 900 601 882 601 893 l 593 900 b 533 941 575 918 554 932 l 533 941 b 508 934 525 947 513 944 l 508 934 b 518 912 505 926 508 915 l 518 912 b 570 873 534 901 552 890 m 250 880 l 250 880 b 263 873 254 875 259 873 l 263 873 b 275 879 268 873 270 875 l 275 879 b 329 914 293 893 311 905 l 329 914 b 337 939 337 919 341 930 l 337 939 b 315 945 333 947 322 951 l 315 945 b 251 905 293 934 270 920 l 251 905 b 250 880 244 898 244 887 m 455 933 l 455 933 b 459 933 455 933 458 933 l 459 933 b 475 947 466 933 475 939 l 475 947 b 461 968 476 957 472 966 l 461 968 b 420 972 448 970 434 972 l 420 972 b 386 968 408 972 398 970 l 386 968 b 372 950 376 966 369 958 l 372 950 b 390 933 373 939 381 933 l 390 933 l 390 933 b 420 937 401 934 409 937 l 420 937 b 455 933 433 937 443 934 "},".":{"x_min":113.890625,"x_max":183.328125,"ha":319,"o":"m 183 38 b 150 73 183 58 168 73 b 113 38 130 73 113 58 b 150 4 113 20 130 4 b 183 38 168 4 183 20 "},"":{"x_min":81.9375,"x_max":254.171875,"ha":569,"o":"m 188 864 b 197 855 188 859 193 855 l 201 855 b 254 932 248 868 254 909 l 254 933 l 254 937 l 254 945 b 252 948 252 945 252 947 b 220 973 248 962 234 973 b 184 937 201 973 184 957 b 220 904 184 919 201 904 l 227 904 b 195 876 223 891 213 880 b 188 864 190 873 186 869 m 86 864 b 94 855 86 859 90 855 l 98 855 b 151 932 145 868 151 909 l 151 933 l 151 937 l 151 945 b 150 948 150 945 150 947 b 118 973 145 962 131 973 b 81 937 98 973 81 957 b 118 904 81 919 98 904 l 125 904 b 93 876 120 891 111 880 b 86 864 87 873 83 869 "},"@":{"x_min":74.109375,"x_max":1046.21875,"ha":1361,"o":"m 763 377 b 779 361 763 368 769 361 b 799 377 789 361 799 368 l 799 447 b 797 455 799 450 799 454 b 799 484 799 465 799 475 b 797 509 799 493 799 500 b 779 525 797 516 787 525 b 763 505 768 522 763 512 l 763 484 b 754 420 763 463 760 440 b 763 400 750 409 754 404 l 763 377 m 683 288 b 694 281 683 283 689 281 b 707 286 697 281 703 283 b 757 340 725 301 743 320 b 750 366 763 351 760 361 b 725 361 744 372 731 368 b 683 312 714 343 699 326 b 683 288 678 307 675 295 m 930 740 b 946 734 935 737 937 734 b 955 737 947 734 953 734 b 961 762 965 743 967 754 b 915 818 946 782 930 800 b 887 818 907 826 896 826 b 887 793 882 814 882 800 b 930 740 905 777 918 759 m 719 907 b 725 905 724 907 725 905 b 744 916 735 905 740 911 b 735 937 749 925 743 936 b 664 958 710 947 688 957 b 640 945 654 962 643 957 b 656 925 639 936 646 926 b 719 907 679 920 699 915 m 549 248 b 565 231 549 241 554 231 b 639 247 592 233 618 238 b 651 272 651 251 654 261 b 628 281 646 281 638 283 b 565 268 610 273 586 269 b 549 248 554 268 549 261 m 808 169 b 847 162 819 163 833 162 b 874 163 855 162 865 162 b 892 169 879 163 887 166 b 901 193 901 173 905 183 b 879 202 898 202 887 206 b 865 198 874 202 868 202 l 847 198 b 824 202 839 198 832 198 b 803 197 818 208 807 204 b 808 169 797 186 800 176 m 990 620 b 1007 609 992 611 997 609 l 1011 609 b 1024 630 1021 611 1026 620 b 997 698 1017 655 1007 677 b 972 707 992 707 980 709 b 967 683 965 702 961 690 b 990 620 975 663 985 640 m 249 836 b 263 827 251 832 257 827 b 276 833 267 827 272 832 b 328 872 292 847 308 861 b 335 895 336 877 342 889 b 311 902 331 905 321 907 b 251 861 289 891 272 877 b 249 836 243 852 243 841 m 930 212 b 942 208 935 209 937 208 b 955 212 947 208 953 209 b 992 261 980 237 992 261 b 997 276 994 268 997 272 b 990 298 1004 286 997 295 b 967 288 980 302 971 298 b 962 277 967 287 965 283 b 953 268 962 277 958 276 b 930 237 947 256 940 247 b 930 212 922 229 922 219 m 322 473 b 342 455 322 465 331 455 b 358 475 351 457 358 465 b 357 484 357 479 357 480 b 363 540 357 502 361 522 b 351 561 367 550 361 558 b 331 545 342 563 331 558 b 321 484 325 526 321 507 b 322 473 321 479 321 476 m 164 202 b 178 197 168 198 172 197 b 190 198 182 197 186 198 b 193 223 197 204 199 216 b 158 281 179 241 168 261 b 135 288 154 288 144 295 b 128 265 128 286 124 276 b 164 202 138 243 150 222 m 267 98 b 276 94 269 94 272 94 b 289 102 282 94 286 97 b 286 127 297 108 296 119 b 238 169 269 140 251 154 b 210 172 229 177 218 177 b 210 147 204 163 204 152 b 267 98 228 129 246 112 m 496 243 b 514 255 506 243 511 247 b 501 277 517 262 511 276 b 446 307 481 283 461 295 b 421 302 438 312 426 311 b 425 277 414 295 417 286 b 490 243 446 262 465 251 l 496 243 m 394 27 b 400 25 396 27 396 25 b 414 40 406 25 414 30 b 406 61 421 48 414 58 b 346 90 382 68 363 79 b 321 83 335 93 325 90 b 326 58 315 73 317 63 b 394 27 349 48 371 38 m 75 475 b 93 459 75 465 81 459 b 110 476 100 459 110 465 b 108 484 108 479 108 480 b 114 544 108 505 110 525 b 99 563 114 554 108 563 b 79 550 89 563 81 558 b 74 484 75 526 74 507 b 75 475 74 480 74 479 m 158 729 b 168 725 164 727 164 725 b 183 733 176 725 179 729 b 224 786 197 750 210 768 b 224 812 232 793 232 804 b 199 809 217 818 207 816 b 154 750 182 791 168 772 b 158 729 150 744 150 734 m 110 598 b 128 609 118 598 125 601 b 150 675 133 630 140 651 b 140 697 154 683 150 693 b 119 689 133 700 124 697 b 93 619 108 668 99 643 b 104 598 90 609 94 601 l 110 598 m 372 591 b 388 600 381 591 385 595 b 428 650 400 619 414 634 b 431 675 436 655 438 668 b 406 675 425 683 414 683 b 358 618 386 661 371 637 b 363 591 356 609 357 598 l 372 591 m 504 950 b 521 934 504 940 510 934 b 560 936 535 934 546 936 b 590 934 571 936 581 936 b 606 952 599 934 606 940 b 590 970 610 961 600 970 b 560 972 581 970 572 972 b 519 970 546 972 533 970 b 504 950 507 966 501 958 m 368 911 b 382 901 368 905 376 901 b 390 902 385 901 388 901 b 454 925 410 911 435 918 b 467 944 465 925 469 934 b 447 958 465 952 456 958 b 376 934 422 952 400 944 b 368 911 368 930 363 920 m 371 332 b 385 326 375 326 381 326 b 396 327 388 326 392 326 b 400 355 401 334 404 347 b 368 409 386 368 376 387 b 349 422 368 420 357 425 b 335 400 336 420 335 407 b 371 332 346 375 357 352 m 536 0 b 551 15 544 0 551 8 b 539 34 551 25 546 33 b 471 41 515 34 494 40 b 450 27 461 44 451 40 b 465 8 447 19 454 11 b 536 0 486 4 511 0 m 590 18 b 606 0 590 8 599 0 l 610 1 b 679 13 631 4 658 8 b 693 34 689 15 697 25 b 671 48 690 44 679 50 b 604 34 651 41 628 40 b 590 18 596 34 590 25 m 839 839 b 849 836 842 837 846 836 b 862 841 855 836 858 837 b 858 866 868 848 867 861 b 799 907 842 883 822 895 b 776 901 789 912 779 911 b 782 879 769 893 774 882 b 839 839 803 865 822 852 m 749 568 b 762 558 750 561 757 558 l 769 558 b 779 580 779 561 783 572 b 743 644 769 605 758 625 b 717 650 738 655 725 655 b 714 623 710 643 708 630 b 749 568 729 605 740 590 m 1004 332 b 1010 330 1005 330 1007 330 b 1026 343 1017 330 1024 336 b 1040 415 1032 366 1037 391 b 1026 434 1044 425 1036 434 b 1005 420 1017 436 1007 430 b 992 355 1004 397 997 375 b 1004 332 987 347 994 334 m 99 332 b 115 320 100 326 108 320 b 121 322 118 320 119 320 b 131 343 131 322 135 334 b 115 409 125 365 119 387 b 94 425 114 420 104 426 b 81 401 85 422 79 413 b 99 332 85 377 90 355 m 669 669 b 678 665 671 668 674 665 b 693 675 683 665 689 669 b 688 697 697 680 697 690 b 618 729 665 709 643 723 b 596 716 610 733 600 725 b 610 694 594 707 600 697 b 669 669 629 689 651 680 m 1011 486 b 1030 470 1011 476 1017 470 b 1046 486 1040 470 1046 479 b 1040 558 1046 512 1046 536 b 1019 576 1040 569 1032 579 b 1005 554 1011 572 1004 563 b 1011 486 1010 532 1011 511 m 461 694 b 475 684 461 689 469 684 l 483 684 b 544 700 504 693 525 698 b 560 719 554 702 561 708 b 544 734 560 729 551 737 b 469 716 517 734 494 727 b 461 694 461 712 456 702 m 763 243 b 779 227 764 233 772 227 l 783 227 b 799 247 793 229 800 237 l 799 308 b 779 326 799 318 789 326 b 763 308 769 326 763 318 l 763 243 "},"f":{"x_min":90.421875,"x_max":383.484375,"ha":503,"o":"m 177 683 l 107 683 b 90 666 97 683 90 676 b 107 648 90 657 97 648 l 177 648 b 195 666 187 648 195 657 b 177 683 195 676 187 683 m 318 683 l 248 683 b 230 666 239 683 230 676 b 248 648 230 657 239 648 l 318 648 b 336 666 327 648 336 657 b 318 683 336 676 327 683 m 214 668 b 195 651 204 668 195 661 l 195 580 b 214 562 195 570 204 562 b 232 580 223 562 232 570 l 232 651 b 214 668 232 661 223 668 m 214 527 b 195 509 204 527 195 519 l 195 440 b 214 422 195 430 204 422 b 232 440 223 422 232 430 l 232 509 b 214 527 232 519 223 527 m 218 844 b 223 844 219 844 222 844 b 240 857 230 844 237 848 b 268 909 247 880 255 897 b 269 934 276 915 276 926 b 244 934 262 941 251 941 b 205 866 226 918 214 894 b 218 844 204 857 209 847 m 214 387 b 195 369 204 387 195 379 l 195 298 b 214 281 195 288 204 281 b 232 298 223 281 232 288 l 232 369 b 214 387 232 379 223 387 m 365 972 b 316 968 348 972 332 970 b 302 948 307 966 300 957 b 319 933 304 939 311 933 b 322 933 320 933 322 933 b 365 937 336 936 350 937 b 383 954 375 937 383 944 b 365 972 383 964 375 972 m 214 704 b 232 722 223 704 232 712 l 232 776 b 232 791 232 782 232 786 b 214 809 232 801 223 809 b 195 793 204 809 197 802 b 195 776 195 787 195 782 l 195 722 b 214 704 195 712 204 704 m 214 245 b 195 229 204 245 195 238 l 195 158 b 214 140 195 148 204 140 b 232 158 223 140 232 148 l 232 229 b 214 245 232 238 223 245 m 214 105 b 195 87 204 105 195 97 l 195 18 b 214 0 195 8 204 0 b 232 18 223 0 232 8 l 232 87 b 214 105 232 97 223 105 "},";":{"x_min":81.71875,"x_max":151.171875,"ha":333,"o":"m 85 -38 b 94 -47 85 -43 90 -47 l 98 -47 b 151 29 145 -34 151 6 l 151 34 l 151 38 l 151 43 b 149 45 149 43 149 44 b 117 70 145 59 131 70 b 81 34 98 70 81 54 b 117 1 81 16 98 1 l 124 1 b 92 -26 120 -9 110 -20 b 85 -38 87 -29 83 -33 m 151 543 b 117 577 151 562 135 577 b 81 543 98 577 81 562 b 117 508 81 525 98 508 b 151 543 135 508 151 525 "},"":{"x_min":106.9375,"x_max":279.171875,"ha":569,"o":"m 172 963 b 163 971 172 967 168 971 l 159 971 b 106 895 112 959 106 917 l 106 893 l 106 889 l 106 881 b 108 878 106 879 106 878 b 140 853 112 863 125 853 b 176 889 159 853 176 870 b 140 923 176 907 159 923 b 131 921 137 923 134 923 b 165 950 137 934 145 945 b 172 963 170 953 175 957 m 275 963 b 266 971 275 967 270 971 l 262 971 b 209 895 215 959 209 917 l 209 889 l 209 884 l 209 881 b 211 878 209 879 209 878 b 243 853 215 863 227 853 b 279 889 262 853 279 870 b 243 923 279 907 262 923 b 234 921 240 923 237 923 b 268 950 240 934 248 945 b 275 963 273 953 277 957 "},"i":{"x_min":130.5625,"x_max":166.671875,"ha":390,"o":"m 130 18 l 130 18 b 148 0 130 8 138 0 l 148 0 b 166 18 158 0 166 8 l 166 90 l 166 90 b 148 108 166 100 158 108 l 148 108 b 130 90 138 108 130 100 l 130 18 m 130 161 l 130 161 b 148 144 130 152 138 144 l 148 144 b 166 161 158 144 166 152 l 166 233 l 166 233 b 148 251 166 244 158 251 l 148 251 b 130 233 138 251 130 244 l 130 161 m 130 305 l 130 305 b 148 287 130 297 138 287 l 148 287 b 166 305 158 287 166 297 l 166 377 l 166 377 b 148 395 166 387 158 395 l 148 395 b 130 377 138 395 130 387 l 130 305 m 130 450 l 130 450 b 148 432 130 441 138 432 l 148 432 b 166 450 158 432 166 441 l 166 520 l 166 520 b 148 538 166 532 158 538 l 148 538 b 130 520 138 538 130 532 l 130 450 m 130 593 l 130 593 b 148 575 130 584 138 575 l 148 575 b 166 593 158 575 166 584 l 166 665 l 166 665 b 148 683 166 675 158 683 l 148 683 b 130 665 138 683 130 675 l 130 593 m 130 851 l 130 851 b 148 833 130 841 138 833 l 148 833 b 166 851 158 833 166 841 l 166 884 l 166 884 b 148 902 166 894 158 902 l 148 902 b 130 884 138 902 130 894 l 130 851 "},"A":{"x_min":77.515625,"x_max":818.078125,"ha":897,"o":"m 687 261 b 697 263 690 261 694 261 l 701 263 l 708 263 b 718 286 716 266 722 277 l 694 352 b 670 363 690 361 680 366 b 661 340 662 359 656 348 l 676 297 l 616 297 b 600 279 608 297 600 287 b 616 261 600 268 608 261 l 687 261 m 265 261 b 283 279 276 261 283 268 b 265 297 283 287 276 297 l 218 297 l 236 340 b 225 363 237 348 234 359 b 202 352 215 366 206 361 l 177 286 b 181 266 175 279 176 272 b 195 261 184 262 190 261 l 265 261 m 547 261 b 563 279 556 261 563 268 b 547 297 563 287 556 297 l 476 297 b 458 279 468 297 458 287 b 476 261 458 268 468 261 l 547 261 m 406 261 b 423 279 416 261 423 268 b 406 297 423 287 416 297 l 336 297 b 318 279 327 297 318 287 b 336 261 318 268 327 261 l 406 261 m 243 394 b 261 405 250 394 256 398 l 284 472 b 275 494 288 480 283 491 b 251 484 265 498 255 493 l 227 418 b 237 394 223 408 229 398 l 243 394 m 734 141 b 750 131 737 134 743 131 b 756 133 754 131 755 131 b 768 154 766 137 770 145 l 743 220 b 720 231 740 230 729 234 b 709 208 711 227 706 218 l 734 141 m 384 790 b 391 787 387 790 388 787 b 408 800 398 787 404 793 l 431 865 b 422 887 436 876 430 884 b 398 877 413 891 402 887 l 375 812 b 384 790 370 804 376 793 m 487 800 b 504 787 490 793 497 787 b 509 790 506 787 508 790 b 520 812 518 793 523 804 l 495 877 b 473 887 491 887 481 891 b 462 865 463 884 458 876 l 487 800 m 341 658 b 358 668 350 658 355 661 l 383 733 b 373 757 387 744 381 752 b 350 745 363 759 354 757 l 325 680 b 336 658 322 672 327 661 l 341 658 m 636 405 b 651 394 637 398 644 394 l 658 394 b 669 418 668 398 670 408 l 643 484 b 622 494 641 493 630 498 b 611 472 611 491 608 480 l 636 405 m 783 12 b 801 0 787 5 794 0 b 806 1 802 0 804 0 b 816 25 815 5 820 13 l 793 88 b 769 100 788 98 777 104 b 759 77 761 95 755 86 l 783 12 m 291 526 b 309 537 298 526 306 530 l 334 604 b 323 625 337 612 331 623 b 301 616 315 627 304 625 l 276 548 b 287 526 273 540 277 530 l 291 526 m 88 1 b 95 0 90 0 94 0 b 111 12 102 0 109 5 l 136 77 b 125 100 138 86 136 95 b 104 88 116 104 105 98 l 77 25 b 88 1 76 13 80 5 m 137 133 b 144 131 141 131 143 131 b 161 141 151 131 158 134 l 184 208 b 176 231 188 218 184 227 b 154 220 165 234 156 230 l 129 154 b 137 133 125 145 129 137 m 537 668 b 554 658 540 661 547 658 l 558 658 b 569 680 569 661 573 672 l 544 747 b 522 757 541 757 533 759 b 513 733 513 752 509 744 l 537 668 m 587 537 b 602 526 588 530 595 526 l 609 526 b 618 548 618 530 622 540 l 594 616 b 570 625 590 625 581 627 b 562 604 562 623 558 612 l 587 537 m 434 920 b 441 919 436 920 440 919 b 447 920 443 919 445 919 b 455 919 450 919 452 919 b 461 920 456 919 458 920 b 470 944 469 925 475 934 l 466 958 b 447 969 462 965 454 970 b 429 958 438 970 430 965 l 423 944 b 434 920 420 934 425 925 "},"6":{"x_min":88.890625,"x_max":718.0625,"ha":892,"o":"m 109 345 b 127 362 119 345 126 352 b 147 425 130 383 137 404 b 136 448 150 434 147 444 b 120 447 130 450 125 450 b 126 457 122 450 125 452 b 134 523 127 480 129 502 b 120 544 136 534 129 543 b 100 530 109 547 101 540 b 90 461 95 507 93 483 b 106 441 88 450 95 441 l 108 441 b 118 444 111 441 115 441 b 113 438 116 443 115 440 b 93 368 104 416 97 391 b 108 348 90 358 97 350 l 109 345 m 688 229 b 693 226 690 229 691 226 b 709 240 701 226 708 233 b 718 315 716 265 718 290 b 716 357 718 329 718 343 b 697 372 715 368 705 375 b 681 352 686 370 679 362 b 683 315 683 341 683 326 b 676 250 683 291 681 270 b 688 229 675 238 679 230 m 173 712 b 181 709 176 709 179 709 b 197 719 187 709 194 714 b 233 779 208 740 219 759 b 227 802 238 786 236 795 b 202 798 219 808 208 807 b 166 736 188 779 176 758 b 173 712 161 727 163 716 m 590 523 b 600 518 593 520 597 518 b 613 525 605 518 611 522 b 612 550 622 533 619 543 b 551 593 595 566 573 580 b 527 586 543 597 531 594 b 536 561 523 576 526 566 b 590 523 554 550 572 537 m 377 1 b 404 0 386 0 394 0 b 451 4 419 0 434 1 b 466 25 461 5 466 13 b 445 38 465 33 456 40 b 404 34 431 37 418 34 b 380 37 397 34 387 34 b 361 20 370 37 361 30 b 377 1 359 11 368 1 m 127 580 b 133 577 129 577 130 577 b 148 593 140 577 147 583 b 169 657 155 613 162 636 b 159 680 173 666 168 676 b 136 669 150 683 140 679 b 115 601 129 647 120 623 b 127 580 111 593 119 582 m 102 219 b 120 206 104 212 111 206 b 126 209 122 206 123 209 b 136 230 134 212 140 220 b 123 295 129 251 126 273 b 106 312 123 305 115 312 b 88 293 95 311 88 302 b 102 219 90 269 95 244 m 155 477 b 166 475 156 476 161 475 b 180 482 170 475 176 477 b 223 529 193 498 208 515 b 227 555 233 536 233 547 b 202 557 220 562 209 562 b 152 502 183 541 166 523 b 155 477 145 495 147 484 m 618 106 b 630 104 622 105 625 104 b 643 108 633 104 638 105 b 684 170 658 127 672 150 b 676 195 688 179 684 190 b 652 187 669 198 656 197 b 616 133 643 166 630 150 b 618 106 609 125 611 113 m 500 33 b 516 22 504 26 509 22 l 523 22 b 587 59 545 33 569 45 b 591 84 595 65 597 75 b 566 87 586 91 576 93 b 509 56 550 75 530 65 b 500 33 500 52 497 41 m 309 15 b 326 27 318 15 325 19 b 315 48 329 37 325 47 b 255 77 294 56 275 66 b 231 72 247 81 236 80 b 236 47 226 63 229 52 b 305 15 258 34 280 25 l 309 15 m 258 573 b 273 563 259 568 266 563 b 280 566 275 563 279 563 b 341 587 300 575 320 582 b 355 608 352 588 358 600 b 334 622 354 619 344 623 b 265 597 309 616 287 608 b 258 573 255 593 252 582 m 179 94 b 190 90 181 91 187 90 b 205 93 195 90 201 91 b 205 119 209 100 209 112 b 163 170 188 134 175 151 b 140 177 159 179 148 180 b 133 152 130 172 129 161 b 179 94 147 131 161 112 m 361 915 b 377 905 362 908 370 905 b 384 907 379 905 380 905 b 447 926 404 915 425 923 b 459 947 456 930 463 939 b 438 961 458 958 448 964 b 370 939 413 957 391 947 b 361 915 361 934 355 925 m 665 416 b 681 405 666 409 675 405 l 688 405 b 697 429 697 409 701 420 b 662 494 688 451 676 475 b 637 498 656 502 645 504 b 633 475 630 494 629 482 b 665 416 645 457 656 437 m 477 586 b 494 597 486 586 493 590 b 483 619 498 608 491 616 b 408 629 459 626 434 629 b 391 612 400 629 391 622 b 408 594 391 602 398 594 b 473 586 431 594 452 590 l 477 586 m 250 829 b 262 825 254 826 258 825 b 275 829 266 825 272 826 b 326 873 291 845 306 861 b 329 898 333 879 334 890 b 305 901 325 905 313 907 b 250 854 286 887 266 872 b 250 829 243 847 243 837 m 494 952 b 512 937 494 944 504 937 l 519 937 b 536 954 527 937 536 945 b 518 972 536 965 526 972 l 512 972 b 494 952 501 970 494 964 "},"":{"x_min":106.9375,"x_max":176.390625,"ha":319,"o":"m 172 861 b 165 873 175 866 170 870 b 131 901 145 877 137 889 l 140 901 b 176 934 159 901 176 916 b 140 970 176 954 159 970 b 108 945 125 970 112 959 b 106 943 106 944 106 943 l 106 939 l 106 934 l 106 930 l 106 929 b 159 852 106 907 112 865 l 163 852 b 172 861 168 852 172 857 "},"n":{"x_min":129,"x_max":674.828125,"ha":851,"o":"m 148 418 b 166 434 156 418 163 423 b 181 496 166 454 172 475 b 170 518 184 506 179 516 b 163 520 167 520 165 520 l 163 523 b 147 539 163 531 155 539 b 129 523 135 539 129 531 l 129 453 b 130 443 129 449 129 446 l 130 438 b 147 418 129 427 135 418 l 148 418 m 129 295 b 147 278 129 285 135 278 b 163 295 155 278 163 285 l 163 382 b 147 400 163 392 155 400 b 129 382 135 400 129 392 l 129 368 l 129 366 l 129 295 m 129 17 b 147 0 129 6 135 0 b 163 17 155 0 163 6 l 163 29 l 163 34 l 163 86 l 163 89 l 163 104 b 147 121 163 113 155 121 b 129 104 135 121 129 113 l 129 89 l 129 86 l 129 34 l 129 29 l 129 17 m 129 156 b 147 139 129 146 135 139 b 163 156 155 139 163 146 l 163 168 l 163 172 l 163 243 b 147 260 163 252 155 260 b 129 243 135 260 129 252 l 129 228 l 129 225 l 129 156 m 601 535 b 617 528 605 529 609 528 b 626 529 620 528 623 528 b 631 554 635 535 635 548 b 583 611 617 574 601 593 b 558 610 574 616 565 616 b 559 585 551 600 552 591 b 601 535 574 570 590 554 m 640 134 b 658 116 640 124 648 116 b 674 134 667 116 674 124 l 674 203 b 658 221 674 214 667 221 b 640 203 648 221 640 214 l 640 134 m 188 548 b 198 545 191 548 195 545 b 212 552 204 545 209 548 b 259 598 227 570 242 584 b 263 623 266 603 269 613 b 238 625 258 629 245 631 b 185 574 219 610 201 592 b 188 548 179 566 181 554 m 129 592 b 147 574 129 581 135 574 b 163 592 155 574 163 581 l 163 661 b 147 680 163 671 155 680 b 129 661 135 680 129 671 l 129 592 m 640 411 b 658 395 640 403 648 395 l 659 395 b 674 414 667 396 674 403 b 662 488 674 438 669 463 b 642 498 660 496 651 502 b 629 477 631 496 626 486 b 640 411 635 456 640 435 m 640 272 b 658 256 640 264 648 256 b 674 272 667 256 674 264 l 674 343 b 658 360 674 353 667 360 b 640 343 648 360 640 353 l 640 272 m 295 638 b 310 627 295 631 302 627 b 315 629 312 627 313 627 b 380 642 337 635 356 642 b 395 661 388 645 395 653 b 376 678 394 673 385 680 b 302 660 351 675 326 668 b 295 638 295 657 291 649 m 506 620 b 512 618 506 618 510 618 b 529 629 519 618 526 623 b 522 652 533 638 530 649 b 449 674 499 661 476 671 b 431 660 441 675 431 671 b 444 642 429 652 434 642 b 506 620 465 635 487 630 m 640 17 b 658 0 640 6 648 0 b 674 17 667 0 674 6 l 674 63 b 658 81 674 74 667 81 b 640 63 648 81 640 74 l 640 17 "}}}
